0
SECTION
2
HEADER
9
$INSUNITS
70
4
9
$ACADVER
1
AC1014
9
$HANDSEED
5
FFFF
0
ENDSEC
0
SECTION
2
TABLES
0
TABLE
2
VPORT
5
8
100
AcDbSymbolTable
0
ENDTAB
0
TABLE
2
LTYPE
5
5
100
AcDbSymbolTable
0
LTYPE
5
14
100
AcDbSymbolTableRecord
100
AcDbLinetypeTableRecord
2
BYBLOCK
70
0
0
LTYPE
5
15
100
AcDbSymbolTableRecord
100
AcDbLinetypeTableRecord
2
BYLAYER
70
0
0
LTYPE
5
16
100
AcDbSymbolTableRecord
100
AcDbLinetypeTableRecord
2
DASHED
70
0
3
Dashed __ __ __ __ __ __ __ __ __ __ __ __ __ _
72
65
73
2
40
0.75
49
0.5
74
0
49
-0.25
74
0
0
ENDTAB
0
TABLE
2
LAYER
5
2
100
AcDbSymbolTable
70
3
0
LAYER
5
50
100
AcDbSymbolTableRecord
100
AcDbLayerTableRecord
2
1
70
0
62
7
6
DASHED
0
LAYER
5
51
100
AcDbSymbolTableRecord
100
AcDbLayerTableRecord
2
0
70
0
62
7
6
CONTINUOUS
0
ENDTAB
0
TABLE
2
STYLE
5
3
100
AcDbSymbolTable
70
1
0
STYLE
5
11
100
AcDbSymbolTableRecord
100
AcDbTextStyleTableRecord
2
STANDARD
70
0
0
ENDTAB
0
TABLE
2
VIEW
5
6
100
AcDbSymbolTable
70
0
0
ENDTAB
0
TABLE
2
UCS
5
7
100
AcDbSymbolTable
70
0
0
ENDTAB
0
TABLE
2
APPID
5
9
100
AcDbSymbolTable
70
2
0
APPID
5
12
100
AcDbSymbolTableRecord
100
AcDbRegAppTableRecord
2
ACAD
70
0
0
ENDTAB
0
TABLE
2
DIMSTYLE
5
A
100
AcDbSymbolTable
70
1
0
ENDTAB
0
TABLE
2
BLOCK_RECORD
5
1
100
AcDbSymbolTable
70
1
0
BLOCK_RECORD
5
1F
100
AcDbSymbolTableRecord
100
AcDbBlockTableRecord
2
*MODEL_SPACE
0
BLOCK_RECORD
5
1B
100
AcDbSymbolTableRecord
100
AcDbBlockTableRecord
2
*PAPER_SPACE
0
ENDTAB
0
ENDSEC
0
SECTION
2
BLOCKS
0
BLOCK
5
20
100
AcDbEntity
100
AcDbBlockBegin
2
*MODEL_SPACE
0
ENDBLK
5
21
100
AcDbEntity
100
AcDbBlockEnd
0
BLOCK
5
1C
100
AcDbEntity
100
AcDbBlockBegin
2
*PAPER_SPACE
0
ENDBLK
5
1D
100
AcDbEntity
100
AcDbBlockEnd
0
ENDSEC
0
SECTION
2
ENTITIES
0
ARC
5
100
100
AcDbEntity
8
0
100
AcDbCircle
10
136.59999999995867
20
-201.99999999999756
30
1.1102230246251565e-14
40
1.0000000000000142
210
0
220
0
230
1
100
AcDbArc
50
-89.999999999988603
51
0
0
LINE
5
101
100
AcDbEntity
8
0
100
AcDbLine
10
136.59999999995887
20
-202.99999999999756
30
1.1102230246251565e-14
11
129.59999999993948
21
-202.99999999999864
31
1.1920876041848771e-06
0
ARC
5
102
100
AcDbEntity
8
0
100
AcDbCircle
10
129.59999999993929
20
-201.99999999999869
30
1.1102230246251565e-14
40
0.99999999999997868
210
0
220
0
230
1
100
AcDbArc
50
180
51
270.00000000001137
0
LINE
5
103
100
AcDbEntity
8
0
100
AcDbLine
10
128.59999999993931
20
-201.99999999999966
30
1.1102230246251565e-14
11
128.59999999993829
21
-201.00000000000023
31
2.2204460492503131e-15
0
ARC
5
104
100
AcDbEntity
8
0
100
AcDbCircle
10
129.09999999993829
20
-200.99999999999972
30
1.1102230246251565e-14
40
0.50000000000004263
210
0
220
0
230
1
100
AcDbArc
50
90.00000000001954
51
180
0
LINE
5
105
100
AcDbEntity
8
0
100
AcDbLine
10
129.09999999993812
20
-200.49999999999969
30
1.1102230246251565e-14
11
132.23397459617115
21
-200.49999999999866
31
2.2204460492503131e-15
0
ARC
5
106
100
AcDbEntity
8
0
100
AcDbCircle
10
132.23397459617132
20
-200.99999999999866
30
1.1102230246251565e-14
40
0.49999999999999722
210
0
220
-0
230
1
100
AcDbArc
50
30.000000000162544
51
90.00000000001954
0
ARC
5
107
100
AcDbEntity
8
0
100
AcDbCircle
10
133.09999999995259
20
-200.49999999999721
30
1.1102230246251565e-14
40
0.49999999999799227
210
0
220
0
230
1
100
AcDbArc
50
-149.99999999983686
51
0
0
LINE
5
108
100
AcDbEntity
8
0
100
AcDbLine
10
133.59999999995057
20
-200.49999999999477
30
1.1102230246251565e-14
11
133.59999999993718
21
-197.49999999999397
31
1.1920875864213087e-06
0
ARC
5
109
100
AcDbEntity
8
0
100
AcDbCircle
10
133.09999999955659
20
-197.49999999999653
30
-0.0003173337125339002
40
0.50000000000373745
210
-2.3841751506203354e-06
220
-1.2197220005125252e-17
230
0.99999999999715783
100
AcDbArc
50
0
51
149.99999999983183
0
ARC
5
110
100
AcDbEntity
8
0
100
AcDbCircle
10
132.23397459614742
20
-196.99999999999707
30
1.1102230246251565e-14
40
0.50000000000000711
210
0
220
0
230
1
100
AcDbArc
50
270.00000000000978
51
330.00000000011346
0
LINE
5
111
100
AcDbEntity
8
0
100
AcDbLine
10
132.2339745961475
20
-197.4999999999971
30
1.1102230246251565e-14
11
129.09999999993443
21
-197.49999999999773
31
2.2204460492503131e-15
0
ARC
5
112
100
AcDbEntity
8
0
100
AcDbCircle
10
129.09999999993431
20
-196.99999999999767
30
1.1102230246251565e-14
40
0.49999999999998934
210
0
220
0
230
1
100
AcDbArc
50
180
51
270.00000000001302
0
LINE
5
113
100
AcDbEntity
8
0
100
AcDbLine
10
128.59999999993431
20
-196.99999999999818
30
1.1102230246251565e-14
11
128.59999999993332
21
-195.99999999999963
31
1.1920876041848771e-06
0
ARC
5
114
100
AcDbEntity
8
0
100
AcDbCircle
10
129.59999999993332
20
-195.99999999999864
30
1.1102230246251565e-14
40
1.0000000000000142
210
0
220
0
230
1
100
AcDbArc
50
90.000000000008143
51
180.0000683018917
0
LINE
5
115
100
AcDbEntity
8
0
100
AcDbLine
10
129.59999999993317
20
-194.99999999999861
30
1.1102230246251565e-14
11
136.59999999995819
21
-194.9999999999975
31
1.192087599743985e-06
0
ARC
5
116
100
AcDbEntity
8
0
100
AcDbCircle
10
136.5999999999583
20
-195.99999999999753
30
1.1102230246251565e-14
40
1.0000000000000142
210
0
220
-0
230
1
100
AcDbArc
50
0
51
90.000000000006523
0
LINE
5
117
100
AcDbEntity
8
0
100
AcDbLine
10
137.59999999995833
20
-195.9999999999975
30
1.1102230246251565e-14
11
137.59999999995867
21
-201.99999999999747
31
1.1102230246251565e-14
0
LWPOLYLINE
5
118
100
AcDbEntity
8
0
100
AcDbPolyline
90
34
70
1
43
0.0
10
94.060660171778466
20
-208.56066017175982
42
0.19891236737871132
10
95.121320343554444
20
-208.99999999997613
10
178.87867965644176
20
-208.99999999997613
42
0.19891236737966234
10
179.93933982822159
20
-208.56066017175593
10
183.06066017178125
20
-205.4393398281963
42
0.19891236737965801
10
183.50000000000139
20
-204.37867965641647
10
183.50000000000142
20
-186.49999999999886
42
-0.41421356237309503
10
186.50000000000142
20
-183.49999999999886
10
187.50000000000014
20
-183.49999999999886
42
0.41421356237309503
10
189.00000000000017
20
-181.99999999999889
10
189.00000000000011
20
-177.99999999999892
42
-0.41421356237309503
10
192.00000000000017
20
-174.99999999999886
10
203.50000000000017
20
-174.99999999999886
42
0.41421356237309503
10
205.00000000000014
20
-173.49999999999886
10
205.00000000000014
20
-150.12132034355855
42
0.19891236737966017
10
204.56066017177994
20
-149.06066017177872
10
202.43933982822031
20
-146.93933982821906
42
0.1989123673796602
10
201.37867965644048
20
-146.49999999999889
10
188.62132034355994
20
-146.49999999999886
42
0.1989123673796471
10
187.56066017178017
20
-146.939339828219
10
184.87867965644051
20
-149.62132034355864
42
-0.19891236737965037
10
182.75735931288091
20
-150.49999999999892
10
172.97106781186514
20
-150.49999999999892
42
0.19891236737965362
10
171.91040764008534
20
-150.93933982821909
10
166.72842712474568
20
-156.12132034355861
42
-0.19891236737965362
10
164.60710678118608
20
-156.99999999999892
10
155.12132034359124
20
-156.99999999999892
42
0.19891236737961884
10
154.06066017181158
20
-157.43933982821892
10
140.37867965649025
20
-171.12132034353613
42
-0.19891236737961887
10
138.25735931293093
20
-171.99999999997615
10
92.999999999997911
20
-171.99999999997615
42
0.41421356237309503
10
91.499999999997911
20
-173.49999999997613
10
91.499999999997911
20
-205.37867965643494
42
0.19891236738059381
10
91.939339828221904
20
-206.43933982821858
0
LWPOLYLINE
5
119
100
AcDbEntity
8
0
100
AcDbPolyline
90
8
70
1
43
0.0
10
180.45000000000022
20
-156.09999999999877
10
180.45000000000027
20
-165.8999999999989
42
-0.41421356237309503
10
179.95000000000027
20
-166.3999999999989
10
178.75000000000026
20
-166.3999999999989
42
-0.41421356237309503
10
178.25000000000023
20
-165.8999999999989
10
178.25000000000023
20
-156.09999999999877
42
-0.41421356237309503
10
178.75000000000026
20
-155.59999999999877
10
179.95000000000027
20
-155.5999999999988
42
-0.41421356237309503
0
LWPOLYLINE
5
120
100
AcDbEntity
8
0
100
AcDbPolyline
90
6
70
1
43
0.0
10
114.00000000001292
20
-177.6999999999876
10
148.70000000001286
20
-177.6999999999876
42
-0.41421356237309503
10
151.00000000001285
20
-179.99999999998761
10
151.0000000000129
20
-180.69999999998757
42
-0.41421356237309503
10
148.70000000001286
20
-182.99999999998761
10
114.00000000001292
20
-182.99999999998761
0
LWPOLYLINE
5
121
100
AcDbEntity
8
0
100
AcDbPolyline
90
16
70
1
43
0.0
10
101.01928108611483
20
-186.12499999998755
42
0.18267581368159244
10
100.68856217223177
20
-185.99999999998755
10
97.411437827764047
20
-185.99999999998755
42
0.18267581368159244
10
97.080718913880986
20
-186.12499999998755
42
-0.93922053388443272
10
96.374999999997897
20
-185.41928108610446
42
0.18267581368160454
10
96.499999999997911
20
-185.08856217222137
10
96.499999999997911
20
-175.91143782774228
42
0.18267581368160454
10
96.374999999997911
20
-175.58071891385919
42
-0.93922053388445736
10
97.080718913880986
20
-174.8749999999761
42
0.18267581368160454
10
97.411437827764047
20
-174.99999999997613
10
100.68856217223177
20
-174.99999999997613
42
0.18267581368159244
10
101.0192810861148
20
-174.87499999997613
42
-0.93922053388449156
10
101.72499999999789
20
-175.58071891385922
42
0.18267581368159844
10
101.59999999999791
20
-175.91143782774228
10
101.59999999999791
20
-185.08856217222137
42
0.18267581368159844
10
101.72499999999789
20
-185.41928108610446
42
-0.93922053388444438
0
LWPOLYLINE
5
122
100
AcDbEntity
8
0
100
AcDbPolyline
90
8
70
1
43
0.0
10
185.50000000000017
20
-166.39999999999895
10
184.12000000000018
20
-166.3999999999989
42
-0.41421356237309503
10
183.62000000000018
20
-165.8999999999989
10
183.62000000000012
20
-156.09999999999877
42
-0.41421356237309503
10
184.12000000000012
20
-155.59999999999877
10
185.50000000000017
20
-155.59999999999877
42
-0.41421356237309503
10
186.0000000000002
20
-156.09999999999877
10
186.00000000000023
20
-165.8999999999989
42
-0.41421356237309503
0
LWPOLYLINE
5
123
100
AcDbEntity
8
0
100
AcDbPolyline
90
4
70
1
43
0.0
10
197.54999999999978
20
-152.99999999999835
10
197.54999999999981
20
-153.49999999999835
42
-0.99999999999999989
10
192.44999999999982
20
-153.49999999999835
10
192.45000000000059
20
-152.99999999999943
42
-0.99999999999999989
0
LWPOLYLINE
5
124
100
AcDbEntity
8
0
100
AcDbPolyline
90
8
70
1
43
0.0
10
172.00000000000023
20
-155.59999999999891
10
174.0000000000002
20
-155.59999999999891
42
-0.41421356237309503
10
175.00000000000023
20
-156.59999999999891
10
175.00000000000023
20
-165.39999999999893
42
-0.41421356237309503
10
174.0000000000002
20
-166.39999999999895
10
172.00000000000023
20
-166.3999999999989
42
-0.41421356237309503
10
171.00000000000026
20
-165.39999999999893
10
171.00000000000023
20
-156.59999999999891
42
-0.41421356237309503
0
LWPOLYLINE
5
125
100
AcDbEntity
8
0
100
AcDbPolyline
90
4
70
1
43
0.0
10
197.54999999999978
20
-168.49999999999829
10
197.55000000000018
20
-168.99999999999889
42
-0.99999999999999989
10
192.45000000000019
20
-168.99999999999889
10
192.44999999999987
20
-168.49999999999829
42
-0.99999999999999989
0
CIRCLE
5
126
100
AcDbEntity
8
0
100
AcDbCircle
10
-110.50000000001292
20
-180.49999999998755
30
-2.2204460492503131e-15
40
1.25
210
1.2446030555722267e-60
220
-3.4544674220376735e-77
230
-1
0
CIRCLE
5
127
100
AcDbEntity
8
0
100
AcDbCircle
10
-162.50000000001285
20
-187.99999999998818
30
-2.2204460492503131e-15
40
6.5150000000000041
210
0
220
0
230
-1
0
CIRCLE
5
128
100
AcDbEntity
8
0
100
AcDbCircle
10
-178.00000000001279
20
-203.49999999998772
30
-2.2204460492503131e-15
40
1.5500000000000025
210
0
220
0
230
-1
0
CIRCLE
5
129
100
AcDbEntity
8
0
100
AcDbCircle
10
-147.0000000000133
20
-203.49999999998815
30
-2.2204460492503131e-15
40
1.549999999999998
210
0
220
0
230
-1
0
CIRCLE
5
130
100
AcDbEntity
8
0
100
AcDbCircle
10
-147.0000000000129
20
-172.49999999998866
30
-2.2204460492503131e-15
40
1.549999999999998
210
0
220
0
230
-1
0
CIRCLE
5
131
100
AcDbEntity
8
0
100
AcDbCircle
10
-178.00000000001234
20
-172.4999999999882
30
-2.2204460492503131e-15
40
1.5500000000000025
210
0
220
0
230
-1
0
CIRCLE
5
132
100
AcDbEntity
8
0
100
AcDbCircle
10
-98.249999999933834
20
-198.9999999999952
30
5.3312909642500017e-12
40
2.5499999999999989
210
0
220
0
230
-1
0
CIRCLE
5
133
100
AcDbEntity
8
0
100
AcDbCircle
10
-113.74999999993389
20
-198.99999999999523
30
5.3312909642500017e-12
40
2.5499999999999998
210
0
220
0
230
-1
0
CIRCLE
5
134
100
AcDbEntity
8
0
100
AcDbCircle
10
-162.50000000001285
20
-167.25999999999803
30
-2.2204460492503131e-15
40
6.5150000000000041
210
0
220
0
230
-1
0
CIRCLE
5
135
100
AcDbEntity
8
0
100
AcDbCircle
10
-171.134373167771
20
-172.4999999999882
30
-2.2204460492503131e-15
40
1.2500000000000089
210
0
220
0
230
-1
0
CIRCLE
5
136
100
AcDbEntity
8
0
100
AcDbCircle
10
-153.86562683225463
20
-162.0200000000078
30
-2.2204460492503131e-15
40
1.2500000000000089
210
0
220
0
230
-1
0
CIRCLE
5
137
100
AcDbEntity
8
0
100
AcDbCircle
10
-162.50000000001285
20
-197.5999999999884
30
-2.2204460492503131e-15
40
1.2500000000000044
210
3.503246160812038e-46
220
-9.7234613716577403e-63
230
-1
0
CIRCLE
5
138
100
AcDbEntity
8
0
100
AcDbCircle
10
-162.50000000001285
20
-178.39999999998798
30
-2.2204460492503131e-15
40
1.2500000000000044
210
3.503246160812038e-46
220
-9.7234613716577403e-63
230
-1
0
ENDSEC
0
SECTION
2
OBJECTS
0
DICTIONARY
5
C
100
AcDbDictionary
3
ACAD_GROUP
350
D
3
ACAD_MLINESTYLE
350
17
0
DICTIONARY
5
D
100
AcDbDictionary
0
DICTIONARY
5
1A
330
C
100
AcDbDictionary
0
DICTIONARY
5
17
100
AcDbDictionary
0
ENDSEC
0
EOF
