0
SECTION
2
HEADER
9
$INSUNITS
70
4
9
$ACADVER
1
AC1014
9
$HANDSEED
5
FFFF
0
ENDSEC
0
SECTION
2
TABLES
0
TABLE
2
VPORT
5
8
100
AcDbSymbolTable
0
ENDTAB
0
TABLE
2
LTYPE
5
5
100
AcDbSymbolTable
0
LTYPE
5
14
100
AcDbSymbolTableRecord
100
AcDbLinetypeTableRecord
2
BYBLOCK
70
0
0
LTYPE
5
15
100
AcDbSymbolTableRecord
100
AcDbLinetypeTableRecord
2
BYLAYER
70
0
0
LTYPE
5
16
100
AcDbSymbolTableRecord
100
AcDbLinetypeTableRecord
2
DASHED
70
0
3
Dashed __ __ __ __ __ __ __ __ __ __ __ __ __ _
72
65
73
2
40
0.75
49
0.5
74
0
49
-0.25
74
0
0
ENDTAB
0
TABLE
2
LAYER
5
2
100
AcDbSymbolTable
70
3
0
LAYER
5
50
100
AcDbSymbolTableRecord
100
AcDbLayerTableRecord
2
1
70
0
62
7
6
DASHED
0
LAYER
5
51
100
AcDbSymbolTableRecord
100
AcDbLayerTableRecord
2
0
70
0
62
7
6
CONTINUOUS
0
ENDTAB
0
TABLE
2
STYLE
5
3
100
AcDbSymbolTable
70
1
0
STYLE
5
11
100
AcDbSymbolTableRecord
100
AcDbTextStyleTableRecord
2
STANDARD
70
0
0
ENDTAB
0
TABLE
2
VIEW
5
6
100
AcDbSymbolTable
70
0
0
ENDTAB
0
TABLE
2
UCS
5
7
100
AcDbSymbolTable
70
0
0
ENDTAB
0
TABLE
2
APPID
5
9
100
AcDbSymbolTable
70
2
0
APPID
5
12
100
AcDbSymbolTableRecord
100
AcDbRegAppTableRecord
2
ACAD
70
0
0
ENDTAB
0
TABLE
2
DIMSTYLE
5
A
100
AcDbSymbolTable
70
1
0
ENDTAB
0
TABLE
2
BLOCK_RECORD
5
1
100
AcDbSymbolTable
70
1
0
BLOCK_RECORD
5
1F
100
AcDbSymbolTableRecord
100
AcDbBlockTableRecord
2
*MODEL_SPACE
0
BLOCK_RECORD
5
1B
100
AcDbSymbolTableRecord
100
AcDbBlockTableRecord
2
*PAPER_SPACE
0
ENDTAB
0
ENDSEC
0
SECTION
2
BLOCKS
0
BLOCK
5
20
100
AcDbEntity
100
AcDbBlockBegin
2
*MODEL_SPACE
0
ENDBLK
5
21
100
AcDbEntity
100
AcDbBlockEnd
0
BLOCK
5
1C
100
AcDbEntity
100
AcDbBlockBegin
2
*PAPER_SPACE
0
ENDBLK
5
1D
100
AcDbEntity
100
AcDbBlockEnd
0
ENDSEC
0
SECTION
2
ENTITIES
0
LWPOLYLINE
5
100
100
AcDbEntity
8
0
100
AcDbPolyline
90
8
70
1
43
0.0
10
170.99999999999994
20
156.60000000000088
10
170.99999999999994
20
165.40000000000083
42
-0.41421356237309503
10
171.99999999999994
20
166.40000000000086
10
173.99999999999989
20
166.40000000000086
42
-0.41421356237309503
10
174.99999999999989
20
165.40000000000083
10
174.99999999999994
20
156.60000000000088
42
-0.41421356237309503
10
173.99999999999991
20
155.6000000000009
10
171.99999999999994
20
155.60000000000088
42
-0.41421356237309503
0
LWPOLYLINE
5
101
100
AcDbEntity
8
0
100
AcDbPolyline
90
34
70
1
43
0.0
10
184.99999999999989
20
150.12132034356051
42
0.19891236737965362
10
185.43933982822008
20
149.06066017178068
10
187.56066017177969
20
146.93933982822108
42
0.1989123673796602
10
188.62132034355952
20
146.50000000000091
10
201.3786796564402
20
146.50000000000094
42
0.19891236737965362
10
202.43933982822
20
146.93933982822108
10
204.5606601717796
20
149.06066017178071
42
0.19891236737966017
10
204.99999999999977
20
150.12132034356054
10
204.99999999999977
20
173.50000000000085
42
0.41421356237309503
10
203.49999999999977
20
175.00000000000088
10
192.00000000000102
20
175.00000000000085
42
-0.41421356237309503
10
189.00000000000102
20
178.00000000000085
10
189.00000000000102
20
182.00000000000085
42
0.41421356237309503
10
187.50000000000099
20
183.50000000000085
10
186.50000000000105
20
183.50000000000085
42
-0.41421356237309503
10
183.50000000000108
20
186.50000000000085
10
183.50000000000105
20
200.74264068711835
42
0.19891236737965801
10
183.06066017178085
20
201.80330085889813
10
181.30330085889841
20
203.56066017178057
42
0.19891236737965801
10
180.24264068711861
20
204.00000000000077
10
167.8336508149286
20
204.00000000000077
42
0.19891236737965801
10
166.77299064314877
20
203.56066017178057
10
161.92933982923188
20
198.71700935786362
42
0.19891236737966234
10
161.49000000101168
20
197.65634918608379
10
161.49000000101171
20
183.54365081387579
42
0.19891236737965801
10
161.92933982923188
20
182.48299064209593
10
163.8713203445713
20
180.54101012675648
42
-0.19891236737965801
10
164.75000000101164
20
178.41968978319684
10
164.7500000010117
20
158.72106781085455
42
0.19891236737965579
10
165.18933982923187
20
157.66040763907478
10
169.91040764008531
20
152.93933982822111
42
0.19891236737966234
10
170.97106781186514
20
152.50000000000091
10
182.99999999999989
20
152.50000000000091
42
-0.41421356237309503
10
184.99999999999989
20
150.50000000000094
0
LWPOLYLINE
5
102
100
AcDbEntity
8
0
100
AcDbPolyline
90
4
70
1
43
0.0
10
197.54999999999944
20
169.00000000000085
10
197.54999999999981
20
168.50000000000091
42
-0.99999999999999989
10
192.44999999999982
20
168.50000000000091
10
192.45000000000027
20
169.00000000000085
42
-0.99999999999999989
0
LWPOLYLINE
5
103
100
AcDbEntity
8
0
100
AcDbPolyline
90
4
70
1
43
0.0
10
192.44999999999948
20
153.00000000000074
10
192.44999999999942
20
153.49999999999994
42
-0.99999999999999989
10
197.54999999999933
20
153.5000000000019
10
197.54999999999944
20
153.00000000000074
42
-0.99999999999999989
0
LWPOLYLINE
5
104
100
AcDbEntity
8
0
100
AcDbPolyline
90
8
70
1
43
0.0
10
185.9999999999998
20
165.90000000000103
10
185.99999999999983
20
156.10000000000096
42
-0.41421356237309503
10
185.49999999999983
20
155.60000000000093
10
184.11999999999989
20
155.60000000000093
42
-0.41421356237309503
10
183.61999999999989
20
156.10000000000096
10
183.61999999999989
20
165.90000000000103
42
-0.41421356237309503
10
184.11999999999989
20
166.40000000000103
10
185.49999999999983
20
166.400000000001
42
-0.41421356237309503
0
LWPOLYLINE
5
105
100
AcDbEntity
8
0
100
AcDbPolyline
90
8
70
1
43
0.0
10
178.74999999999994
20
166.40000000000103
10
179.94999999999999
20
166.400000000001
42
-0.41421356237309503
10
180.44999999999993
20
165.90000000000103
10
180.44999999999999
20
156.10000000000096
42
-0.41421356237309503
10
179.94999999999999
20
155.60000000000093
10
178.74999999999997
20
155.60000000000093
42
-0.41421356237309503
10
178.24999999999994
20
156.10000000000096
10
178.24999999999991
20
165.90000000000103
42
-0.41421356237309503
0
CIRCLE
5
106
100
AcDbEntity
8
0
100
AcDbCircle
10
-175.74000000045612
20
174.60000000001256
30
-2.2204460492491945e-15
40
1.5500000000000025
210
-5.8676310294133696e-45
220
6.4061723436639541e-30
230
-1
0
CIRCLE
5
107
100
AcDbEntity
8
0
100
AcDbCircle
10
-171.49000000101165
20
190.59999999997979
30
-2.2204460492490919e-15
40
6.5149999999999952
210
-5.8676310294133696e-45
220
6.4061723436639541e-30
230
-1
0
CIRCLE
5
108
100
AcDbEntity
8
0
100
AcDbCircle
10
-179.00000000000105
20
199.50000000000077
30
-2.2204460492490351e-15
40
1.5500000000000003
210
-5.8676310294133696e-45
220
6.4061723436639541e-30
230
-1
0
CIRCLE
5
109
100
AcDbEntity
8
0
100
AcDbCircle
10
-171.49000000101151
20
180.99999999997976
30
-4.4408920984994665e-15
40
1.25
210
-5.8676310294133696e-45
220
6.4061723436639541e-30
230
-1
0
CIRCLE
5
110
100
AcDbEntity
8
0
100
AcDbCircle
10
-171.49000000101151
20
200.19999999997978
30
-4.4408920984993435e-15
40
1.25
210
-5.8676310294133696e-45
220
6.4061723436639541e-30
230
-1
0
ENDSEC
0
SECTION
2
OBJECTS
0
DICTIONARY
5
C
100
AcDbDictionary
3
ACAD_GROUP
350
D
3
ACAD_MLINESTYLE
350
17
0
DICTIONARY
5
D
100
AcDbDictionary
0
DICTIONARY
5
1A
330
C
100
AcDbDictionary
0
DICTIONARY
5
17
100
AcDbDictionary
0
ENDSEC
0
EOF
