0
SECTION
2
HEADER
9
$INSUNITS
70
4
9
$ACADVER
1
AC1014
9
$HANDSEED
5
FFFF
0
ENDSEC
0
SECTION
2
TABLES
0
TABLE
2
VPORT
5
8
100
AcDbSymbolTable
0
ENDTAB
0
TABLE
2
LTYPE
5
5
100
AcDbSymbolTable
0
LTYPE
5
14
100
AcDbSymbolTableRecord
100
AcDbLinetypeTableRecord
2
BYBLOCK
70
0
0
LTYPE
5
15
100
AcDbSymbolTableRecord
100
AcDbLinetypeTableRecord
2
BYLAYER
70
0
0
LTYPE
5
16
100
AcDbSymbolTableRecord
100
AcDbLinetypeTableRecord
2
DASHED
70
0
3
Dashed __ __ __ __ __ __ __ __ __ __ __ __ __ _
72
65
73
2
40
0.75
49
0.5
74
0
49
-0.25
74
0
0
ENDTAB
0
TABLE
2
LAYER
5
2
100
AcDbSymbolTable
70
3
0
LAYER
5
50
100
AcDbSymbolTableRecord
100
AcDbLayerTableRecord
2
1
70
0
62
7
6
DASHED
0
LAYER
5
51
100
AcDbSymbolTableRecord
100
AcDbLayerTableRecord
2
0
70
0
62
7
6
CONTINUOUS
0
ENDTAB
0
TABLE
2
STYLE
5
3
100
AcDbSymbolTable
70
1
0
STYLE
5
11
100
AcDbSymbolTableRecord
100
AcDbTextStyleTableRecord
2
STANDARD
70
0
0
ENDTAB
0
TABLE
2
VIEW
5
6
100
AcDbSymbolTable
70
0
0
ENDTAB
0
TABLE
2
UCS
5
7
100
AcDbSymbolTable
70
0
0
ENDTAB
0
TABLE
2
APPID
5
9
100
AcDbSymbolTable
70
2
0
APPID
5
12
100
AcDbSymbolTableRecord
100
AcDbRegAppTableRecord
2
ACAD
70
0
0
ENDTAB
0
TABLE
2
DIMSTYLE
5
A
100
AcDbSymbolTable
70
1
0
ENDTAB
0
TABLE
2
BLOCK_RECORD
5
1
100
AcDbSymbolTable
70
1
0
BLOCK_RECORD
5
1F
100
AcDbSymbolTableRecord
100
AcDbBlockTableRecord
2
*MODEL_SPACE
0
BLOCK_RECORD
5
1B
100
AcDbSymbolTableRecord
100
AcDbBlockTableRecord
2
*PAPER_SPACE
0
ENDTAB
0
ENDSEC
0
SECTION
2
BLOCKS
0
BLOCK
5
20
100
AcDbEntity
100
AcDbBlockBegin
2
*MODEL_SPACE
0
ENDBLK
5
21
100
AcDbEntity
100
AcDbBlockEnd
0
BLOCK
5
1C
100
AcDbEntity
100
AcDbBlockBegin
2
*PAPER_SPACE
0
ENDBLK
5
1D
100
AcDbEntity
100
AcDbBlockEnd
0
ENDSEC
0
SECTION
2
ENTITIES
0
LWPOLYLINE
5
100
100
AcDbEntity
8
0
100
AcDbPolyline
90
38
70
1
43
0.0
10
184.99999999999974
20
150.50000000000159
10
184.99999999999974
20
150.12132034356117
42
0.19891236737965584
10
185.43933982821994
20
149.06066017178136
10
187.56066017177949
20
146.93933982822176
42
0.1989123673796602
10
188.62132034355935
20
146.50000000000159
10
201.37867965644006
20
146.50000000000159
42
0.19891236737965362
10
202.43933982821986
20
146.93933982822176
10
204.56066017177949
20
149.06066017178142
42
0.19891236737966017
10
204.99999999999969
20
150.12132034356122
10
204.99999999999969
20
173.50000000000159
42
0.41421356237309503
10
203.49999999999969
20
175.00000000000156
10
191.99999999999966
20
175.00000000000159
42
-0.41421356237309503
10
188.99999999999972
20
178.00000000000156
10
188.99999999999972
20
182.00000000000156
42
0.41421356237309503
10
187.49999999999972
20
183.50000000000153
10
186.50000000000094
20
183.50000000000153
42
-0.41421356237309503
10
183.50000000000094
20
186.50000000000153
10
183.50000000000094
20
204.37867965641664
42
0.19891236737965801
10
183.06066017178074
20
205.43933982819647
10
179.93933982822114
20
208.5606601717561
42
0.19891236737965362
10
178.87867965644134
20
208.9999999999763
10
146.12132034364836
20
208.99999999997624
42
0.19891236737965359
10
145.06066017186856
20
208.5606601717561
10
141.9393398283089
20
205.43933982819647
42
0.19891236737965362
10
141.50000000008876
20
204.37867965641664
10
141.5000000000887
20
171.62132034356125
42
0.19891236737965584
10
141.9393398283089
20
170.56066017178148
10
145.06066017186853
20
167.43933982822185
42
0.19891236737965801
10
146.12132034364834
20
167.00000000000165
10
151.40075759610141
20
167.00000000000171
42
-0.19891236737965476
10
153.52207793966105
20
166.12132034356137
10
154.70405845502145
20
164.93933982820096
42
0.19891236737966203
10
155.76471862680131
20
164.49999999998079
10
157.10710678120716
20
164.49999999998084
42
-0.19891236737967
10
159.22842712476694
20
163.62132034354045
10
169.91040764008517
20
152.93933982822179
42
0.19891236737966669
10
170.97106781186505
20
152.50000000000156
10
182.99999999999977
20
152.50000000000159
42
-0.41421356237309503
0
LWPOLYLINE
5
101
100
AcDbEntity
8
0
100
AcDbPolyline
90
8
70
1
43
0.0
10
171.99999999999983
20
166.40000000000157
10
173.99999999999977
20
166.40000000000157
42
-0.41421356237309503
10
174.99999999999974
20
165.4000000000016
10
174.99999999999977
20
156.60000000000161
42
-0.41421356237309503
10
173.99999999999977
20
155.60000000000161
10
171.99999999999983
20
155.60000000000159
42
-0.41421356237309503
10
170.9999999999998
20
156.60000000000161
10
170.99999999999983
20
165.4000000000016
42
-0.41421356237309503
0
LWPOLYLINE
5
102
100
AcDbEntity
8
0
100
AcDbPolyline
90
4
70
1
43
0.0
10
192.44999999999976
20
168.50000000000159
10
192.44999999999973
20
169.00000000000159
42
-0.99999999999999989
10
197.5499999999997
20
169.00000000000159
10
197.54999999999967
20
168.50000000000159
42
-0.99999999999999989
0
LWPOLYLINE
5
103
100
AcDbEntity
8
0
100
AcDbPolyline
90
4
70
1
43
0.0
10
192.44999999999976
20
153.00000000000156
10
192.44999999999973
20
153.50000000000159
42
-0.99999999999999989
10
197.5499999999997
20
153.50000000000159
10
197.54999999999967
20
153.00000000000156
42
-0.99999999999999989
0
LWPOLYLINE
5
104
100
AcDbEntity
8
0
100
AcDbPolyline
90
8
70
1
43
0.0
10
178.74999999999974
20
166.40000000000174
10
179.94999999999979
20
166.40000000000174
42
-0.41421356237309503
10
180.44999999999982
20
165.90000000000174
10
180.44999999999973
20
156.10000000000164
42
-0.41421356237309503
10
179.94999999999976
20
155.60000000000167
10
178.74999999999972
20
155.6000000000017
42
-0.41421356237309503
10
178.24999999999974
20
156.10000000000167
10
178.24999999999974
20
165.90000000000174
42
-0.41421356237309503
0
LWPOLYLINE
5
105
100
AcDbEntity
8
0
100
AcDbPolyline
90
8
70
1
43
0.0
10
185.99999999999972
20
165.90000000000174
10
185.99999999999972
20
156.10000000000164
42
-0.41421356237309503
10
185.49999999999972
20
155.60000000000167
10
184.11999999999972
20
155.60000000000167
42
-0.41421356237309503
10
183.61999999999969
20
156.10000000000167
10
183.61999999999969
20
165.90000000000174
42
-0.41421356237309503
10
184.11999999999972
20
166.40000000000174
10
185.49999999999977
20
166.40000000000171
42
-0.41421356237309503
0
CIRCLE
5
106
100
AcDbEntity
8
0
100
AcDbCircle
10
-178.00000000006776
20
172.49999999996851
30
-9.6689594038394567e-43
40
1.5500000000000025
210
-1.5557538194667266e-61
220
-5.6051938572992596e-45
230
-1
0
CIRCLE
5
107
100
AcDbEntity
8
0
100
AcDbCircle
10
-158.25000000103981
20
171.99999999998079
30
-9.6409334345536486e-43
40
1.549999999999998
210
-1.5557538194667266e-61
220
-5.6051938572992596e-45
230
-1
0
CIRCLE
5
108
100
AcDbEntity
8
0
100
AcDbCircle
10
-147.00000000005559
20
172.49999999998073
30
-9.6689594038401417e-43
40
1.549999999999998
210
-1.5557538194667266e-61
220
-5.6051938572992596e-45
230
-1
0
CIRCLE
5
109
100
AcDbEntity
8
0
100
AcDbCircle
10
-162.50000000006779
20
187.99999999998067
30
-1.0537764451721525e-42
40
6.5150000000000086
210
-1.5557538194667266e-61
220
-5.6051938572992596e-45
230
-1
0
CIRCLE
5
110
100
AcDbEntity
8
0
100
AcDbCircle
10
-147.00000000006784
20
203.49999999999287
30
-1.1406569499603594e-42
40
1.549999999999998
210
-1.5557538194667266e-61
220
-5.6051938572992596e-45
230
-1
0
CIRCLE
5
111
100
AcDbEntity
8
0
100
AcDbCircle
10
-178.00000000007998
20
203.49999999998064
30
-1.1406569499602909e-42
40
1.5500000000000025
210
-1.5557538194667266e-61
220
-5.6051938572992596e-45
230
-1
0
CIRCLE
5
112
100
AcDbEntity
8
0
100
AcDbCircle
10
-162.50000000006764
20
178.39999999998048
30
-1.1249624071598383e-42
40
1.2500000000000044
210
-2.1391615017663883e-61
220
-6.3058430894616669e-45
230
-1
0
CIRCLE
5
113
100
AcDbEntity
8
0
100
AcDbCircle
10
-162.50000000006764
20
197.59999999998087
30
4.4408920985006262e-15
40
1.2500000000000044
210
-2.1391615017663883e-61
220
-6.3058430894616669e-45
230
-1
0
CIRCLE
5
114
100
AcDbEntity
8
0
100
AcDbCircle
10
-147.00000000008868
20
187.99999999997627
30
-1.0537764451721278e-42
40
1.5500000000000003
210
-1.5557538194667266e-61
220
-5.6051938572992596e-45
230
-1
0
ENDSEC
0
SECTION
2
OBJECTS
0
DICTIONARY
5
C
100
AcDbDictionary
3
ACAD_GROUP
350
D
3
ACAD_MLINESTYLE
350
17
0
DICTIONARY
5
D
100
AcDbDictionary
0
DICTIONARY
5
1A
330
C
100
AcDbDictionary
0
DICTIONARY
5
17
100
AcDbDictionary
0
ENDSEC
0
EOF
