0
SECTION
2
HEADER
9
$INSUNITS
70
4
9
$ACADVER
1
AC1014
9
$HANDSEED
5
FFFF
0
ENDSEC
0
SECTION
2
TABLES
0
TABLE
2
VPORT
5
8
100
AcDbSymbolTable
0
ENDTAB
0
TABLE
2
LTYPE
5
5
100
AcDbSymbolTable
0
LTYPE
5
14
100
AcDbSymbolTableRecord
100
AcDbLinetypeTableRecord
2
BYBLOCK
70
0
0
LTYPE
5
15
100
AcDbSymbolTableRecord
100
AcDbLinetypeTableRecord
2
BYLAYER
70
0
0
LTYPE
5
16
100
AcDbSymbolTableRecord
100
AcDbLinetypeTableRecord
2
DASHED
70
0
3
Dashed __ __ __ __ __ __ __ __ __ __ __ __ __ _
72
65
73
2
40
0.75
49
0.5
74
0
49
-0.25
74
0
0
ENDTAB
0
TABLE
2
LAYER
5
2
100
AcDbSymbolTable
70
3
0
LAYER
5
50
100
AcDbSymbolTableRecord
100
AcDbLayerTableRecord
2
1
70
0
62
7
6
DASHED
0
LAYER
5
51
100
AcDbSymbolTableRecord
100
AcDbLayerTableRecord
2
0
70
0
62
7
6
CONTINUOUS
0
ENDTAB
0
TABLE
2
STYLE
5
3
100
AcDbSymbolTable
70
1
0
STYLE
5
11
100
AcDbSymbolTableRecord
100
AcDbTextStyleTableRecord
2
STANDARD
70
0
0
ENDTAB
0
TABLE
2
VIEW
5
6
100
AcDbSymbolTable
70
0
0
ENDTAB
0
TABLE
2
UCS
5
7
100
AcDbSymbolTable
70
0
0
ENDTAB
0
TABLE
2
APPID
5
9
100
AcDbSymbolTable
70
2
0
APPID
5
12
100
AcDbSymbolTableRecord
100
AcDbRegAppTableRecord
2
ACAD
70
0
0
ENDTAB
0
TABLE
2
DIMSTYLE
5
A
100
AcDbSymbolTable
70
1
0
ENDTAB
0
TABLE
2
BLOCK_RECORD
5
1
100
AcDbSymbolTable
70
1
0
BLOCK_RECORD
5
1F
100
AcDbSymbolTableRecord
100
AcDbBlockTableRecord
2
*MODEL_SPACE
0
BLOCK_RECORD
5
1B
100
AcDbSymbolTableRecord
100
AcDbBlockTableRecord
2
*PAPER_SPACE
0
ENDTAB
0
ENDSEC
0
SECTION
2
BLOCKS
0
BLOCK
5
20
100
AcDbEntity
100
AcDbBlockBegin
2
*MODEL_SPACE
0
ENDBLK
5
21
100
AcDbEntity
100
AcDbBlockEnd
0
BLOCK
5
1C
100
AcDbEntity
100
AcDbBlockBegin
2
*PAPER_SPACE
0
ENDBLK
5
1D
100
AcDbEntity
100
AcDbBlockEnd
0
ENDSEC
0
SECTION
2
ENTITIES
0
LWPOLYLINE
5
100
100
AcDbEntity
8
0
100
AcDbPolyline
90
14
70
1
43
0.0
10
-137.59999999995836
20
-201.99999999999898
42
0.4142135623730534
10
-136.5999999999585
20
-202.99999999999901
10
-129.59999999993912
20
-203.00000000000011
42
0.41421356237285567
10
-128.59999999993897
20
-202.00000000000114
10
-128.59999999993744
20
-200.50000000000136
10
-132.59999999995227
20
-200.50000000000114
42
-0.99999999999999989
10
-133.59999999995222
20
-200.49999999999625
10
-133.59999999993454
20
-197.49999999999747
42
-0.99999999999999989
10
-132.59999999993451
20
-197.49999999999847
10
-128.59999999993445
20
-197.49999999999926
10
-128.59999999993298
20
-196.00000000000108
42
0.41421356237334478
10
-129.59999999993283
20
-195.00000000000006
10
-136.59999999995784
20
-194.99999999999898
42
0.41421356237312623
10
-137.59999999995802
20
-195.99999999999895
0
LWPOLYLINE
5
101
100
AcDbEntity
8
0
100
AcDbPolyline
90
4
70
1
43
0.0
10
-197.54999999999961
20
-153.49999999999972
10
-197.54999999999998
20
-153.00000000000023
42
-0.99999999999999989
10
-192.45000000000002
20
-152.99999999999972
10
-192.4499999999997
20
-153.49999999999972
42
-0.99999999999999989
0
LWPOLYLINE
5
102
100
AcDbEntity
8
0
100
AcDbPolyline
90
4
70
1
43
0.0
10
-192.44999999999962
20
-168.49999999999972
10
-192.45000000000005
20
-169.00000000000028
42
-0.99999999999999989
10
-197.55000000000001
20
-168.99999999999972
10
-197.54999999999967
20
-168.49999999999972
42
-0.99999999999999989
0
LWPOLYLINE
5
103
100
AcDbEntity
8
0
100
AcDbPolyline
90
8
70
1
43
0.0
10
-171.00000000000006
20
-156.59999999999999
10
-171
20
-165.39999999999998
42
-0.41421356237309503
10
-172.00000000000003
20
-166.40000000000001
10
-174
20
-166.40000000000001
42
-0.41421356237309503
10
-174.99999999999997
20
-165.40000000000003
10
-175
20
-156.59999999999999
42
-0.41421356237309503
10
-174
20
-155.59999999999999
10
-172.00000000000003
20
-155.60000000000002
42
-0.41421356237309503
0
LWPOLYLINE
5
104
100
AcDbEntity
8
0
100
AcDbPolyline
90
4
70
1
43
0.0
10
-180.45000000000005
20
-166.40000000000001
10
-180.45000000000005
20
-155.59999999999985
10
-178.25000000000006
20
-155.59999999999988
10
-178.25000000000006
20
-166.40000000000003
0
LWPOLYLINE
5
105
100
AcDbEntity
8
0
100
AcDbPolyline
90
6
70
1
43
0.0
10
-148.70000000001261
20
-177.69999999998873
10
-114.00000000001262
20
-177.69999999998873
10
-114.00000000001263
20
-182.99999999998872
10
-148.70000000001261
20
-182.99999999998872
42
-0.41421356237309503
10
-151.00000000001262
20
-180.69999999998871
10
-151.00000000001259
20
-179.99999999998869
42
-0.41421356237309503
0
LWPOLYLINE
5
106
100
AcDbEntity
8
0
100
AcDbPolyline
90
16
70
1
43
0.0
10
-100.68856217223146
20
-185.99999999998872
42
0.18267581368157634
10
-101.01928108611447
20
-186.12499999998872
42
-0.93922053388450411
10
-101.72499999999758
20
-185.41928108610563
42
0.18267581368161676
10
-101.59999999999758
20
-185.08856217222251
10
-101.59999999999758
20
-175.91143782774344
42
0.18267581368161226
10
-101.72499999999758
20
-175.58071891386035
42
-0.93922053388443183
10
-101.01928108611453
20
-174.87499999997726
42
0.18267581368160224
10
-100.68856217223146
20
-174.99999999997726
10
-97.411437827763706
20
-174.99999999997726
42
0.1826758136815855
10
-97.080718913880673
20
-174.87499999997732
42
-0.93922053388447868
10
-96.374999999997584
20
-175.58071891386035
42
0.18267581368159386
10
-96.49999999999757
20
-175.91143782774341
10
-96.49999999999757
20
-185.08856217222257
42
0.18267581368159844
10
-96.374999999997598
20
-185.41928108610566
42
-0.93922053388450411
10
-97.080718913880659
20
-186.12499999998872
42
0.18267581368159469
10
-97.411437827763734
20
-185.99999999998872
0
LWPOLYLINE
5
107
100
AcDbEntity
8
0
100
AcDbPolyline
90
4
70
1
43
0.0
10
-183.61999999999998
20
-166.40000000000001
10
-186
20
-166.40000000000001
10
-186
20
-155.59999999999985
10
-183.61999999999998
20
-155.59999999999985
0
LWPOLYLINE
5
108
100
AcDbEntity
8
0
100
AcDbPolyline
90
34
70
1
43
0.0
10
-95.121320343554061
20
-208.99999999997729
42
0.1989123673787179
10
-94.060660171778068
20
-208.56066017176096
10
-91.93933982822152
20
-206.43933982821977
42
0.19891236738059814
10
-91.499999999997513
20
-205.37867965643611
10
-91.499999999997556
20
-173.49999999997726
42
0.41421356237309503
10
-92.999999999997527
20
-171.99999999997729
10
-138.2573593129307
20
-171.99999999997726
42
-0.19891236737961993
10
-140.37867965649002
20
-171.12132034353721
10
-154.06066017181135
20
-157.43933982822003
42
0.1989123673796197
10
-155.12132034359101
20
-157
10
-164.60710678118588
20
-156.99999999999997
42
-0.19891236737965476
10
-166.72842712474548
20
-156.12132034355966
10
-171.91040764008511
20
-150.93933982822017
42
0.19891236737965978
10
-172.97106781186497
20
-150.5
10
-182.75735931288071
20
-150.5
42
-0.19891236737964924
10
-184.87867965644028
20
-149.62132034355972
10
-187.56066017178003
20
-146.93933982822014
42
0.19891236737965151
10
-188.6213203435598
20
-146.49999999999994
10
-201.37867965644034
20
-146.49999999999994
42
0.19891236737965584
10
-202.43933982822014
20
-146.93933982822014
10
-204.56066017177983
20
-149.06066017177974
42
0.19891236737965801
10
-204.99999999999997
20
-150.1213203435596
10
-205
20
-173.49999999999997
42
0.41421356237309503
10
-203.5
20
-175
10
-191.99999999999966
20
-175
42
-0.41421356237309503
10
-188.99999999999966
20
-178
10
-188.99999999999966
20
-182.00000000000017
42
0.41421356237309503
10
-187.49999999999966
20
-183.5000000000002
10
-186.50000000000119
20
-183.5000000000002
42
-0.41421356237309503
10
-183.50000000000119
20
-186.5000000000002
10
-183.50000000000122
20
-204.37867965641766
42
0.19891236737964926
10
-183.06066017178108
20
-205.4393398281974
10
-179.93933982822142
20
-208.56066017175709
42
0.19891236737965615
10
-178.87867965644162
20
-208.99999999997729
0
CIRCLE
5
109
100
AcDbEntity
8
0
100
AcDbCircle
10
-110.50000000001262
20
-180.49999999998863
30
6.6613381477509392e-15
40
1.25
210
1.1339875512552045e-30
220
1.1210387714598537e-44
230
1
0
CIRCLE
5
110
100
AcDbEntity
8
0
100
AcDbCircle
10
-162.50000000001265
20
-187.99999999998931
30
6.6613381477509392e-15
40
11.050000000000002
210
1.1339875512552045e-30
220
1.1210387714598537e-44
230
1
0
CIRCLE
5
111
100
AcDbEntity
8
0
100
AcDbCircle
10
-178.00000000001262
20
-203.49999999998886
30
6.6613381477509392e-15
40
1.5500000000000025
210
1.1339875512552045e-30
220
1.1210387714598537e-44
230
1
0
CIRCLE
5
112
100
AcDbEntity
8
0
100
AcDbCircle
10
-147.00000000001307
20
-203.49999999998931
30
6.6613381477509392e-15
40
1.549999999999998
210
1.1339875512552045e-30
220
1.1210387714598537e-44
230
1
0
CIRCLE
5
113
100
AcDbEntity
8
0
100
AcDbCircle
10
-147.00000000001265
20
-172.49999999998977
30
6.6613381477509392e-15
40
1.549999999999998
210
1.1339875512552045e-30
220
1.1210387714598537e-44
230
1
0
CIRCLE
5
114
100
AcDbEntity
8
0
100
AcDbCircle
10
-178.00000000001216
20
-172.49999999998934
30
6.6613381477509392e-15
40
1.5500000000000025
210
1.1339875512552045e-30
220
1.1210387714598537e-44
230
1
0
CIRCLE
5
115
100
AcDbEntity
8
0
100
AcDbCircle
10
-98.249999999933522
20
-198.99999999999784
30
5.2891024893142458e-12
40
2.5499999999999989
210
1.1339875512552045e-30
220
1.1210387714598537e-44
230
1
0
CIRCLE
5
116
100
AcDbEntity
8
0
100
AcDbCircle
10
-113.74999999993361
20
-198.99999999999784
30
5.2913229353634961e-12
40
2.5499999999999998
210
1.1339875512552045e-30
220
1.1210387714598537e-44
230
1
0
CIRCLE
5
117
100
AcDbEntity
8
0
100
AcDbCircle
10
-162.50000000001265
20
-167.25999999999914
30
6.6613381477509392e-15
40
6.5150000000000041
210
1.1339875512552045e-30
220
1.1210387714598537e-44
230
1
0
CIRCLE
5
118
100
AcDbEntity
8
0
100
AcDbCircle
10
-171.13437316777083
20
-172.49999999998934
30
6.6613381477509392e-15
40
1.2500000000000089
210
1.1339875512552045e-30
220
1.1210387714598537e-44
230
1
0
CIRCLE
5
119
100
AcDbEntity
8
0
100
AcDbCircle
10
-153.86562683225441
20
-162.02000000000893
30
6.6613381477509392e-15
40
1.2500000000000089
210
1.1339875512552045e-30
220
1.1210387714598537e-44
230
1
0
ENDSEC
0
SECTION
2
OBJECTS
0
DICTIONARY
5
C
100
AcDbDictionary
3
ACAD_GROUP
350
D
3
ACAD_MLINESTYLE
350
17
0
DICTIONARY
5
D
100
AcDbDictionary
0
DICTIONARY
5
1A
330
C
100
AcDbDictionary
0
DICTIONARY
5
17
100
AcDbDictionary
0
ENDSEC
0
EOF
