0
SECTION
2
HEADER
9
$INSUNITS
70
4
9
$ACADVER
1
AC1014
9
$HANDSEED
5
FFFF
0
ENDSEC
0
SECTION
2
TABLES
0
TABLE
2
VPORT
5
8
100
AcDbSymbolTable
0
ENDTAB
0
TABLE
2
LTYPE
5
5
100
AcDbSymbolTable
0
LTYPE
5
14
100
AcDbSymbolTableRecord
100
AcDbLinetypeTableRecord
2
BYBLOCK
70
0
0
LTYPE
5
15
100
AcDbSymbolTableRecord
100
AcDbLinetypeTableRecord
2
BYLAYER
70
0
0
LTYPE
5
16
100
AcDbSymbolTableRecord
100
AcDbLinetypeTableRecord
2
DASHED
70
0
3
Dashed __ __ __ __ __ __ __ __ __ __ __ __ __ _
72
65
73
2
40
0.75
49
0.5
74
0
49
-0.25
74
0
0
ENDTAB
0
TABLE
2
LAYER
5
2
100
AcDbSymbolTable
70
3
0
LAYER
5
50
100
AcDbSymbolTableRecord
100
AcDbLayerTableRecord
2
1
70
0
62
7
6
DASHED
0
LAYER
5
51
100
AcDbSymbolTableRecord
100
AcDbLayerTableRecord
2
0
70
0
62
7
6
CONTINUOUS
0
ENDTAB
0
TABLE
2
STYLE
5
3
100
AcDbSymbolTable
70
1
0
STYLE
5
11
100
AcDbSymbolTableRecord
100
AcDbTextStyleTableRecord
2
STANDARD
70
0
0
ENDTAB
0
TABLE
2
VIEW
5
6
100
AcDbSymbolTable
70
0
0
ENDTAB
0
TABLE
2
UCS
5
7
100
AcDbSymbolTable
70
0
0
ENDTAB
0
TABLE
2
APPID
5
9
100
AcDbSymbolTable
70
2
0
APPID
5
12
100
AcDbSymbolTableRecord
100
AcDbRegAppTableRecord
2
ACAD
70
0
0
ENDTAB
0
TABLE
2
DIMSTYLE
5
A
100
AcDbSymbolTable
70
1
0
ENDTAB
0
TABLE
2
BLOCK_RECORD
5
1
100
AcDbSymbolTable
70
1
0
BLOCK_RECORD
5
1F
100
AcDbSymbolTableRecord
100
AcDbBlockTableRecord
2
*MODEL_SPACE
0
BLOCK_RECORD
5
1B
100
AcDbSymbolTableRecord
100
AcDbBlockTableRecord
2
*PAPER_SPACE
0
ENDTAB
0
ENDSEC
0
SECTION
2
BLOCKS
0
BLOCK
5
20
100
AcDbEntity
100
AcDbBlockBegin
2
*MODEL_SPACE
0
ENDBLK
5
21
100
AcDbEntity
100
AcDbBlockEnd
0
BLOCK
5
1C
100
AcDbEntity
100
AcDbBlockBegin
2
*PAPER_SPACE
0
ENDBLK
5
1D
100
AcDbEntity
100
AcDbBlockEnd
0
ENDSEC
0
SECTION
2
ENTITIES
0
LWPOLYLINE
5
100
100
AcDbEntity
8
0
100
AcDbPolyline
90
38
70
1
43
0.0
10
-184.99999999999974
20
150.12132034356114
10
-184.99999999999974
20
150.50000000000153
42
-0.41421356237309503
10
-182.99999999999977
20
152.50000000000153
10
-170.971067811865
20
152.50000000000153
42
0.19891236737966234
10
-169.91040764008517
20
152.9393398282217
10
-159.22842712476694
20
163.62132034354039
42
-0.19891236737966908
10
-157.10710678120716
20
164.49999999998079
10
-155.76471862680131
20
164.49999999998073
42
0.19891236737966203
10
-154.70405845502145
20
164.9393398282009
10
-153.52207793966105
20
166.12132034356131
42
-0.19891236737965581
10
-151.40075759610141
20
167.00000000000162
10
-146.12132034364834
20
167.00000000000159
42
0.19891236737965801
10
-145.06066017186853
20
167.43933982822176
10
-141.9393398283089
20
170.56066017178139
42
0.19891236737965801
10
-141.50000000008873
20
171.62132034356119
10
-141.50000000008873
20
204.37867965641655
42
0.19891236737965584
10
-141.9393398283089
20
205.43933982819635
10
-145.06066017186856
20
208.56066017175601
42
0.19891236737966017
10
-146.12132034364836
20
208.99999999997618
10
-178.87867965644131
20
208.99999999997618
42
0.19891236737966234
10
-179.93933982822114
20
208.56066017175601
10
-183.06066017178074
20
205.43933982819638
42
0.19891236737966234
10
-183.50000000000094
20
204.37867965641655
10
-183.50000000000094
20
186.50000000000131
42
-0.41421356237309503
10
-186.50000000000094
20
183.50000000000131
10
-187.49999999999966
20
183.50000000000134
42
0.41421356237309503
10
-188.99999999999963
20
182.00000000000131
10
-188.9999999999996
20
178.00000000000151
42
-0.41421356237309503
10
-191.9999999999996
20
175.00000000000148
10
-203.49999999999966
20
175.00000000000148
42
0.41421356237309503
10
-204.99999999999966
20
173.50000000000151
10
-204.99999999999969
20
150.12132034356117
42
0.19891236737965584
10
-204.56066017177949
20
149.06066017178136
10
-202.43933982821986
20
146.93933982822173
42
0.19891236737965362
10
-201.37867965644006
20
146.50000000000153
10
-188.62132034355935
20
146.50000000000153
42
0.1989123673796602
10
-187.56066017177949
20
146.93933982822173
10
-185.43933982821994
20
149.06066017178131
42
0.19891236737965801
0
LWPOLYLINE
5
101
100
AcDbEntity
8
0
100
AcDbPolyline
90
8
70
1
43
0.0
10
-170.9999999999998
20
165.40000000000148
10
-170.99999999999983
20
156.6000000000015
42
-0.41421356237309503
10
-171.99999999999983
20
155.6000000000015
10
-173.99999999999977
20
155.6000000000015
42
-0.41421356237309503
10
-174.99999999999974
20
156.6000000000015
10
-174.99999999999977
20
165.40000000000148
42
-0.41421356237309503
10
-173.99999999999977
20
166.40000000000151
10
-171.99999999999977
20
166.40000000000146
42
-0.41421356237309503
0
LWPOLYLINE
5
102
100
AcDbEntity
8
0
100
AcDbPolyline
90
4
70
1
43
0.0
10
-192.44999999999965
20
169.00000000000148
10
-192.44999999999962
20
168.50000000000142
42
-0.99999999999999989
10
-197.54999999999961
20
168.50000000000142
10
-197.54999999999956
20
169.00000000000148
42
-0.99999999999999989
0
LWPOLYLINE
5
103
100
AcDbEntity
8
0
100
AcDbPolyline
90
4
70
1
43
0.0
10
-192.4499999999997
20
153.50000000000145
10
-192.44999999999962
20
153.00000000000145
42
-0.99999999999999989
10
-197.54999999999961
20
153.00000000000145
10
-197.54999999999953
20
153.50000000000145
42
-0.99999999999999989
0
LWPOLYLINE
5
104
100
AcDbEntity
8
0
100
AcDbPolyline
90
8
70
1
43
0.0
10
-185.99999999999972
20
156.10000000000156
10
-185.99999999999969
20
165.90000000000168
42
-0.41421356237309503
10
-185.49999999999972
20
166.40000000000163
10
-184.11999999999972
20
166.40000000000168
42
-0.41421356237309503
10
-183.61999999999969
20
165.90000000000168
10
-183.61999999999972
20
156.10000000000156
42
-0.41421356237309503
10
-184.11999999999972
20
155.60000000000159
10
-185.49999999999972
20
155.60000000000156
42
-0.41421356237309503
0
LWPOLYLINE
5
105
100
AcDbEntity
8
0
100
AcDbPolyline
90
8
70
1
43
0.0
10
-179.94999999999976
20
166.40000000000168
10
-178.74999999999972
20
166.40000000000163
42
-0.41421356237309503
10
-178.24999999999974
20
165.90000000000168
10
-178.24999999999974
20
156.10000000000156
42
-0.41421356237309503
10
-178.74999999999972
20
155.60000000000159
10
-179.94999999999976
20
155.60000000000156
42
-0.41421356237309503
10
-180.44999999999976
20
156.10000000000156
10
-180.44999999999976
20
165.90000000000168
42
-0.41421356237309503
0
CIRCLE
5
106
100
AcDbEntity
8
0
100
AcDbCircle
10
-147.00000000008859
20
187.99999999997638
30
2.2204460492503131e-15
40
1.5500000000000003
210
-1.7657490729899377e-45
220
-2.8025969286496279e-45
230
1
0
CIRCLE
5
107
100
AcDbEntity
8
0
100
AcDbCircle
10
-162.50000000006779
20
187.99999999998062
30
2.2204460492503131e-15
40
11.050000000000002
210
-7.0008921875930631e-61
220
-2.8025969286496279e-45
230
1
0
CIRCLE
5
108
100
AcDbEntity
8
0
100
AcDbCircle
10
-147.00000000006781
20
203.49999999999278
30
2.2204460492503131e-15
40
1.549999999999998
210
-7.0008921875930631e-61
220
-2.8025969286496279e-45
230
1
0
CIRCLE
5
109
100
AcDbEntity
8
0
100
AcDbCircle
10
-178.00000000007995
20
203.49999999998059
30
2.2204460492503131e-15
40
1.5500000000000025
210
-7.0008921875930631e-61
220
-2.8025969286496279e-45
230
1
0
CIRCLE
5
110
100
AcDbEntity
8
0
100
AcDbCircle
10
-178.00000000006773
20
172.49999999996845
30
2.2204460492503131e-15
40
1.5500000000000025
210
-7.0008921875930631e-61
220
-2.8025969286496279e-45
230
1
0
CIRCLE
5
111
100
AcDbEntity
8
0
100
AcDbCircle
10
-158.25000000103981
20
171.9999999999807
30
2.2204460492503131e-15
40
1.549999999999998
210
-7.0008921875930631e-61
220
-2.8025969286496279e-45
230
1
0
CIRCLE
5
112
100
AcDbEntity
8
0
100
AcDbCircle
10
-147.00000000005562
20
172.49999999998067
30
2.2204460492503131e-15
40
1.549999999999998
210
-7.0008921875930631e-61
220
-2.8025969286496279e-45
230
1
0
ENDSEC
0
SECTION
2
OBJECTS
0
DICTIONARY
5
C
100
AcDbDictionary
3
ACAD_GROUP
350
D
3
ACAD_MLINESTYLE
350
17
0
DICTIONARY
5
D
100
AcDbDictionary
0
DICTIONARY
5
1A
330
C
100
AcDbDictionary
0
DICTIONARY
5
17
100
AcDbDictionary
0
ENDSEC
0
EOF
