0
SECTION
2
HEADER
9
$INSUNITS
70
4
9
$ACADVER
1
AC1014
9
$HANDSEED
5
FFFF
0
ENDSEC
0
SECTION
2
TABLES
0
TABLE
2
VPORT
5
8
100
AcDbSymbolTable
0
ENDTAB
0
TABLE
2
LTYPE
5
5
100
AcDbSymbolTable
0
LTYPE
5
14
100
AcDbSymbolTableRecord
100
AcDbLinetypeTableRecord
2
BYBLOCK
70
0
0
LTYPE
5
15
100
AcDbSymbolTableRecord
100
AcDbLinetypeTableRecord
2
BYLAYER
70
0
0
LTYPE
5
16
100
AcDbSymbolTableRecord
100
AcDbLinetypeTableRecord
2
DASHED
70
0
3
Dashed __ __ __ __ __ __ __ __ __ __ __ __ __ _
72
65
73
2
40
0.75
49
0.5
74
0
49
-0.25
74
0
0
ENDTAB
0
TABLE
2
LAYER
5
2
100
AcDbSymbolTable
70
3
0
LAYER
5
50
100
AcDbSymbolTableRecord
100
AcDbLayerTableRecord
2
1
70
0
62
7
6
DASHED
0
LAYER
5
51
100
AcDbSymbolTableRecord
100
AcDbLayerTableRecord
2
0
70
0
62
7
6
CONTINUOUS
0
ENDTAB
0
TABLE
2
STYLE
5
3
100
AcDbSymbolTable
70
1
0
STYLE
5
11
100
AcDbSymbolTableRecord
100
AcDbTextStyleTableRecord
2
STANDARD
70
0
0
ENDTAB
0
TABLE
2
VIEW
5
6
100
AcDbSymbolTable
70
0
0
ENDTAB
0
TABLE
2
UCS
5
7
100
AcDbSymbolTable
70
0
0
ENDTAB
0
TABLE
2
APPID
5
9
100
AcDbSymbolTable
70
2
0
APPID
5
12
100
AcDbSymbolTableRecord
100
AcDbRegAppTableRecord
2
ACAD
70
0
0
ENDTAB
0
TABLE
2
DIMSTYLE
5
A
100
AcDbSymbolTable
70
1
0
ENDTAB
0
TABLE
2
BLOCK_RECORD
5
1
100
AcDbSymbolTable
70
1
0
BLOCK_RECORD
5
1F
100
AcDbSymbolTableRecord
100
AcDbBlockTableRecord
2
*MODEL_SPACE
0
BLOCK_RECORD
5
1B
100
AcDbSymbolTableRecord
100
AcDbBlockTableRecord
2
*PAPER_SPACE
0
ENDTAB
0
ENDSEC
0
SECTION
2
BLOCKS
0
BLOCK
5
20
100
AcDbEntity
100
AcDbBlockBegin
2
*MODEL_SPACE
0
ENDBLK
5
21
100
AcDbEntity
100
AcDbBlockEnd
0
BLOCK
5
1C
100
AcDbEntity
100
AcDbBlockBegin
2
*PAPER_SPACE
0
ENDBLK
5
1D
100
AcDbEntity
100
AcDbBlockEnd
0
ENDSEC
0
SECTION
2
ENTITIES
0
LWPOLYLINE
5
100
100
AcDbEntity
8
0
100
AcDbPolyline
90
8
70
1
43
0.0
10
171.00000000000006
20
156.59999999999999
10
171
20
165.39999999999998
42
-0.41421356237309503
10
172.00000000000003
20
166.40000000000001
10
174
20
166.40000000000001
42
-0.41421356237309503
10
175
20
165.39999999999998
10
175
20
156.59999999999999
42
-0.41421356237309503
10
174.00000000000003
20
155.60000000000002
10
172.00000000000006
20
155.59999999999999
42
-0.41421356237309503
0
LWPOLYLINE
5
101
100
AcDbEntity
8
0
100
AcDbPolyline
90
34
70
1
43
0.0
10
185.00000000000006
20
150.1213203435596
42
0.19891236737965584
10
185.43933982822023
20
149.0606601717798
10
187.56066017177986
20
146.9393398282202
42
0.19891236737965579
10
188.62132034355966
20
146.50000000000003
10
201.3786796564404
20
146.50000000000003
42
0.1989123673796602
10
202.43933982822026
20
146.9393398282202
10
204.56066017177986
20
149.0606601717798
42
0.19891236737965801
10
205
20
150.12132034355966
10
205
20
173.50000000000009
42
0.41421356237309503
10
203.5
20
175.00000000000006
10
192.00000000000117
20
175.00000000000006
42
-0.41421356237309503
10
189.00000000000119
20
178.00000000000006
10
189.00000000000119
20
182.00000000000006
42
0.41421356237309503
10
187.50000000000117
20
183.50000000000009
10
186.50000000000119
20
183.50000000000009
42
-0.41421356237309503
10
183.50000000000122
20
186.50000000000006
10
183.50000000000119
20
200.74264068711759
42
0.19891236737966234
10
183.060660171781
20
201.80330085889744
10
181.30330085889855
20
203.56066017177989
42
0.19891236737965801
10
180.24264068711872
20
204.00000000000006
10
167.83365081492866
20
204.00000000000006
42
0.19891236737965362
10
166.77299064314889
20
203.56066017177989
10
161.92933982923194
20
198.71700935786288
42
0.19891236737965801
10
161.49000000101177
20
197.65634918608305
10
161.49000000101177
20
183.54365081387499
42
0.19891236737965801
10
161.92933982923194
20
182.48299064209516
10
163.87132034457142
20
180.54101012675571
42
-0.19891236737965581
10
164.75000000101176
20
178.41968978319608
10
164.75000000101176
20
158.72106781085367
42
0.19891236737965362
10
165.18933982923193
20
157.66040763907387
10
169.91040764008542
20
152.93933982822023
42
0.19891236737966234
10
170.97106781186525
20
152.50000000000003
10
183.00000000000006
20
152.50000000000003
42
-0.41421356237309503
10
185.00000000000003
20
150.50000000000006
0
LWPOLYLINE
5
102
100
AcDbEntity
8
0
100
AcDbPolyline
90
4
70
1
43
0.0
10
197.54999999999967
20
169.00000000000003
10
197.55000000000001
20
168.50000000000009
42
-0.99999999999999989
10
192.45000000000005
20
168.50000000000009
10
192.45000000000039
20
169.00000000000003
42
-0.99999999999999989
0
LWPOLYLINE
5
103
100
AcDbEntity
8
0
100
AcDbPolyline
90
4
70
1
43
0.0
10
192.44999999999965
20
152.99999999999986
10
192.44999999999962
20
153.49999999999909
42
-0.99999999999999989
10
197.54999999999953
20
153.50000000000102
10
197.54999999999964
20
152.99999999999986
42
-0.99999999999999989
0
LWPOLYLINE
5
104
100
AcDbEntity
8
0
100
AcDbPolyline
90
4
70
1
43
0.0
10
185.99999999999997
20
166.40000000000018
10
185.99999999999997
20
155.60000000000005
10
183.62
20
155.60000000000008
10
183.62
20
166.4000000000002
0
LWPOLYLINE
5
105
100
AcDbEntity
8
0
100
AcDbPolyline
90
4
70
1
43
0.0
10
178.25000000000011
20
166.40000000000018
10
180.4500000000001
20
166.40000000000018
10
180.4500000000001
20
155.60000000000008
10
178.25000000000011
20
155.60000000000005
0
CIRCLE
5
106
100
AcDbEntity
8
0
100
AcDbCircle
10
-175.74000000045623
20
174.60000000001173
30
7.1054273576010927e-14
40
1.5500000000000025
210
-1.1339875512552103e-30
220
6.4061723436639723e-30
230
-1
0
CIRCLE
5
107
100
AcDbEntity
8
0
100
AcDbCircle
10
-171.49000000101177
20
190.59999999997902
30
7.1054273576011041e-14
40
6.5149999999999952
210
-1.1339875512552103e-30
220
6.4061723436639723e-30
230
-1
0
CIRCLE
5
108
100
AcDbEntity
8
0
100
AcDbCircle
10
-179.00000000000119
20
199.50000000000006
30
7.1054273576011091e-14
40
1.5500000000000003
210
-1.1339875512552103e-30
220
6.4061723436639723e-30
230
-1
0
CIRCLE
5
109
100
AcDbEntity
8
0
100
AcDbCircle
10
-171.49000000101159
20
180.99999999997897
30
6.8833827526760665e-14
40
1.25
210
-1.1339875512552103e-30
220
6.4061723436639723e-30
230
-1
0
CIRCLE
5
110
100
AcDbEntity
8
0
100
AcDbCircle
10
-171.49000000101159
20
200.19999999997904
30
6.8833827526760791e-14
40
1.25
210
-1.1339875512552103e-30
220
6.4061723436639723e-30
230
-1
0
ENDSEC
0
SECTION
2
OBJECTS
0
DICTIONARY
5
C
100
AcDbDictionary
3
ACAD_GROUP
350
D
3
ACAD_MLINESTYLE
350
17
0
DICTIONARY
5
D
100
AcDbDictionary
0
DICTIONARY
5
1A
330
C
100
AcDbDictionary
0
DICTIONARY
5
17
100
AcDbDictionary
0
ENDSEC
0
EOF
