0
SECTION
2
HEADER
9
$INSUNITS
70
4
9
$ACADVER
1
AC1014
9
$HANDSEED
5
FFFF
0
ENDSEC
0
SECTION
2
TABLES
0
TABLE
2
VPORT
5
8
100
AcDbSymbolTable
0
ENDTAB
0
TABLE
2
LTYPE
5
5
100
AcDbSymbolTable
0
LTYPE
5
14
100
AcDbSymbolTableRecord
100
AcDbLinetypeTableRecord
2
BYBLOCK
70
0
0
LTYPE
5
15
100
AcDbSymbolTableRecord
100
AcDbLinetypeTableRecord
2
BYLAYER
70
0
0
LTYPE
5
16
100
AcDbSymbolTableRecord
100
AcDbLinetypeTableRecord
2
DASHED
70
0
3
Dashed __ __ __ __ __ __ __ __ __ __ __ __ __ _
72
65
73
2
40
0.75
49
0.5
74
0
49
-0.25
74
0
0
ENDTAB
0
TABLE
2
LAYER
5
2
100
AcDbSymbolTable
70
3
0
LAYER
5
50
100
AcDbSymbolTableRecord
100
AcDbLayerTableRecord
2
1
70
0
62
7
6
DASHED
0
LAYER
5
51
100
AcDbSymbolTableRecord
100
AcDbLayerTableRecord
2
0
70
0
62
7
6
CONTINUOUS
0
ENDTAB
0
TABLE
2
STYLE
5
3
100
AcDbSymbolTable
70
1
0
STYLE
5
11
100
AcDbSymbolTableRecord
100
AcDbTextStyleTableRecord
2
STANDARD
70
0
0
ENDTAB
0
TABLE
2
VIEW
5
6
100
AcDbSymbolTable
70
0
0
ENDTAB
0
TABLE
2
UCS
5
7
100
AcDbSymbolTable
70
0
0
ENDTAB
0
TABLE
2
APPID
5
9
100
AcDbSymbolTable
70
2
0
APPID
5
12
100
AcDbSymbolTableRecord
100
AcDbRegAppTableRecord
2
ACAD
70
0
0
ENDTAB
0
TABLE
2
DIMSTYLE
5
A
100
AcDbSymbolTable
70
1
0
ENDTAB
0
TABLE
2
BLOCK_RECORD
5
1
100
AcDbSymbolTable
70
1
0
BLOCK_RECORD
5
1F
100
AcDbSymbolTableRecord
100
AcDbBlockTableRecord
2
*MODEL_SPACE
0
BLOCK_RECORD
5
1B
100
AcDbSymbolTableRecord
100
AcDbBlockTableRecord
2
*PAPER_SPACE
0
ENDTAB
0
ENDSEC
0
SECTION
2
BLOCKS
0
BLOCK
5
20
100
AcDbEntity
100
AcDbBlockBegin
2
*MODEL_SPACE
0
ENDBLK
5
21
100
AcDbEntity
100
AcDbBlockEnd
0
BLOCK
5
1C
100
AcDbEntity
100
AcDbBlockBegin
2
*PAPER_SPACE
0
ENDBLK
5
1D
100
AcDbEntity
100
AcDbBlockEnd
0
ENDSEC
0
SECTION
2
ENTITIES
0
LWPOLYLINE
5
100
100
AcDbEntity
8
0
100
AcDbPolyline
90
38
70
1
43
0.0
10
-185
20
150.12131271416504
10
-185.00000000000003
20
150.49999237060547
42
-0.41421356237309503
10
-183.00000000000006
20
152.49999237060547
10
-170.97106781186525
20
152.49999237060547
42
0.19891236737966234
10
-169.91040764008542
20
152.93933219882564
10
-159.22842712476711
20
163.6213127141443
42
-0.1989123673796685
10
-157.10710678120736
20
164.49999237058472
10
-155.76471862680148
20
164.49999237058472
42
0.19891236737966203
10
-154.70405845502162
20
164.93933219880486
10
-153.52207793966124
20
166.12131271416524
42
-0.19891236737965801
10
-151.40075759610158
20
166.99999237060558
10
-146.12132034364851
20
166.99999237060555
42
0.19891236737965801
10
-145.06066017186868
20
167.43933219882575
10
-141.93933982830907
20
170.56065254238533
42
0.19891236737965831
10
-141.50000000008887
20
171.62131271416516
10
-141.5000000000889
20
204.37867202702057
42
0.1989123673796602
10
-141.93933982830907
20
205.43933219880043
10
-145.0606601718687
20
208.56065254236006
42
0.19891236737965584
10
-146.12132034364853
20
208.99999237058023
10
-178.87867965644153
20
208.99999237058026
42
0.19891236737965801
10
-179.93933982822139
20
208.56065254236006
10
-183.06066017178102
20
205.43933219880046
42
0.19891236737966236
10
-183.50000000000119
20
204.37867202702057
10
-183.50000000000119
20
186.4999923706053
42
-0.41421356237309503
10
-186.50000000000119
20
183.4999923706053
10
-187.49999999999989
20
183.4999923706053
42
0.41421356237309503
10
-188.99999999999991
20
181.9999923706053
10
-188.99999999999991
20
177.99999237060547
42
-0.41421356237309503
10
-191.99999999999989
20
174.9999923706055
10
-203.49999999999997
20
174.9999923706055
42
0.41421356237309503
10
-205
20
173.49999237060547
10
-205
20
150.1213127141651
42
0.19891236737965801
10
-204.56066017177983
20
149.06065254238527
10
-202.43933982822017
20
146.93933219882567
42
0.19891236737966234
10
-201.37867965644034
20
146.49999237060547
10
-188.6213203435596
20
146.49999237060547
42
0.19891236737965584
10
-187.56066017177977
20
146.93933219882564
10
-185.43933982822017
20
149.06065254238524
42
0.19891236737965584
0
LWPOLYLINE
5
101
100
AcDbEntity
8
0
100
AcDbPolyline
90
8
70
1
43
0.0
10
-171
20
165.39999237060545
10
-171
20
156.59999237060543
42
-0.41421356237309503
10
-172.00000000000003
20
155.59999237060543
10
-174
20
155.59999237060543
42
-0.41421356237309503
10
-175
20
156.59999237060543
10
-174.99999999999997
20
165.39999237060545
42
-0.41421356237309503
10
-174
20
166.39999237060545
10
-172.00000000000003
20
166.39999237060547
42
-0.41421356237309503
0
LWPOLYLINE
5
102
100
AcDbEntity
8
0
100
AcDbPolyline
90
4
70
1
43
0.0
10
-192.44999999999993
20
168.99999237060541
10
-192.4499999999999
20
168.49999237060544
42
-0.99999999999999989
10
-197.5499999999999
20
168.49999237060544
10
-197.54999999999984
20
168.99999237060541
42
-0.99999999999999989
0
LWPOLYLINE
5
103
100
AcDbEntity
8
0
100
AcDbPolyline
90
4
70
1
43
0.0
10
-192.44999999999999
20
153.49999237060538
10
-192.44999999999999
20
152.99999237060538
42
-0.99999999999999989
10
-197.5499999999999
20
152.99999237060538
10
-197.5499999999999
20
153.49999237060538
42
-0.99999999999999989
0
LWPOLYLINE
5
104
100
AcDbEntity
8
0
100
AcDbPolyline
90
4
70
1
43
0.0
10
-186
20
155.59999237060549
10
-185.99999999999997
20
166.39999237060564
10
-183.61999999999995
20
166.39999237060564
10
-183.61999999999995
20
155.59999237060549
0
LWPOLYLINE
5
105
100
AcDbEntity
8
0
100
AcDbPolyline
90
4
70
1
43
0.0
10
-180.45000000000002
20
166.39999237060564
10
-178.24999999999994
20
166.39999237060562
10
-178.24999999999994
20
155.59999237060549
10
-180.45000000000002
20
155.59999237060549
0
CIRCLE
5
106
100
AcDbEntity
8
0
100
AcDbCircle
10
-147.00000000008879
20
187.9999923705804
30
1.1102230246251565e-14
40
1.5500000000000003
210
1.1093356479670461e-30
220
1.6538469326755446e-44
230
1
0
CIRCLE
5
107
100
AcDbEntity
8
0
100
AcDbCircle
10
-162.50000000006798
20
187.99999237058461
30
1.1102230246251565e-14
40
11.050000000000002
210
1.1093356479670479e-30
220
1.6538469326755446e-44
230
1
0
CIRCLE
5
108
100
AcDbEntity
8
0
100
AcDbCircle
10
-147.00000000006798
20
203.49999237059683
30
1.1102230246251565e-14
40
1.549999999999998
210
1.1093356479670479e-30
220
1.6538469326755446e-44
230
1
0
CIRCLE
5
109
100
AcDbEntity
8
0
100
AcDbCircle
10
-178.00000000008021
20
203.49999237058461
30
1.1102230246251565e-14
40
1.5500000000000025
210
1.1093356479670479e-30
220
1.6538469326755446e-44
230
1
0
CIRCLE
5
110
100
AcDbEntity
8
0
100
AcDbCircle
10
-178.00000000006798
20
172.49999237057241
30
1.1102230246251565e-14
40
1.5500000000000025
210
1.1093356479670479e-30
220
1.6538469326755446e-44
230
1
0
CIRCLE
5
111
100
AcDbEntity
8
0
100
AcDbCircle
10
-158.25000000104001
20
171.99999237058472
30
1.1102230246251565e-14
40
1.549999999999998
210
1.1093356479670479e-30
220
1.6538469326755446e-44
230
1
0
CIRCLE
5
112
100
AcDbEntity
8
0
100
AcDbCircle
10
-147.00000000005576
20
172.49999237058464
30
1.1102230246251565e-14
40
1.549999999999998
210
1.1093356479670479e-30
220
1.6538469326755446e-44
230
1
0
ENDSEC
0
SECTION
2
OBJECTS
0
DICTIONARY
5
C
100
AcDbDictionary
3
ACAD_GROUP
350
D
3
ACAD_MLINESTYLE
350
17
0
DICTIONARY
5
D
100
AcDbDictionary
0
DICTIONARY
5
1A
330
C
100
AcDbDictionary
0
DICTIONARY
5
17
100
AcDbDictionary
0
ENDSEC
0
EOF
