0
SECTION
2
HEADER
9
$INSUNITS
70
4
9
$ACADVER
1
AC1014
9
$HANDSEED
5
FFFF
0
ENDSEC
0
SECTION
2
TABLES
0
TABLE
2
VPORT
5
8
100
AcDbSymbolTable
0
ENDTAB
0
TABLE
2
LTYPE
5
5
100
AcDbSymbolTable
0
LTYPE
5
14
100
AcDbSymbolTableRecord
100
AcDbLinetypeTableRecord
2
BYBLOCK
70
0
0
LTYPE
5
15
100
AcDbSymbolTableRecord
100
AcDbLinetypeTableRecord
2
BYLAYER
70
0
0
LTYPE
5
16
100
AcDbSymbolTableRecord
100
AcDbLinetypeTableRecord
2
DASHED
70
0
3
Dashed __ __ __ __ __ __ __ __ __ __ __ __ __ _
72
65
73
2
40
0.75
49
0.5
74
0
49
-0.25
74
0
0
ENDTAB
0
TABLE
2
LAYER
5
2
100
AcDbSymbolTable
70
3
0
LAYER
5
50
100
AcDbSymbolTableRecord
100
AcDbLayerTableRecord
2
1
70
0
62
7
6
DASHED
0
LAYER
5
51
100
AcDbSymbolTableRecord
100
AcDbLayerTableRecord
2
0
70
0
62
7
6
CONTINUOUS
0
ENDTAB
0
TABLE
2
STYLE
5
3
100
AcDbSymbolTable
70
1
0
STYLE
5
11
100
AcDbSymbolTableRecord
100
AcDbTextStyleTableRecord
2
STANDARD
70
0
0
ENDTAB
0
TABLE
2
VIEW
5
6
100
AcDbSymbolTable
70
0
0
ENDTAB
0
TABLE
2
UCS
5
7
100
AcDbSymbolTable
70
0
0
ENDTAB
0
TABLE
2
APPID
5
9
100
AcDbSymbolTable
70
2
0
APPID
5
12
100
AcDbSymbolTableRecord
100
AcDbRegAppTableRecord
2
ACAD
70
0
0
ENDTAB
0
TABLE
2
DIMSTYLE
5
A
100
AcDbSymbolTable
70
1
0
ENDTAB
0
TABLE
2
BLOCK_RECORD
5
1
100
AcDbSymbolTable
70
1
0
BLOCK_RECORD
5
1F
100
AcDbSymbolTableRecord
100
AcDbBlockTableRecord
2
*MODEL_SPACE
0
BLOCK_RECORD
5
1B
100
AcDbSymbolTableRecord
100
AcDbBlockTableRecord
2
*PAPER_SPACE
0
ENDTAB
0
ENDSEC
0
SECTION
2
BLOCKS
0
BLOCK
5
20
100
AcDbEntity
100
AcDbBlockBegin
2
*MODEL_SPACE
0
ENDBLK
5
21
100
AcDbEntity
100
AcDbBlockEnd
0
BLOCK
5
1C
100
AcDbEntity
100
AcDbBlockBegin
2
*PAPER_SPACE
0
ENDBLK
5
1D
100
AcDbEntity
100
AcDbBlockEnd
0
ENDSEC
0
SECTION
2
ENTITIES
0
LWPOLYLINE
5
100
100
AcDbEntity
8
0
100
AcDbPolyline
90
18
70
1
43
0.0
10
-137.59999999995858
20
-201.99999999999747
42
0.41421356237304302
10
-136.59999999995873
20
-202.9999999999975
10
-129.59999999993937
20
-202.99999999999864
42
0.41421356237285567
10
-128.5999999999392
20
-201.9999999999996
10
-128.59999999993818
20
-201.0000000000002
42
0.41421356237330315
10
-129.09999999993801
20
-200.49999999999969
10
-132.23397459617104
20
-200.49999999999864
42
0.2679491924304469
10
-132.66698729806097
20
-200.74999999999841
42
-0.76732698797982446
10
-133.59999999995244
20
-200.49999999999471
10
-133.59999999993707
20
-197.49999999999392
42
-0.76732698797771204
10
-132.66698729804003
20
-197.24999999999619
42
0.26794919243161003
10
-132.23397459614742
20
-197.4999999999971
10
-129.09999999993431
20
-197.49999999999767
42
0.41421356237287649
10
-128.59999999993423
20
-196.99999999999812
10
-128.59999999993323
20
-195.9999999999996
42
0.41421356237334478
10
-129.59999999993309
20
-194.99999999999858
10
-136.59999999995807
20
-194.99999999999747
42
0.41421356237312623
10
-137.59999999995824
20
-195.99999999999744
0
LWPOLYLINE
5
101
100
AcDbEntity
8
0
100
AcDbPolyline
90
4
70
1
43
0.0
10
-197.54999999999967
20
-153.49999999999829
10
-197.5500000000001
20
-152.99999999999881
42
-0.99999999999999989
10
-192.4500000000001
20
-152.99999999999829
10
-192.44999999999976
20
-153.49999999999829
42
-0.99999999999999989
0
LWPOLYLINE
5
102
100
AcDbEntity
8
0
100
AcDbPolyline
90
4
70
1
43
0.0
10
-192.4499999999997
20
-168.49999999999827
10
-192.4500000000001
20
-168.99999999999886
42
-0.99999999999999989
10
-197.5500000000001
20
-168.99999999999829
10
-197.54999999999973
20
-168.49999999999827
42
-0.99999999999999989
0
LWPOLYLINE
5
103
100
AcDbEntity
8
0
100
AcDbPolyline
90
8
70
1
43
0.0
10
-171.0000000000002
20
-156.59999999999857
10
-171.00000000000017
20
-165.39999999999856
42
-0.41421356237309503
10
-172.00000000000017
20
-166.39999999999858
10
-174.00000000000011
20
-166.39999999999856
42
-0.41421356237309503
10
-175.00000000000011
20
-165.39999999999856
10
-175.00000000000014
20
-156.59999999999857
42
-0.41421356237309503
10
-174.00000000000011
20
-155.59999999999857
10
-172.00000000000017
20
-155.5999999999986
42
-0.41421356237309503
0
LWPOLYLINE
5
104
100
AcDbEntity
8
0
100
AcDbPolyline
90
8
70
1
43
0.0
10
-180.45000000000016
20
-165.89999999999856
10
-180.45000000000016
20
-156.09999999999843
42
-0.41421356237309503
10
-179.95000000000016
20
-155.59999999999843
10
-178.75000000000017
20
-155.59999999999843
42
-0.41421356237309503
10
-178.25000000000017
20
-156.09999999999843
10
-178.25000000000011
20
-165.89999999999856
42
-0.41421356237309503
10
-178.75000000000014
20
-166.39999999999858
10
-179.9500000000001
20
-166.39999999999858
42
-0.41421356237309503
0
LWPOLYLINE
5
105
100
AcDbEntity
8
0
100
AcDbPolyline
90
6
70
1
43
0.0
10
-148.70000000001281
20
-177.69999999998726
10
-114.00000000001288
20
-177.69999999998726
10
-114.0000000000129
20
-182.99999999998727
10
-148.70000000001281
20
-182.99999999998721
42
-0.41421356237309503
10
-151.00000000001282
20
-180.6999999999872
10
-151.00000000001285
20
-179.99999999998727
42
-0.41421356237309503
0
LWPOLYLINE
5
106
100
AcDbEntity
8
0
100
AcDbPolyline
90
16
70
1
43
0.0
10
-100.68856217223177
20
-185.99999999998721
42
0.18267581368158325
10
-101.01928108611482
20
-186.12499999998727
42
-0.9392205338844799
10
-101.72499999999786
20
-185.41928108610415
42
0.18267581368159694
10
-101.59999999999786
20
-185.08856217222106
10
-101.59999999999786
20
-175.91143782774196
42
0.18267581368160454
10
-101.72499999999788
20
-175.5807189138589
42
-0.93922053388442095
10
-101.01928108611483
20
-174.87499999997581
42
0.18267581368159008
10
-100.68856217223177
20
-174.99999999997584
10
-97.411437827764033
20
-174.99999999997584
42
0.18267581368159241
10
-97.080718913880958
20
-174.87499999997581
42
-0.93922053388448157
10
-96.374999999997883
20
-175.58071891385893
42
0.18267581368158473
10
-96.499999999997897
20
-175.91143782774196
10
-96.499999999997897
20
-185.08856217222109
42
0.18267581368157862
10
-96.374999999997883
20
-185.41928108610415
42
-0.93922053388449245
10
-97.080718913880958
20
-186.12499999998727
42
0.18267581368160157
10
-97.411437827764047
20
-185.99999999998721
0
LWPOLYLINE
5
107
100
AcDbEntity
8
0
100
AcDbPolyline
90
8
70
1
43
0.0
10
-184.12000000000006
20
-166.39999999999858
10
-185.50000000000009
20
-166.39999999999856
42
-0.41421356237309503
10
-186.00000000000009
20
-165.89999999999856
10
-186.00000000000011
20
-156.09999999999843
42
-0.41421356237309503
10
-185.50000000000011
20
-155.59999999999843
10
-184.12000000000006
20
-155.59999999999846
42
-0.41421356237309503
10
-183.62000000000009
20
-156.09999999999843
10
-183.62
20
-165.89999999999856
42
-0.41421356237309503
0
LWPOLYLINE
5
108
100
AcDbEntity
8
0
100
AcDbPolyline
90
34
70
1
43
0.0
10
-95.121320343554373
20
-208.99999999997576
42
0.19891236737871132
10
-94.06066017177838
20
-208.56066017175948
10
-91.939339828221861
20
-206.43933982821829
42
0.19891236738060467
10
-91.499999999997854
20
-205.37867965643457
10
-91.499999999997897
20
-173.49999999997581
42
0.41421356237309503
10
-92.99999999999784
20
-171.99999999997578
10
-138.2573593129309
20
-171.99999999997578
42
-0.19891236737962212
10
-140.37867965649025
20
-171.12132034353576
10
-154.06066017181155
20
-157.43933982821861
42
0.19891236737961884
10
-155.12132034359121
20
-156.99999999999858
10
-164.60710678118602
20
-156.99999999999858
42
-0.19891236737965695
10
-166.72842712474565
20
-156.12132034355824
10
-171.91040764008528
20
-150.93933982821875
42
0.19891236737965978
10
-172.97106781186511
20
-150.49999999999858
10
-182.75735931288082
20
-150.49999999999864
42
-0.19891236737965143
10
-184.87867965644043
20
-149.6213203435583
10
-187.56066017178014
20
-146.93933982821872
42
0.19891236737965151
10
-188.62132034355992
20
-146.49999999999855
10
-201.3786796564404
20
-146.49999999999855
42
0.1989123673796602
10
-202.43933982822026
20
-146.93933982821875
10
-204.56066017177989
20
-149.06066017177835
42
0.19891236737965584
10
-205.00000000000003
20
-150.12132034355818
10
-205.00000000000006
20
-173.49999999999852
42
0.41421356237309503
10
-203.50000000000009
20
-174.99999999999852
10
-191.99999999999974
20
-174.99999999999858
42
-0.41421356237309503
10
-188.99999999999977
20
-177.99999999999855
10
-188.99999999999977
20
-181.99999999999872
42
0.41421356237309503
10
-187.49999999999977
20
-183.49999999999875
10
-186.50000000000131
20
-183.49999999999869
42
-0.41421356237309503
10
-183.50000000000131
20
-186.49999999999869
10
-183.50000000000136
20
-204.37867965641612
42
0.19891236737964929
10
-183.06066017178119
20
-205.4393398281959
10
-179.93933982822153
20
-208.56066017175556
42
0.19891236737965801
10
-178.87867965644173
20
-208.99999999997576
0
CIRCLE
5
109
100
AcDbEntity
8
0
100
AcDbCircle
10
-110.5000000000129
20
-180.49999999998718
30
0
40
1.25
210
-1.2446030555722261e-60
220
-9.0367169492599733e-91
230
1
0
CIRCLE
5
110
100
AcDbEntity
8
0
100
AcDbCircle
10
-162.50000000001279
20
-187.99999999998786
30
0
40
11.050000000000002
210
-6.6696774879734771e-179
220
2.4439490907996805e-150
230
1
0
CIRCLE
5
111
100
AcDbEntity
8
0
100
AcDbCircle
10
-178.00000000001276
20
-203.49999999998738
30
0
40
1.5500000000000025
210
-6.6696774879734771e-179
220
2.4439490907996805e-150
230
1
0
CIRCLE
5
112
100
AcDbEntity
8
0
100
AcDbCircle
10
-147.00000000001327
20
-203.49999999998778
30
0
40
1.549999999999998
210
-6.6696774879734771e-179
220
2.4439490907996805e-150
230
1
0
CIRCLE
5
113
100
AcDbEntity
8
0
100
AcDbCircle
10
-147.00000000001285
20
-172.49999999998835
30
0
40
1.549999999999998
210
-6.6696774879734771e-179
220
2.4439490907996805e-150
230
1
0
CIRCLE
5
114
100
AcDbEntity
8
0
100
AcDbCircle
10
-178.00000000001231
20
-172.49999999998789
30
0
40
1.5500000000000025
210
-6.6696774879734771e-179
220
2.4439490907996805e-150
230
1
0
CIRCLE
5
115
100
AcDbEntity
8
0
100
AcDbCircle
10
-98.249999999933834
20
-198.99999999999636
30
5.2824411511664948e-12
40
2.5499999999999989
210
-6.6696774879734771e-179
220
2.4439490907996805e-150
230
1
0
CIRCLE
5
116
100
AcDbEntity
8
0
100
AcDbCircle
10
-113.74999999993386
20
-198.99999999999636
30
5.2846615972157451e-12
40
2.5499999999999998
210
-6.6696774879734771e-179
220
2.4439490907996805e-150
230
1
0
CIRCLE
5
117
100
AcDbEntity
8
0
100
AcDbCircle
10
-162.50000000001279
20
-167.25999999999772
30
0
40
6.5150000000000041
210
-6.6696774879734771e-179
220
2.4439490907996805e-150
230
1
0
CIRCLE
5
118
100
AcDbEntity
8
0
100
AcDbCircle
10
-171.13437316777097
20
-172.49999999998789
30
0
40
1.2500000000000089
210
-6.6696774879734771e-179
220
2.4439490907996805e-150
230
1
0
CIRCLE
5
119
100
AcDbEntity
8
0
100
AcDbCircle
10
-153.86562683225461
20
-162.02000000000749
30
0
40
1.2500000000000089
210
-6.6696774879734771e-179
220
2.4439490907996805e-150
230
1
0
ENDSEC
0
SECTION
2
OBJECTS
0
DICTIONARY
5
C
100
AcDbDictionary
3
ACAD_GROUP
350
D
3
ACAD_MLINESTYLE
350
17
0
DICTIONARY
5
D
100
AcDbDictionary
0
DICTIONARY
5
1A
330
C
100
AcDbDictionary
0
DICTIONARY
5
17
100
AcDbDictionary
0
ENDSEC
0
EOF
