0
SECTION
2
HEADER
9
$INSUNITS
70
4
9
$ACADVER
1
AC1014
9
$HANDSEED
5
FFFF
0
ENDSEC
0
SECTION
2
TABLES
0
TABLE
2
VPORT
5
8
100
AcDbSymbolTable
0
ENDTAB
0
TABLE
2
LTYPE
5
5
100
AcDbSymbolTable
0
LTYPE
5
14
100
AcDbSymbolTableRecord
100
AcDbLinetypeTableRecord
2
BYBLOCK
70
0
0
LTYPE
5
15
100
AcDbSymbolTableRecord
100
AcDbLinetypeTableRecord
2
BYLAYER
70
0
0
LTYPE
5
16
100
AcDbSymbolTableRecord
100
AcDbLinetypeTableRecord
2
DASHED
70
0
3
Dashed __ __ __ __ __ __ __ __ __ __ __ __ __ _
72
65
73
2
40
0.75
49
0.5
74
0
49
-0.25
74
0
0
ENDTAB
0
TABLE
2
LAYER
5
2
100
AcDbSymbolTable
70
3
0
LAYER
5
50
100
AcDbSymbolTableRecord
100
AcDbLayerTableRecord
2
1
70
0
62
7
6
DASHED
0
LAYER
5
51
100
AcDbSymbolTableRecord
100
AcDbLayerTableRecord
2
0
70
0
62
7
6
CONTINUOUS
0
ENDTAB
0
TABLE
2
STYLE
5
3
100
AcDbSymbolTable
70
1
0
STYLE
5
11
100
AcDbSymbolTableRecord
100
AcDbTextStyleTableRecord
2
STANDARD
70
0
0
ENDTAB
0
TABLE
2
VIEW
5
6
100
AcDbSymbolTable
70
0
0
ENDTAB
0
TABLE
2
UCS
5
7
100
AcDbSymbolTable
70
0
0
ENDTAB
0
TABLE
2
APPID
5
9
100
AcDbSymbolTable
70
2
0
APPID
5
12
100
AcDbSymbolTableRecord
100
AcDbRegAppTableRecord
2
ACAD
70
0
0
ENDTAB
0
TABLE
2
DIMSTYLE
5
A
100
AcDbSymbolTable
70
1
0
ENDTAB
0
TABLE
2
BLOCK_RECORD
5
1
100
AcDbSymbolTable
70
1
0
BLOCK_RECORD
5
1F
100
AcDbSymbolTableRecord
100
AcDbBlockTableRecord
2
*MODEL_SPACE
0
BLOCK_RECORD
5
1B
100
AcDbSymbolTableRecord
100
AcDbBlockTableRecord
2
*PAPER_SPACE
0
ENDTAB
0
ENDSEC
0
SECTION
2
BLOCKS
0
BLOCK
5
20
100
AcDbEntity
100
AcDbBlockBegin
2
*MODEL_SPACE
0
ENDBLK
5
21
100
AcDbEntity
100
AcDbBlockEnd
0
BLOCK
5
1C
100
AcDbEntity
100
AcDbBlockBegin
2
*PAPER_SPACE
0
ENDBLK
5
1D
100
AcDbEntity
100
AcDbBlockEnd
0
ENDSEC
0
SECTION
2
ENTITIES
0
ARC
5
100
100
AcDbEntity
8
0
100
AcDbCircle
10
136.59999999995836
20
-201.99999999999869
30
-6.6613381477509392e-14
40
1.0000000000000142
210
0
220
0
230
1
100
AcDbArc
50
-89.999999999988603
51
0
0
LINE
5
101
100
AcDbEntity
8
0
100
AcDbLine
10
136.59999999995856
20
-202.99999999999869
30
-6.6613381477509392e-14
11
129.59999999993917
21
-202.9999999999998
31
1.1920875264692654e-06
0
ARC
5
102
100
AcDbEntity
8
0
100
AcDbCircle
10
129.59999999993897
20
-201.99999999999983
30
-6.6613381477509392e-14
40
0.99999999999997868
210
0
220
0
230
1
100
AcDbArc
50
180
51
270.00000000001137
0
LINE
5
103
100
AcDbEntity
8
0
100
AcDbLine
10
128.599999999939
20
-202.0000000000008
30
-6.6613381477509392e-14
11
128.59999999993749
21
-200.50000000000102
31
1.1920875264692654e-06
0
LINE
5
104
100
AcDbEntity
8
0
100
AcDbLine
10
128.59999999993749
20
-200.50000000000102
30
1.1920875264692654e-06
11
132.59999999995432
21
-200.49999999999969
31
1.1920875131465891e-06
0
ARC
5
105
100
AcDbEntity
8
0
100
AcDbCircle
10
133.09999999957398
20
-200.49999999999838
30
0.00031733371366451035
40
0.49999999999938538
210
2.3841751595228719e-06
220
6.268015859426542e-18
230
0.99999999999715783
100
AcDbArc
50
-180
51
0.00013660378340028738
0
LINE
5
106
100
AcDbEntity
8
0
100
AcDbLine
10
133.59999999995026
20
-200.49999999999591
30
-6.6613381477509392e-14
11
133.59999999993687
21
-197.49999999999511
31
1.192087508705697e-06
0
ARC
5
107
100
AcDbEntity
8
0
100
AcDbCircle
10
133.09999999955625
20
-197.49999999999767
30
-0.00031733371261160372
40
0.50000000000375522
210
-2.3841751506202507e-06
220
-1.2197220005124386e-17
230
0.99999999999715783
100
AcDbArc
50
0
51
180.0001366037834
0
LINE
5
108
100
AcDbEntity
8
0
100
AcDbLine
10
132.59999999993224
20
-197.49999999999815
30
-6.6613381477509392e-14
11
128.59999999993451
21
-197.49999999999892
31
1.1920875220283733e-06
0
LINE
5
109
100
AcDbEntity
8
0
100
AcDbLine
10
128.59999999993451
20
-197.49999999999892
30
1.1920875220283733e-06
11
128.599999999933
21
-196.00000000000077
31
1.1920875264692654e-06
0
ARC
5
110
100
AcDbEntity
8
0
100
AcDbCircle
10
129.599999999933
20
-195.99999999999977
30
-6.6613381477509392e-14
40
1.0000000000000142
210
0
220
0
230
1
100
AcDbArc
50
90.000000000006523
51
180.0000683018917
0
LINE
5
111
100
AcDbEntity
8
0
100
AcDbLine
10
129.59999999993289
20
-194.99999999999974
30
-6.6613381477509392e-14
11
136.59999999995787
21
-194.99999999999864
31
1.1920875220283733e-06
0
ARC
5
112
100
AcDbEntity
8
0
100
AcDbCircle
10
136.59999999995802
20
-195.99999999999866
30
-6.6613381477509392e-14
40
1.0000000000000142
210
0
220
-0
230
1
100
AcDbArc
50
0
51
90.000000000008143
0
LINE
5
113
100
AcDbEntity
8
0
100
AcDbLine
10
137.59999999995802
20
-195.99999999999864
30
-6.6613381477509392e-14
11
137.59999999995838
21
-201.99999999999864
31
-6.6613381477509392e-14
0
LWPOLYLINE
5
114
100
AcDbEntity
8
0
100
AcDbPolyline
90
34
70
1
43
0.0
10
94.060660171778068
20
-208.56066017176096
42
0.1989123673787179
10
95.121320343554061
20
-208.99999999997729
10
178.87867965644153
20
-208.99999999997729
42
0.19891236737966234
10
179.93933982822139
20
-208.56066017175709
10
183.06066017178102
20
-205.43933982819743
42
0.19891236737965359
10
183.50000000000119
20
-204.37867965641766
10
183.50000000000119
20
-186.5
42
-0.41421356237309503
10
186.50000000000119
20
-183.49999999999997
10
187.49999999999994
20
-183.49999999999997
42
0.41421356237309503
10
188.99999999999994
20
-182
10
188.99999999999994
20
-178
42
-0.41421356237309503
10
191.99999999999994
20
-175
10
203.49999999999997
20
-175
42
0.41421356237309503
10
204.99999999999997
20
-173.49999999999997
10
204.99999999999997
20
-150.12132034355963
42
0.19891236737966017
10
204.56066017177977
20
-149.0606601717798
10
202.43933982822014
20
-146.93933982822014
42
0.1989123673796602
10
201.37867965644031
20
-146.49999999999997
10
188.62132034355977
20
-146.49999999999994
42
0.19891236737965146
10
187.56066017177997
20
-146.93933982822011
10
184.87867965644028
20
-149.62132034355972
42
-0.19891236737965037
10
182.75735931288068
20
-150.5
10
172.97106781186488
20
-150.5
42
0.19891236737965362
10
171.91040764008508
20
-150.93933982822017
10
166.72842712474545
20
-156.12132034355969
42
-0.19891236737965362
10
164.60710678118585
20
-157
10
155.12132034359095
20
-157
42
0.19891236737961665
10
154.06066017181129
20
-157.43933982822003
10
140.37867965648999
20
-171.12132034353723
42
-0.19891236737961876
10
138.25735931293065
20
-171.99999999997729
10
92.999999999997527
20
-171.99999999997729
42
0.41421356237309159
10
91.499999999997527
20
-173.49999999997726
10
91.499999999997527
20
-205.37867965643611
42
0.19891236738059381
10
91.939339828221534
20
-206.43933982821974
0
LWPOLYLINE
5
115
100
AcDbEntity
8
0
100
AcDbPolyline
90
4
70
1
43
0.0
10
180.45000000000002
20
-155.59999999999985
10
180.45000000000002
20
-166.40000000000001
10
178.25000000000003
20
-166.40000000000003
10
178.25000000000003
20
-155.59999999999988
0
LWPOLYLINE
5
116
100
AcDbEntity
8
0
100
AcDbPolyline
90
6
70
1
43
0.0
10
114.00000000001258
20
-177.69999999998873
10
148.70000000001258
20
-177.69999999998871
42
-0.41421356237309503
10
151.00000000001259
20
-179.99999999998869
10
151.00000000001259
20
-180.69999999998871
42
-0.41421356237309503
10
148.70000000001258
20
-182.99999999998872
10
114.00000000001258
20
-182.99999999998872
0
LWPOLYLINE
5
117
100
AcDbEntity
8
0
100
AcDbPolyline
90
16
70
1
43
0.0
10
101.01928108611446
20
-186.12499999998869
42
0.18267581368159244
10
100.6885621722314
20
-185.99999999998869
10
97.411437827763677
20
-185.99999999998869
42
0.18267581368159244
10
97.080718913880588
20
-186.12499999998869
42
-0.93922053388444438
10
96.374999999997542
20
-185.4192810861056
42
0.18267581368159244
10
96.499999999997527
20
-185.08856217222251
10
96.499999999997527
20
-175.91143782774338
42
0.18267581368159844
10
96.374999999997527
20
-175.58071891386032
42
-0.93922053388443272
10
97.080718913880602
20
-174.87499999997723
42
0.18267581368159241
10
97.411437827763677
20
-174.99999999997726
10
100.6885621722314
20
-174.99999999997726
42
0.18267581368159241
10
101.01928108611446
20
-174.87499999997723
42
-0.93922053388448157
10
101.72499999999755
20
-175.58071891386035
42
0.18267581368158473
10
101.59999999999754
20
-175.91143782774338
10
101.59999999999754
20
-185.08856217222251
42
0.18267581368159844
10
101.72499999999756
20
-185.4192810861056
42
-0.93922053388445648
0
LWPOLYLINE
5
118
100
AcDbEntity
8
0
100
AcDbPolyline
90
4
70
1
43
0.0
10
186
20
-166.40000000000001
10
183.61999999999995
20
-166.40000000000001
10
183.61999999999995
20
-155.59999999999985
10
186
20
-155.59999999999985
0
LWPOLYLINE
5
119
100
AcDbEntity
8
0
100
AcDbPolyline
90
4
70
1
43
0.0
10
197.54999999999961
20
-152.99999999999943
10
197.54999999999967
20
-153.49999999999943
42
-0.99999999999999989
10
192.44999999999962
20
-153.49999999999943
10
192.45000000000033
20
-153.00000000000051
42
-0.99999999999999989
0
LWPOLYLINE
5
120
100
AcDbEntity
8
0
100
AcDbPolyline
90
8
70
1
43
0.0
10
172.00000000000003
20
-155.59999999999999
10
174
20
-155.59999999999999
42
-0.41421356237309503
10
175
20
-156.59999999999999
10
174.99999999999997
20
-165.40000000000003
42
-0.41421356237309503
10
174
20
-166.40000000000001
10
172.00000000000003
20
-166.40000000000001
42
-0.41421356237309503
10
171
20
-165.39999999999998
10
171
20
-156.59999999999999
42
-0.41421356237309503
0
LWPOLYLINE
5
121
100
AcDbEntity
8
0
100
AcDbPolyline
90
4
70
1
43
0.0
10
197.54999999999961
20
-168.49999999999937
10
197.55000000000001
20
-169
42
-0.99999999999999989
10
192.44999999999999
20
-169
10
192.4499999999997
20
-168.49999999999937
42
-0.99999999999999989
0
CIRCLE
5
122
100
AcDbEntity
8
0
100
AcDbCircle
10
-110.50000000001259
20
-180.49999999998863
30
7.5495165674510519e-14
40
1.25
210
-1.1339875512552045e-30
220
1.1241862191824582e-44
230
-1
0
CIRCLE
5
123
100
AcDbEntity
8
0
100
AcDbCircle
10
-162.50000000001256
20
-187.99999999998931
30
7.5495165674510455e-14
40
6.5150000000000041
210
-1.1339875512552045e-30
220
1.1241862191824582e-44
230
-1
0
CIRCLE
5
124
100
AcDbEntity
8
0
100
AcDbCircle
10
-178.00000000001259
20
-203.49999999998886
30
7.5495165674510443e-14
40
1.5500000000000025
210
-1.1339875512552045e-30
220
1.1241862191824582e-44
230
-1
0
CIRCLE
5
125
100
AcDbEntity
8
0
100
AcDbCircle
10
-147.00000000001302
20
-203.49999999998931
30
7.5495165674510468e-14
40
1.549999999999998
210
-1.1339875512552045e-30
220
1.1241862191824582e-44
230
-1
0
CIRCLE
5
126
100
AcDbEntity
8
0
100
AcDbCircle
10
-147.00000000001262
20
-172.49999999998977
30
7.5495165674510468e-14
40
1.549999999999998
210
-1.1339875512552045e-30
220
1.1241862191824582e-44
230
-1
0
CIRCLE
5
127
100
AcDbEntity
8
0
100
AcDbCircle
10
-178.00000000001211
20
-172.49999999998934
30
7.5495165674510443e-14
40
1.5500000000000025
210
-1.1339875512552045e-30
220
1.1241862191824582e-44
230
-1
0
CIRCLE
5
128
100
AcDbEntity
8
0
100
AcDbCircle
10
-98.249999999933465
20
-198.99999999999636
30
5.4090065759737627e-12
40
2.5499999999999989
210
-1.1339875512552045e-30
220
1.1241862191824582e-44
230
-1
0
CIRCLE
5
129
100
AcDbEntity
8
0
100
AcDbCircle
10
-113.74999999993352
20
-198.99999999999636
30
5.4090065759737627e-12
40
2.5499999999999998
210
-1.1339875512552045e-30
220
1.1241862191824582e-44
230
-1
0
CIRCLE
5
130
100
AcDbEntity
8
0
100
AcDbCircle
10
-162.50000000001256
20
-167.25999999999914
30
7.5495165674510455e-14
40
6.5150000000000041
210
-1.1339875512552045e-30
220
1.1241862191824582e-44
230
-1
0
CIRCLE
5
131
100
AcDbEntity
8
0
100
AcDbCircle
10
-171.1343731677708
20
-172.49999999998934
30
7.5495165674510455e-14
40
1.2500000000000089
210
-1.1339875512552045e-30
220
1.1241862191824582e-44
230
-1
0
CIRCLE
5
132
100
AcDbEntity
8
0
100
AcDbCircle
10
-153.86562683225438
20
-162.02000000000893
30
7.5495165674510468e-14
40
1.2500000000000089
210
-1.1339875512552045e-30
220
1.1241862191824582e-44
230
-1
0
CIRCLE
5
133
100
AcDbEntity
8
0
100
AcDbCircle
10
-162.50000000001256
20
-197.59999999998954
30
7.5495165674510455e-14
40
1.2500000000000044
210
-1.1339875512552041e-30
220
1.1241862191824582e-44
230
-1
0
CIRCLE
5
134
100
AcDbEntity
8
0
100
AcDbCircle
10
-162.50000000001256
20
-178.39999999998909
30
7.5495165674510455e-14
40
1.2500000000000044
210
-1.1339875512552041e-30
220
1.1241862191824582e-44
230
-1
0
ENDSEC
0
SECTION
2
OBJECTS
0
DICTIONARY
5
C
100
AcDbDictionary
3
ACAD_GROUP
350
D
3
ACAD_MLINESTYLE
350
17
0
DICTIONARY
5
D
100
AcDbDictionary
0
DICTIONARY
5
1A
330
C
100
AcDbDictionary
0
DICTIONARY
5
17
100
AcDbDictionary
0
ENDSEC
0
EOF
