0
SECTION
2
HEADER
9
$INSUNITS
70
4
9
$ACADVER
1
AC1014
9
$HANDSEED
5
FFFF
0
ENDSEC
0
SECTION
2
TABLES
0
TABLE
2
VPORT
5
8
100
AcDbSymbolTable
0
ENDTAB
0
TABLE
2
LTYPE
5
5
100
AcDbSymbolTable
0
LTYPE
5
14
100
AcDbSymbolTableRecord
100
AcDbLinetypeTableRecord
2
BYBLOCK
70
0
0
LTYPE
5
15
100
AcDbSymbolTableRecord
100
AcDbLinetypeTableRecord
2
BYLAYER
70
0
0
LTYPE
5
16
100
AcDbSymbolTableRecord
100
AcDbLinetypeTableRecord
2
DASHED
70
0
3
Dashed __ __ __ __ __ __ __ __ __ __ __ __ __ _
72
65
73
2
40
0.75
49
0.5
74
0
49
-0.25
74
0
0
ENDTAB
0
TABLE
2
LAYER
5
2
100
AcDbSymbolTable
70
2
0
LAYER
5
50
100
AcDbSymbolTableRecord
100
AcDbLayerTableRecord
2
0
70
0
62
7
6
CONTINUOUS
0
ENDTAB
0
TABLE
2
STYLE
5
3
100
AcDbSymbolTable
70
1
0
STYLE
5
11
100
AcDbSymbolTableRecord
100
AcDbTextStyleTableRecord
2
STANDARD
70
0
0
ENDTAB
0
TABLE
2
VIEW
5
6
100
AcDbSymbolTable
70
0
0
ENDTAB
0
TABLE
2
UCS
5
7
100
AcDbSymbolTable
70
0
0
ENDTAB
0
TABLE
2
APPID
5
9
100
AcDbSymbolTable
70
2
0
APPID
5
12
100
AcDbSymbolTableRecord
100
AcDbRegAppTableRecord
2
ACAD
70
0
0
ENDTAB
0
TABLE
2
DIMSTYLE
5
A
100
AcDbSymbolTable
70
1
0
ENDTAB
0
TABLE
2
BLOCK_RECORD
5
1
100
AcDbSymbolTable
70
1
0
BLOCK_RECORD
5
1F
100
AcDbSymbolTableRecord
100
AcDbBlockTableRecord
2
*MODEL_SPACE
0
BLOCK_RECORD
5
1B
100
AcDbSymbolTableRecord
100
AcDbBlockTableRecord
2
*PAPER_SPACE
0
ENDTAB
0
ENDSEC
0
SECTION
2
BLOCKS
0
BLOCK
5
20
100
AcDbEntity
100
AcDbBlockBegin
2
*MODEL_SPACE
0
ENDBLK
5
21
100
AcDbEntity
100
AcDbBlockEnd
0
BLOCK
5
1C
100
AcDbEntity
100
AcDbBlockBegin
2
*PAPER_SPACE
0
ENDBLK
5
1D
100
AcDbEntity
100
AcDbBlockEnd
0
ENDSEC
0
SECTION
2
ENTITIES
0
LWPOLYLINE
5
100
100
AcDbEntity
8
0
100
AcDbPolyline
90
36
70
1
43
0.0
10
120.99999999999633
20
-8.6000000000001382
10
96.499999999996419
20
-8.6000000000001453
10
96.499999999996419
20
-10.888562172234037
42
0.1826758136815872
10
96.62499999999639
20
-11.219281086117093
42
-0.93922053388443227
10
95.919281086113301
20
-11.925000000000148
42
0.18267581368160457
10
95.588562172230226
20
-11.800000000000146
10
91.999999999996419
20
-11.800000000000148
42
0.41421356237309503
10
91.499999999996419
20
-12.300000000000148
10
91.499999999996419
20
-14.000000000000139
42
0.41421356237309503
10
91.999999999996419
20
-14.500000000000139
10
134.0000000000114
20
-14.500000000000137
10
134.0000000000114
20
-18.900000000000134
42
0.41421356237309503
10
134.5000000000114
20
-19.400000000000134
10
145.50000000001137
20
-19.40000000000013
42
0.41421356237309503
10
146.00000000001137
20
-18.90000000000013
10
146.00000000001137
20
-15.300000000000136
10
140.50000000001137
20
-15.300000000000134
10
140.50000000001143
20
10.999999999999854
10
146.00000000001137
20
10.999999999999856
10
146.00000000001137
20
18.299999999999848
42
0.41421356237309503
10
145.50000000001137
20
18.799999999999851
10
134.5000000000114
20
18.799999999999848
42
0.4142135623730937
10
134.0000000000114
20
18.299999999999848
10
134.0000000000114
20
13.199999999999847
10
91.999999999996419
20
13.199999999999834
42
0.41421356237309503
10
91.499999999996419
20
12.699999999999834
10
91.499999999996419
20
10.999999999999853
42
0.41421356237309503
10
91.999999999996419
20
10.499999999999851
10
95.588562172230382
20
10.499999999999854
42
0.18267581368159622
10
95.919281086113443
20
10.624999999999851
42
-0.93922053388445692
10
96.624999999996518
20
9.9192810861167775
42
0.18267581368159394
10
96.499999999996518
20
9.5885621722337167
10
96.499999999996419
20
7.2999999999998479
10
120.99999999999633
20
7.2999999999998444
42
-0.41421356237309437
10
121.49999999999633
20
6.7999999999998559
10
121.49999999999635
20
-8.1000000000001364
42
-0.41421356237309503
0
LWPOLYLINE
5
101
100
AcDbEntity
8
0
100
AcDbPolyline
90
6
70
1
43
0.0
10
124.60000000001281
20
1.4999999999999281
10
124.60000000001281
20
5.4999999999999281
42
-0.41421356237309481
10
126.10000000001281
20
6.9999999999999263
10
137.80000000001283
20
6.9999999999999272
10
137.80000000001286
20
-6.9633188104488586e-14
10
126.10000000001281
20
-7.5495165674510645e-14
42
-0.41421356237309503
0
ENDSEC
0
SECTION
2
OBJECTS
0
DICTIONARY
5
C
100
AcDbDictionary
3
ACAD_GROUP
350
D
3
ACAD_MLINESTYLE
350
17
0
DICTIONARY
5
D
100
AcDbDictionary
0
DICTIONARY
5
1A
330
C
100
AcDbDictionary
0
DICTIONARY
5
17
100
AcDbDictionary
0
ENDSEC
0
EOF
