0
SECTION
2
HEADER
9
$INSUNITS
70
4
9
$ACADVER
1
AC1014
9
$HANDSEED
5
FFFF
0
ENDSEC
0
SECTION
2
TABLES
0
TABLE
2
VPORT
5
8
100
AcDbSymbolTable
0
ENDTAB
0
TABLE
2
LTYPE
5
5
100
AcDbSymbolTable
0
LTYPE
5
14
100
AcDbSymbolTableRecord
100
AcDbLinetypeTableRecord
2
BYBLOCK
70
0
0
LTYPE
5
15
100
AcDbSymbolTableRecord
100
AcDbLinetypeTableRecord
2
BYLAYER
70
0
0
LTYPE
5
16
100
AcDbSymbolTableRecord
100
AcDbLinetypeTableRecord
2
DASHED
70
0
3
Dashed __ __ __ __ __ __ __ __ __ __ __ __ __ _
72
65
73
2
40
0.75
49
0.5
74
0
49
-0.25
74
0
0
ENDTAB
0
TABLE
2
LAYER
5
2
100
AcDbSymbolTable
70
3
0
LAYER
5
50
100
AcDbSymbolTableRecord
100
AcDbLayerTableRecord
2
1
70
0
62
7
6
DASHED
0
LAYER
5
51
100
AcDbSymbolTableRecord
100
AcDbLayerTableRecord
2
0
70
0
62
7
6
CONTINUOUS
0
ENDTAB
0
TABLE
2
STYLE
5
3
100
AcDbSymbolTable
70
1
0
STYLE
5
11
100
AcDbSymbolTableRecord
100
AcDbTextStyleTableRecord
2
STANDARD
70
0
0
ENDTAB
0
TABLE
2
VIEW
5
6
100
AcDbSymbolTable
70
0
0
ENDTAB
0
TABLE
2
UCS
5
7
100
AcDbSymbolTable
70
0
0
ENDTAB
0
TABLE
2
APPID
5
9
100
AcDbSymbolTable
70
2
0
APPID
5
12
100
AcDbSymbolTableRecord
100
AcDbRegAppTableRecord
2
ACAD
70
0
0
ENDTAB
0
TABLE
2
DIMSTYLE
5
A
100
AcDbSymbolTable
70
1
0
ENDTAB
0
TABLE
2
BLOCK_RECORD
5
1
100
AcDbSymbolTable
70
1
0
BLOCK_RECORD
5
1F
100
AcDbSymbolTableRecord
100
AcDbBlockTableRecord
2
*MODEL_SPACE
0
BLOCK_RECORD
5
1B
100
AcDbSymbolTableRecord
100
AcDbBlockTableRecord
2
*PAPER_SPACE
0
ENDTAB
0
ENDSEC
0
SECTION
2
BLOCKS
0
BLOCK
5
20
100
AcDbEntity
100
AcDbBlockBegin
2
*MODEL_SPACE
0
ENDBLK
5
21
100
AcDbEntity
100
AcDbBlockEnd
0
BLOCK
5
1C
100
AcDbEntity
100
AcDbBlockBegin
2
*PAPER_SPACE
0
ENDBLK
5
1D
100
AcDbEntity
100
AcDbBlockEnd
0
ENDSEC
0
SECTION
2
ENTITIES
0
LWPOLYLINE
5
100
100
AcDbEntity
8
0
100
AcDbPolyline
90
32
70
1
43
0.0
10
-177.44999999998868
20
13.199999999999978
42
0.41421356237309503
10
-177.94999999998865
20
12.699999999999978
10
-177.94999999998865
20
11.411437827766145
42
0.18267581368159072
10
-177.82499999998868
20
11.080718913883093
42
-0.93922053388446525
10
-178.53071891387174
20
10.375000000000005
42
0.18267581368159774
10
-178.8614378277548
20
10.500000000000007
10
-182.13856217222252
20
10.500000000000005
42
0.1826758136816099
10
-182.46928108610558
20
10.374999999999979
42
-0.93922053388442306
10
-183.17499999998864
20
11.08071891388308
42
0.18267581368159072
10
-183.0499999999887
20
11.411437827766145
10
-183.04999999998867
20
12.699999999999978
42
0.41421356237309503
10
-183.54999999998867
20
13.199999999999978
10
-187.49999999997732
20
13.199999999999976
42
0.41421356237309503
10
-188.49999999997732
20
12.199999999999978
10
-188.49999999997726
20
-13.49999999999998
42
0.41421356237309503
10
-187.49999999997729
20
-14.499999999999979
10
-183.54999999998867
20
-14.499999999999979
42
0.41421356237309503
10
-183.04999999998867
20
-13.999999999999979
10
-183.04999999998867
20
-12.711437827766146
42
0.1826758136815898
10
-183.17499999998861
20
-12.38071891388306
42
-0.93922053388441928
10
-182.46928108610561
20
-11.675000000000002
42
0.18267581368161226
10
-182.13856217222252
20
-11.800000000000006
10
-178.8614378277548
20
-11.800000000000006
42
0.18267581368159691
10
-178.53071891387174
20
-11.675000000000018
42
-0.93922053388446947
10
-177.82499999998868
20
-12.380718913883078
42
0.18267581368159244
10
-177.94999999998865
20
-12.711437827766146
10
-177.94999999998865
20
-13.999999999999979
42
0.41421356237309503
10
-177.44999999998868
20
-14.499999999999979
10
-175.99999999997726
20
-14.499999999999977
42
0.41421356237309503
10
-174.99999999997726
20
-13.499999999999977
10
-174.99999999997726
20
12.199999999999978
42
0.41421356237309503
10
-175.99999999997726
20
13.199999999999976
0
LWPOLYLINE
5
101
100
AcDbEntity
8
0
100
AcDbPolyline
90
4
70
1
43
0.0
10
-177.94999999997728
20
-0.14999999999999969
10
-177.94999999997731
20
-1.1499999999999986
42
-0.99999999999999989
10
-183.0499999999773
20
-1.1500000000000012
10
-183.04999999997733
20
-0.15000000000000002
42
-0.99999999999999989
0
ENDSEC
0
SECTION
2
OBJECTS
0
DICTIONARY
5
C
100
AcDbDictionary
3
ACAD_GROUP
350
D
3
ACAD_MLINESTYLE
350
17
0
DICTIONARY
5
D
100
AcDbDictionary
0
DICTIONARY
5
1A
330
C
100
AcDbDictionary
0
DICTIONARY
5
17
100
AcDbDictionary
0
ENDSEC
0
EOF
