0
SECTION
2
HEADER
9
$INSUNITS
70
4
9
$ACADVER
1
AC1014
9
$HANDSEED
5
FFFF
0
ENDSEC
0
SECTION
2
TABLES
0
TABLE
2
VPORT
5
8
100
AcDbSymbolTable
0
ENDTAB
0
TABLE
2
LTYPE
5
5
100
AcDbSymbolTable
0
LTYPE
5
14
100
AcDbSymbolTableRecord
100
AcDbLinetypeTableRecord
2
BYBLOCK
70
0
0
LTYPE
5
15
100
AcDbSymbolTableRecord
100
AcDbLinetypeTableRecord
2
BYLAYER
70
0
0
LTYPE
5
16
100
AcDbSymbolTableRecord
100
AcDbLinetypeTableRecord
2
DASHED
70
0
3
Dashed __ __ __ __ __ __ __ __ __ __ __ __ __ _
72
65
73
2
40
0.75
49
0.5
74
0
49
-0.25
74
0
0
ENDTAB
0
TABLE
2
LAYER
5
2
100
AcDbSymbolTable
70
3
0
LAYER
5
50
100
AcDbSymbolTableRecord
100
AcDbLayerTableRecord
2
1
70
0
62
7
6
DASHED
0
LAYER
5
51
100
AcDbSymbolTableRecord
100
AcDbLayerTableRecord
2
0
70
0
62
7
6
CONTINUOUS
0
ENDTAB
0
TABLE
2
STYLE
5
3
100
AcDbSymbolTable
70
1
0
STYLE
5
11
100
AcDbSymbolTableRecord
100
AcDbTextStyleTableRecord
2
STANDARD
70
0
0
ENDTAB
0
TABLE
2
VIEW
5
6
100
AcDbSymbolTable
70
0
0
ENDTAB
0
TABLE
2
UCS
5
7
100
AcDbSymbolTable
70
0
0
ENDTAB
0
TABLE
2
APPID
5
9
100
AcDbSymbolTable
70
2
0
APPID
5
12
100
AcDbSymbolTableRecord
100
AcDbRegAppTableRecord
2
ACAD
70
0
0
ENDTAB
0
TABLE
2
DIMSTYLE
5
A
100
AcDbSymbolTable
70
1
0
ENDTAB
0
TABLE
2
BLOCK_RECORD
5
1
100
AcDbSymbolTable
70
1
0
BLOCK_RECORD
5
1F
100
AcDbSymbolTableRecord
100
AcDbBlockTableRecord
2
*MODEL_SPACE
0
BLOCK_RECORD
5
1B
100
AcDbSymbolTableRecord
100
AcDbBlockTableRecord
2
*PAPER_SPACE
0
ENDTAB
0
ENDSEC
0
SECTION
2
BLOCKS
0
BLOCK
5
20
100
AcDbEntity
100
AcDbBlockBegin
2
*MODEL_SPACE
0
ENDBLK
5
21
100
AcDbEntity
100
AcDbBlockEnd
0
BLOCK
5
1C
100
AcDbEntity
100
AcDbBlockBegin
2
*PAPER_SPACE
0
ENDBLK
5
1D
100
AcDbEntity
100
AcDbBlockEnd
0
ENDSEC
0
SECTION
2
ENTITIES
0
LWPOLYLINE
5
100
100
AcDbEntity
8
0
100
AcDbPolyline
90
6
70
1
43
0.0
10
138.00000000001259
20
9.9999999999998597
10
138.00000000001259
20
1.9999999999998588
10
133.50000000001256
20
1.9999999999998552
42
-0.41421356237309498
10
132.00000000001256
20
3.4999999999998583
10
132.00000000001256
20
8.4999999999998579
42
-0.41421356237309503
10
133.50000000001256
20
9.9999999999998579
0
LWPOLYLINE
5
101
100
AcDbEntity
8
0
100
AcDbPolyline
90
39
70
1
43
0.0
10
96.499999999997527
20
-10.888562172234042
42
0.18267581368158117
10
96.624999999997513
20
-11.219281086117089
42
-0.93922053388444482
10
95.91928108611441
20
-11.925000000000152
42
0.18267581368159774
10
95.588562172231349
20
-11.80000000000015
10
91.999999999997542
20
-11.800000000000153
42
0.41421356237309503
10
91.499999999997527
20
-12.300000000000153
10
91.499999999997527
20
-14.000000000000146
42
0.41421356237309503
10
91.999999999997542
20
-14.500000000000146
10
134.00000000001259
20
-14.500000000000144
10
134.00000000001259
20
-18.900000000000141
42
0.41421356237309503
10
134.50000000001259
20
-19.400000000000141
10
145.50000000001259
20
-19.400000000000141
42
0.41421356237309503
10
146.00000000001259
20
-18.900000000000141
10
146.00000000001259
20
-15.300000000000143
10
140.50000000001256
20
-15.300000000000139
10
140.50000000001259
20
0.49999999999986228
10
142.50000000001256
20
0.49999999999985956
42
0.41421356237309503
10
143.00000000001259
20
0.99999999999985967
10
143.00000000001259
20
10.999999999999861
10
146.00000000001259
20
10.999999999999861
10
146.00000000001259
20
18.299999999999859
42
0.41421356237309503
10
145.50000000001259
20
18.799999999999859
10
134.50000000001259
20
18.799999999999855
42
0.4142135623730937
10
134.00000000001259
20
18.299999999999855
10
134.00000000001256
20
13.199999999999854
10
91.999999999997542
20
13.199999999999841
42
0.41421356237309503
10
91.499999999997527
20
12.699999999999839
10
91.499999999997527
20
10.999999999999856
42
0.41421356237309503
10
91.999999999997542
20
10.499999999999856
10
95.588562172231491
20
10.499999999999858
42
0.18267581368160304
10
95.919281086114566
20
10.624999999999856
42
-0.93922053388445692
10
96.624999999997641
20
9.9192810861167811
42
0.18267581368158778
10
96.499999999997641
20
9.588562172233722
10
96.499999999997527
20
7.2999999999998515
10
122.09999999999752
20
7.2999999999998622
42
-0.41421356237309503
10
123.59999999999752
20
5.7999999999998586
10
123.59999999999752
20
-7.10000000000014
42
-0.41421356237309503
10
122.09999999999752
20
-8.60000000000014
10
96.499999999997527
20
-8.6000000000001489
0
CIRCLE
5
102
100
AcDbEntity
8
0
100
AcDbCircle
10
128.00000000001256
20
5.9999999999998561
30
-1.2612133559741778e-12
40
1.2500000000000004
210
-3.2059800226247683e-29
220
-3.322511256740234e-33
230
1
0
ENDSEC
0
SECTION
2
OBJECTS
0
DICTIONARY
5
C
100
AcDbDictionary
3
ACAD_GROUP
350
D
3
ACAD_MLINESTYLE
350
17
0
DICTIONARY
5
D
100
AcDbDictionary
0
DICTIONARY
5
1A
330
C
100
AcDbDictionary
0
DICTIONARY
5
17
100
AcDbDictionary
0
ENDSEC
0
EOF
