0
SECTION
2
HEADER
9
$INSUNITS
70
4
9
$ACADVER
1
AC1014
9
$HANDSEED
5
FFFF
0
ENDSEC
0
SECTION
2
TABLES
0
TABLE
2
VPORT
5
8
100
AcDbSymbolTable
0
ENDTAB
0
TABLE
2
LTYPE
5
5
100
AcDbSymbolTable
0
LTYPE
5
14
100
AcDbSymbolTableRecord
100
AcDbLinetypeTableRecord
2
BYBLOCK
70
0
0
LTYPE
5
15
100
AcDbSymbolTableRecord
100
AcDbLinetypeTableRecord
2
BYLAYER
70
0
0
LTYPE
5
16
100
AcDbSymbolTableRecord
100
AcDbLinetypeTableRecord
2
DASHED
70
0
3
Dashed __ __ __ __ __ __ __ __ __ __ __ __ __ _
72
65
73
2
40
0.75
49
0.5
74
0
49
-0.25
74
0
0
ENDTAB
0
TABLE
2
LAYER
5
2
100
AcDbSymbolTable
70
3
0
LAYER
5
50
100
AcDbSymbolTableRecord
100
AcDbLayerTableRecord
2
1
70
0
62
7
6
DASHED
0
LAYER
5
51
100
AcDbSymbolTableRecord
100
AcDbLayerTableRecord
2
0
70
0
62
7
6
CONTINUOUS
0
ENDTAB
0
TABLE
2
STYLE
5
3
100
AcDbSymbolTable
70
1
0
STYLE
5
11
100
AcDbSymbolTableRecord
100
AcDbTextStyleTableRecord
2
STANDARD
70
0
0
ENDTAB
0
TABLE
2
VIEW
5
6
100
AcDbSymbolTable
70
0
0
ENDTAB
0
TABLE
2
UCS
5
7
100
AcDbSymbolTable
70
0
0
ENDTAB
0
TABLE
2
APPID
5
9
100
AcDbSymbolTable
70
2
0
APPID
5
12
100
AcDbSymbolTableRecord
100
AcDbRegAppTableRecord
2
ACAD
70
0
0
ENDTAB
0
TABLE
2
DIMSTYLE
5
A
100
AcDbSymbolTable
70
1
0
ENDTAB
0
TABLE
2
BLOCK_RECORD
5
1
100
AcDbSymbolTable
70
1
0
BLOCK_RECORD
5
1F
100
AcDbSymbolTableRecord
100
AcDbBlockTableRecord
2
*MODEL_SPACE
0
BLOCK_RECORD
5
1B
100
AcDbSymbolTableRecord
100
AcDbBlockTableRecord
2
*PAPER_SPACE
0
ENDTAB
0
ENDSEC
0
SECTION
2
BLOCKS
0
BLOCK
5
20
100
AcDbEntity
100
AcDbBlockBegin
2
*MODEL_SPACE
0
ENDBLK
5
21
100
AcDbEntity
100
AcDbBlockEnd
0
BLOCK
5
1C
100
AcDbEntity
100
AcDbBlockBegin
2
*PAPER_SPACE
0
ENDBLK
5
1D
100
AcDbEntity
100
AcDbBlockEnd
0
ENDSEC
0
SECTION
2
ENTITIES
0
LWPOLYLINE
5
100
100
AcDbEntity
8
0
100
AcDbPolyline
90
12
70
1
43
0.0
10
91.499999999998607
20
-192.62131652886075
10
91.499999999998238
20
-205.37867584174151
42
0.19891236737966375
10
91.939339828218394
20
-206.43933601352137
10
94.060660171777926
20
-208.56065635708097
42
0.1989123673796605
10
95.121320343557727
20
-208.9999961853012
10
118.49999999999817
20
-208.99999618530188
42
0.41421356237310197
10
119.99999999999821
20
-207.49999618530188
10
119.99999999999869
20
-190.49999618530194
42
0.41421356237309503
10
118.49999999999872
20
-188.99999618530191
10
95.121320343558367
20
-188.99999618530126
42
0.19891236737965978
10
94.060660171778522
20
-189.4393360135214
10
91.93933982821882
20
-191.56065635708097
42
0.1989123673796544
0
LWPOLYLINE
5
101
100
AcDbEntity
8
0
100
AcDbPolyline
90
20
70
1
43
0.0
10
98.499999999998124
20
-196.44999618530176
42
0.4142135623732407
10
98.999999999998366
20
-195.94999618530176
10
98.999999999998352
20
-195.49999618530154
42
-0.41421356237309503
10
99.499999999998352
20
-194.99999618530154
10
111.99999999999835
20
-194.99999618530151
42
-0.41421356237309503
10
112.49999999999837
20
-195.49999618530151
10
112.49999999999837
20
-195.94999618530869
42
0.41421356237294937
10
112.99999999999812
20
-196.44999618530872
10
113.99999999999851
20
-196.44999618530179
42
-0.99999999999999989
10
113.99999999999837
20
-201.54999618530178
10
112.99999999999842
20
-201.54999618530172
42
0.41421356237310542
10
112.49999999999841
20
-202.04999618530172
10
112.49999999999842
20
-202.49999618530151
42
-0.41421356237309503
10
111.99999999999841
20
-202.99999618530151
10
99.499999999998437
20
-202.9999961853016
42
-0.41421356237310542
10
98.999999999998423
20
-202.4999961853016
10
98.999999999998423
20
-202.04999618530132
42
0.41421356237309503
10
98.499999999998408
20
-201.5499961853013
10
97.499999999997229
20
-201.54999618530132
42
-0.99999999999999989
10
97.499999999999645
20
-196.4499961853013
0
ENDSEC
0
SECTION
2
OBJECTS
0
DICTIONARY
5
C
100
AcDbDictionary
3
ACAD_GROUP
350
D
3
ACAD_MLINESTYLE
350
17
0
DICTIONARY
5
D
100
AcDbDictionary
0
DICTIONARY
5
1A
330
C
100
AcDbDictionary
0
DICTIONARY
5
17
100
AcDbDictionary
0
ENDSEC
0
EOF
