0
SECTION
2
HEADER
9
$INSUNITS
70
4
9
$ACADVER
1
AC1014
9
$HANDSEED
5
FFFF
0
ENDSEC
0
SECTION
2
TABLES
0
TABLE
2
VPORT
5
8
100
AcDbSymbolTable
0
ENDTAB
0
TABLE
2
LTYPE
5
5
100
AcDbSymbolTable
0
LTYPE
5
14
100
AcDbSymbolTableRecord
100
AcDbLinetypeTableRecord
2
BYBLOCK
70
0
0
LTYPE
5
15
100
AcDbSymbolTableRecord
100
AcDbLinetypeTableRecord
2
BYLAYER
70
0
0
LTYPE
5
16
100
AcDbSymbolTableRecord
100
AcDbLinetypeTableRecord
2
DASHED
70
0
3
Dashed __ __ __ __ __ __ __ __ __ __ __ __ __ _
72
65
73
2
40
0.75
49
0.5
74
0
49
-0.25
74
0
0
ENDTAB
0
TABLE
2
LAYER
5
2
100
AcDbSymbolTable
70
3
0
LAYER
5
50
100
AcDbSymbolTableRecord
100
AcDbLayerTableRecord
2
1
70
0
62
7
6
DASHED
0
LAYER
5
51
100
AcDbSymbolTableRecord
100
AcDbLayerTableRecord
2
0
70
0
62
7
6
CONTINUOUS
0
ENDTAB
0
TABLE
2
STYLE
5
3
100
AcDbSymbolTable
70
1
0
STYLE
5
11
100
AcDbSymbolTableRecord
100
AcDbTextStyleTableRecord
2
STANDARD
70
0
0
ENDTAB
0
TABLE
2
VIEW
5
6
100
AcDbSymbolTable
70
0
0
ENDTAB
0
TABLE
2
UCS
5
7
100
AcDbSymbolTable
70
0
0
ENDTAB
0
TABLE
2
APPID
5
9
100
AcDbSymbolTable
70
2
0
APPID
5
12
100
AcDbSymbolTableRecord
100
AcDbRegAppTableRecord
2
ACAD
70
0
0
ENDTAB
0
TABLE
2
DIMSTYLE
5
A
100
AcDbSymbolTable
70
1
0
ENDTAB
0
TABLE
2
BLOCK_RECORD
5
1
100
AcDbSymbolTable
70
1
0
BLOCK_RECORD
5
1F
100
AcDbSymbolTableRecord
100
AcDbBlockTableRecord
2
*MODEL_SPACE
0
BLOCK_RECORD
5
1B
100
AcDbSymbolTableRecord
100
AcDbBlockTableRecord
2
*PAPER_SPACE
0
ENDTAB
0
ENDSEC
0
SECTION
2
BLOCKS
0
BLOCK
5
20
100
AcDbEntity
100
AcDbBlockBegin
2
*MODEL_SPACE
0
ENDBLK
5
21
100
AcDbEntity
100
AcDbBlockEnd
0
BLOCK
5
1C
100
AcDbEntity
100
AcDbBlockBegin
2
*PAPER_SPACE
0
ENDBLK
5
1D
100
AcDbEntity
100
AcDbBlockEnd
0
ENDSEC
0
SECTION
2
ENTITIES
0
LWPOLYLINE
5
100
100
AcDbEntity
8
0
100
AcDbPolyline
90
40
70
1
43
0.0
10
-178.39999999060765
20
7.4497474683033893
10
-178.39999999060765
20
-22.449747468308487
42
0.19891236737965831
10
-177.96065846485362
20
-23.510405942553948
10
-175.91040763069603
20
-25.56066017177951
42
0.19891236737965201
10
-174.84974745891651
20
-25.999999999999559
10
-171.5
20
-25.999999999999993
42
0.41421356237309503
10
-170
20
-24.499999999999989
10
-170
20
-18.499999999999996
42
0.41421356237309503
10
-171.5
20
-16.999999999999996
10
-174.08856217223385
20
-16.999999999999957
42
0.18267581368160618
10
-174.41928108611694
20
-17.124999999999993
42
-0.93922053388446991
10
-175.12500000000003
20
-16.419281086116868
42
0.18267581368161143
10
-175
20
-16.088562172233782
10
-175
20
-13.933012701892068
42
0.18267581368150951
10
-175.12499999999989
20
-13.602293788009119
42
-0.18267581368150954
10
-175.24999999999977
20
-13.27157487412617
10
-175.25000000000006
20
-10.249999999999986
42
-0.58780165164169795
10
-174.48660865617867
20
-9.8249999999999638
42
0.13959913241685862
10
-174.22321731235738
20
-9.8999999999999702
10
-172.30000000000001
20
-9.8999999999999844
42
0.41421356237309503
10
-171.80000000000001
20
-9.3999999999999861
10
-171.80000000000001
20
-5.5999999999999783
42
0.41421356237309503
10
-172.30000000000001
20
-5.0999999999999801
10
-174.22321731235738
20
-5.0999999999999801
42
0.13959913241687161
10
-174.48660865617867
20
-5.1750000000000256
42
-0.58780165164168097
10
-175.25000000000006
20
-4.7499999999999787
10
-175.24999999999977
20
-1.9330127018920786
42
-0.18267581368151126
10
-175.12499999999989
20
-1.6022937880091259
42
0.1826758136815112
10
-175
20
-1.2715748741261734
10
-175
20
1.088562172233809
42
0.18267581368161487
10
-175.12500000000003
20
1.4192810861169078
42
-0.93922053388448912
10
-174.41928108611691
20
2.1250000000000124
42
0.18267581368159844
10
-174.08856217223385
20
2.0000000000000107
10
-171.5
20
2.0000000000000107
42
0.41421356237309503
10
-170
20
3.5000000000000142
10
-170
20
9.4999999999994422
42
0.41421356237309503
10
-171.5
20
10.999999999999446
10
-174.84974745891151
20
10.999999999999446
42
0.19891236737966453
10
-175.91041115927203
20
10.560663700360511
10
-177.96066016238746
20
8.5104076400832707
42
0.19891236737966569
0
CIRCLE
5
101
100
AcDbEntity
8
0
100
AcDbCircle
10
-173.40000000000001
20
-20.999999999999996
30
1.4654943925052066e-13
40
1.5499999999999936
210
-8.0786752265618056e-28
220
-3.4108680009182928e-29
230
1
0
CIRCLE
5
102
100
AcDbEntity
8
0
100
AcDbCircle
10
-173.40000000000001
20
5.9999999999999964
30
1.4654943925052066e-13
40
1.5499999999999936
210
-8.0786752265618056e-28
220
-3.4108680009182928e-29
230
1
0
ENDSEC
0
SECTION
2
OBJECTS
0
DICTIONARY
5
C
100
AcDbDictionary
3
ACAD_GROUP
350
D
3
ACAD_MLINESTYLE
350
17
0
DICTIONARY
5
D
100
AcDbDictionary
0
DICTIONARY
5
1A
330
C
100
AcDbDictionary
0
DICTIONARY
5
17
100
AcDbDictionary
0
ENDSEC
0
EOF
