0
SECTION
2
HEADER
9
$INSUNITS
70
4
9
$ACADVER
1
AC1014
9
$HANDSEED
5
FFFF
0
ENDSEC
0
SECTION
2
TABLES
0
TABLE
2
VPORT
5
8
100
AcDbSymbolTable
0
ENDTAB
0
TABLE
2
LTYPE
5
5
100
AcDbSymbolTable
0
LTYPE
5
14
100
AcDbSymbolTableRecord
100
AcDbLinetypeTableRecord
2
BYBLOCK
70
0
0
LTYPE
5
15
100
AcDbSymbolTableRecord
100
AcDbLinetypeTableRecord
2
BYLAYER
70
0
0
LTYPE
5
16
100
AcDbSymbolTableRecord
100
AcDbLinetypeTableRecord
2
DASHED
70
0
3
Dashed __ __ __ __ __ __ __ __ __ __ __ __ __ _
72
65
73
2
40
0.75
49
0.5
74
0
49
-0.25
74
0
0
ENDTAB
0
TABLE
2
LAYER
5
2
100
AcDbSymbolTable
70
3
0
LAYER
5
50
100
AcDbSymbolTableRecord
100
AcDbLayerTableRecord
2
1
70
0
62
7
6
DASHED
0
LAYER
5
51
100
AcDbSymbolTableRecord
100
AcDbLayerTableRecord
2
0
70
0
62
7
6
CONTINUOUS
0
ENDTAB
0
TABLE
2
STYLE
5
3
100
AcDbSymbolTable
70
1
0
STYLE
5
11
100
AcDbSymbolTableRecord
100
AcDbTextStyleTableRecord
2
STANDARD
70
0
0
ENDTAB
0
TABLE
2
VIEW
5
6
100
AcDbSymbolTable
70
0
0
ENDTAB
0
TABLE
2
UCS
5
7
100
AcDbSymbolTable
70
0
0
ENDTAB
0
TABLE
2
APPID
5
9
100
AcDbSymbolTable
70
2
0
APPID
5
12
100
AcDbSymbolTableRecord
100
AcDbRegAppTableRecord
2
ACAD
70
0
0
ENDTAB
0
TABLE
2
DIMSTYLE
5
A
100
AcDbSymbolTable
70
1
0
ENDTAB
0
TABLE
2
BLOCK_RECORD
5
1
100
AcDbSymbolTable
70
1
0
BLOCK_RECORD
5
1F
100
AcDbSymbolTableRecord
100
AcDbBlockTableRecord
2
*MODEL_SPACE
0
BLOCK_RECORD
5
1B
100
AcDbSymbolTableRecord
100
AcDbBlockTableRecord
2
*PAPER_SPACE
0
ENDTAB
0
ENDSEC
0
SECTION
2
BLOCKS
0
BLOCK
5
20
100
AcDbEntity
100
AcDbBlockBegin
2
*MODEL_SPACE
0
ENDBLK
5
21
100
AcDbEntity
100
AcDbBlockEnd
0
BLOCK
5
1C
100
AcDbEntity
100
AcDbBlockBegin
2
*PAPER_SPACE
0
ENDBLK
5
1D
100
AcDbEntity
100
AcDbBlockEnd
0
ENDSEC
0
SECTION
2
ENTITIES
0
LWPOLYLINE
5
100
100
AcDbEntity
8
0
100
AcDbPolyline
90
14
70
1
43
0.0
10
-137.59999999995796
20
-201.99999999999889
42
0.41421356237304302
10
-136.59999999995813
20
-202.99999999999892
10
-129.59999999993872
20
-203.00000000000006
42
0.41421356237285567
10
-128.59999999993858
20
-202.00000000000102
10
-128.59999999993704
20
-200.50000000000125
10
-132.59999999995188
20
-200.50000000000111
42
-0.99999999999999989
10
-133.59999999995182
20
-200.49999999999613
10
-133.59999999993414
20
-197.49999999999739
42
-0.99999999999999989
10
-132.59999999993411
20
-197.49999999999835
10
-128.59999999993406
20
-197.49999999999915
10
-128.59999999993255
20
-196.00000000000102
42
0.41421356237334478
10
-129.59999999993244
20
-195
10
-136.59999999995745
20
-194.99999999999886
42
0.41421356237313667
10
-137.59999999995759
20
-195.99999999999886
0
LWPOLYLINE
5
101
100
AcDbEntity
8
0
100
AcDbPolyline
90
25
70
1
43
0.0
10
-95.121320343554061
20
-208.99999999997729
42
0.1989123673787179
10
-94.060660171778068
20
-208.56066017176096
10
-91.93933982822152
20
-206.43933982821977
42
0.19891236738059595
10
-91.499999999997527
20
-205.37867965643611
10
-91.499999999997527
20
-173.49999999997726
42
0.41421356237309503
10
-92.999999999997542
20
-171.99999999997729
10
-138.25735931293067
20
-171.99999999997726
42
-0.19891236737961829
10
-140.37867965648996
20
-171.12132034353721
10
-154.06066017181132
20
-157.43933982822003
42
0.19891236737961665
10
-155.12132034359095
20
-157
10
-164.60710678118585
20
-157
42
-0.19891236737965362
10
-166.72842712474545
20
-156.12132034355969
10
-171.91040764008508
20
-150.93933982822017
42
0.19891236737965362
10
-172.97106781186488
20
-150.5
10
-201.37867965644034
20
-150.5
42
0.1989123673796602
10
-202.43933982822017
20
-150.93934135409714
10
-204.56066017177983
20
-153.06066169765674
42
0.19891236737965584
10
-204.99999999999997
20
-154.12132186943657
10
-204.99999999999997
20
-183.49999999999997
42
0.41421356237309503
10
-203.49999999999997
20
-185
10
-185.00000000000119
20
-185
10
-185.00000000000119
20
-202.87867965641763
42
0.19891236737965801
10
-184.56066017178102
20
-203.93933982819746
10
-179.93933982822136
20
-208.56066017175709
42
0.19891236737965801
10
-178.87867965644153
20
-208.99999999997729
0
LWPOLYLINE
5
102
100
AcDbEntity
8
0
100
AcDbPolyline
90
6
70
1
43
0.0
10
-148.70000000001258
20
-177.69999999998873
10
-114.00000000001258
20
-177.69999999998873
10
-114.00000000001258
20
-182.99999999998872
10
-148.70000000001258
20
-182.99999999998872
42
-0.41421356237309503
10
-151.00000000001259
20
-180.69999999998871
10
-151.00000000001256
20
-179.99999999998869
42
-0.41421356237309503
0
LWPOLYLINE
5
103
100
AcDbEntity
8
0
100
AcDbPolyline
90
16
70
1
43
0.0
10
-100.6885621722314
20
-185.99999999998872
42
0.18267581368159244
10
-101.01928108611445
20
-186.12499999998872
42
-0.93922053388450411
10
-101.72499999999755
20
-185.41928108610563
42
0.18267581368159844
10
-101.59999999999754
20
-185.08856217222257
10
-101.59999999999754
20
-175.91143782774344
42
0.18267581368160615
10
-101.72499999999756
20
-175.58071891386035
42
-0.9392205338844678
10
-101.01928108611446
20
-174.87499999997726
42
0.18267581368160454
10
-100.6885621722314
20
-174.99999999997726
10
-97.411437827763677
20
-174.99999999997726
42
0.18267581368159244
10
-97.080718913880602
20
-174.87499999997732
42
-0.93922053388446614
10
-96.374999999997542
20
-175.58071891386035
42
0.18267581368160615
10
-96.499999999997527
20
-175.91143782774344
10
-96.499999999997527
20
-185.08856217222257
42
0.18267581368159844
10
-96.374999999997542
20
-185.41928108610566
42
-0.93922053388445736
10
-97.080718913880602
20
-186.12499999998875
42
0.18267581368160454
10
-97.411437827763677
20
-185.99999999998872
0
LWPOLYLINE
5
104
100
AcDbEntity
8
0
100
AcDbPolyline
90
22
70
1
43
0.0
10
-196.67213123687918
20
-174.57477850067414
42
0.21723272289003548
10
-196.50000013624037
20
-174.19728421206833
10
-196.50000000000207
20
-172.25000000002353
42
0.41421356237309503
10
-197.00000000000205
20
-171.75000000002356
10
-198.00000000000267
20
-171.75000000002353
42
-0.4142135623730534
10
-199.00000000000264
20
-170.75000000002362
10
-199.00000000000324
20
-163.75000000000423
42
-0.41421356237285567
10
-198.00000000000421
20
-162.75000000000415
10
-196.50000000000443
20
-162.75000000000273
10
-196.50000000000335
20
-166.75000000001955
42
0.99999999999999989
10
-196.49999999999966
20
-167.75000000001552
10
-193.49999999999883
20
-167.75000000000233
42
0.99999999999999989
10
-193.50000000000182
20
-166.7499999999977
10
-193.50000000000233
20
-162.74999999999994
10
-192.00000000000415
20
-162.74999999999858
42
-0.41421356237334478
10
-191.00000000000321
20
-163.74999999999852
10
-191.00000000000261
20
-170.7500000000235
42
-0.41421356237312623
10
-192.00000000000267
20
-171.75000000002359
10
-192.99999999999895
20
-171.75000000002359
42
0.41421356237313667
10
-193.49999999999892
20
-172.25000000002365
10
-193.49999999999878
20
-174.19728421206642
42
0.21723272289025652
10
-193.32786876312187
20
-174.57477850067318
42
-2.6763578939642048
0
CIRCLE
5
105
100
AcDbEntity
8
0
100
AcDbCircle
10
-110.50000000001259
20
-180.49999999998863
30
6.6613381477509392e-15
40
1.25
210
1.1339875512552045e-30
220
1.1241862191824582e-44
230
1
0
CIRCLE
5
106
100
AcDbEntity
8
0
100
AcDbCircle
10
-162.50000000001256
20
-187.99999999998931
30
6.6613381477509392e-15
40
11.050000000000002
210
1.1339875512552045e-30
220
1.1241862191824582e-44
230
1
0
CIRCLE
5
107
100
AcDbEntity
8
0
100
AcDbCircle
10
-178.00000000001259
20
-203.49999999998886
30
6.6613381477509392e-15
40
1.5500000000000025
210
1.1339875512552045e-30
220
1.1241862191824582e-44
230
1
0
CIRCLE
5
108
100
AcDbEntity
8
0
100
AcDbCircle
10
-147.00000000001302
20
-203.49999999998931
30
6.6613381477509392e-15
40
1.549999999999998
210
1.1339875512552045e-30
220
1.1241862191824582e-44
230
1
0
CIRCLE
5
109
100
AcDbEntity
8
0
100
AcDbCircle
10
-147.00000000001262
20
-172.49999999998977
30
6.6613381477509392e-15
40
1.549999999999998
210
1.1339875512552045e-30
220
1.1241862191824582e-44
230
1
0
CIRCLE
5
110
100
AcDbEntity
8
0
100
AcDbCircle
10
-178.00000000001211
20
-172.49999999998934
30
6.6613381477509392e-15
40
1.5500000000000025
210
1.1339875512552045e-30
220
1.1241862191824582e-44
230
1
0
CIRCLE
5
111
100
AcDbEntity
8
0
100
AcDbCircle
10
-98.24999999993274
20
-198.99999999999778
30
5.2891024893142458e-12
40
2.5499999999999989
210
1.1339875512552045e-30
220
1.1241862191824582e-44
230
1
0
CIRCLE
5
112
100
AcDbEntity
8
0
100
AcDbCircle
10
-113.74999999993281
20
-198.99999999999778
30
5.2913229353634961e-12
40
2.5499999999999998
210
1.1339875512552045e-30
220
1.1241862191824582e-44
230
1
0
CIRCLE
5
113
100
AcDbEntity
8
0
100
AcDbCircle
10
-162.50000000001256
20
-167.25999999999914
30
6.6613381477509392e-15
40
6.5150000000000041
210
1.1339875512552045e-30
220
1.1241862191824582e-44
230
1
0
CIRCLE
5
114
100
AcDbEntity
8
0
100
AcDbCircle
10
-171.1343731677708
20
-172.49999999998934
30
6.6613381477509392e-15
40
1.2500000000000089
210
1.1339875512552045e-30
220
1.1241862191824582e-44
230
1
0
CIRCLE
5
115
100
AcDbEntity
8
0
100
AcDbCircle
10
-153.86562683225438
20
-162.02000000000893
30
6.6613381477509392e-15
40
1.2500000000000089
210
1.1339875512552045e-30
220
1.1241862191824582e-44
230
1
0
CIRCLE
5
116
100
AcDbEntity
8
0
100
AcDbCircle
10
-194.99999999999929
20
-157.99999999999977
30
-2.2204460492503131e-15
40
2.5499999999999901
210
-2.3348698237724937e-16
220
-1.296113118926245e-32
230
1
0
ENDSEC
0
SECTION
2
OBJECTS
0
DICTIONARY
5
C
100
AcDbDictionary
3
ACAD_GROUP
350
D
3
ACAD_MLINESTYLE
350
17
0
DICTIONARY
5
D
100
AcDbDictionary
0
DICTIONARY
5
1A
330
C
100
AcDbDictionary
0
DICTIONARY
5
17
100
AcDbDictionary
0
ENDSEC
0
EOF
