0
SECTION
2
HEADER
9
$INSUNITS
70
4
9
$ACADVER
1
AC1014
9
$HANDSEED
5
FFFF
0
ENDSEC
0
SECTION
2
TABLES
0
TABLE
2
VPORT
5
8
100
AcDbSymbolTable
0
ENDTAB
0
TABLE
2
LTYPE
5
5
100
AcDbSymbolTable
0
LTYPE
5
14
100
AcDbSymbolTableRecord
100
AcDbLinetypeTableRecord
2
BYBLOCK
70
0
0
LTYPE
5
15
100
AcDbSymbolTableRecord
100
AcDbLinetypeTableRecord
2
BYLAYER
70
0
0
LTYPE
5
16
100
AcDbSymbolTableRecord
100
AcDbLinetypeTableRecord
2
DASHED
70
0
3
Dashed __ __ __ __ __ __ __ __ __ __ __ __ __ _
72
65
73
2
40
0.75
49
0.5
74
0
49
-0.25
74
0
0
ENDTAB
0
TABLE
2
LAYER
5
2
100
AcDbSymbolTable
70
3
0
LAYER
5
50
100
AcDbSymbolTableRecord
100
AcDbLayerTableRecord
2
1
70
0
62
7
6
DASHED
0
LAYER
5
51
100
AcDbSymbolTableRecord
100
AcDbLayerTableRecord
2
0
70
0
62
7
6
CONTINUOUS
0
ENDTAB
0
TABLE
2
STYLE
5
3
100
AcDbSymbolTable
70
1
0
STYLE
5
11
100
AcDbSymbolTableRecord
100
AcDbTextStyleTableRecord
2
STANDARD
70
0
0
ENDTAB
0
TABLE
2
VIEW
5
6
100
AcDbSymbolTable
70
0
0
ENDTAB
0
TABLE
2
UCS
5
7
100
AcDbSymbolTable
70
0
0
ENDTAB
0
TABLE
2
APPID
5
9
100
AcDbSymbolTable
70
2
0
APPID
5
12
100
AcDbSymbolTableRecord
100
AcDbRegAppTableRecord
2
ACAD
70
0
0
ENDTAB
0
TABLE
2
DIMSTYLE
5
A
100
AcDbSymbolTable
70
1
0
ENDTAB
0
TABLE
2
BLOCK_RECORD
5
1
100
AcDbSymbolTable
70
1
0
BLOCK_RECORD
5
1F
100
AcDbSymbolTableRecord
100
AcDbBlockTableRecord
2
*MODEL_SPACE
0
BLOCK_RECORD
5
1B
100
AcDbSymbolTableRecord
100
AcDbBlockTableRecord
2
*PAPER_SPACE
0
ENDTAB
0
ENDSEC
0
SECTION
2
BLOCKS
0
BLOCK
5
20
100
AcDbEntity
100
AcDbBlockBegin
2
*MODEL_SPACE
0
ENDBLK
5
21
100
AcDbEntity
100
AcDbBlockEnd
0
BLOCK
5
1C
100
AcDbEntity
100
AcDbBlockBegin
2
*PAPER_SPACE
0
ENDBLK
5
1D
100
AcDbEntity
100
AcDbBlockEnd
0
ENDSEC
0
SECTION
2
ENTITIES
0
LWPOLYLINE
5
100
100
AcDbEntity
8
0
100
AcDbPolyline
90
30
70
1
43
0.0
10
185.91143782776837
20
185.0000000000008
42
0.18267581368174782
10
185.58071891388505
20
184.87500000000063
42
-0.93922053388488236
10
184.87500000000185
20
185.58071891388354
42
0.18267581368167013
10
185.00000000000193
20
185.91143782776672
10
185.00000000000193
20
199.24264068711517
42
0.19891236737965801
10
184.56066017178173
20
200.30330085889494
10
181.30330085889619
20
203.56066017178054
42
0.19891236737966234
10
180.24264068711634
20
204.00000000000074
10
167.83365081492948
20
204.00000000000074
42
0.19891236737966234
10
166.77299064314965
20
203.56066017178054
10
161.92933982923273
20
198.71700935786356
42
0.19891236737965801
10
161.49000000101256
20
197.65634918608373
10
161.49000000101256
20
183.5436508138757
42
0.19891236737965801
10
161.92933982923276
20
182.4829906420959
10
163.87132034457221
20
180.54101012675642
42
-0.19891236737965362
10
164.75000000101255
20
178.41968978319682
10
164.75000000101255
20
158.72106781085446
42
0.19891236737965801
10
165.18933982923272
20
157.66040763907466
10
169.91040764008616
20
152.93933982822102
42
0.19891236737966672
10
170.97106781186602
20
152.50000000000082
10
184.75735931288128
20
152.50000000000082
42
-0.19891236737966214
10
186.87867965644097
20
151.62132034356046
10
187.56066017178051
20
150.93933982822091
42
0.19891236737966234
10
188.62132034356034
20
150.50000000000071
10
201.37867965644105
20
150.50000000000071
42
0.19891236737965801
10
202.43933982822085
20
150.93933982822091
10
204.56066017178048
20
153.06066017178054
42
0.19891236737965362
10
205.00000000000068
20
154.12132034356034
10
205.00000000000068
20
183.50000000000077
42
0.41421356237309503
10
203.50000000000065
20
185.0000000000008
0
CIRCLE
5
101
100
AcDbEntity
8
0
100
AcDbCircle
10
-195.00000000000071
20
158.0000000000008
30
2.2204460492507359e-15
40
2.5500001362383173
210
8.7006712839121919e-31
220
1.6042996436745682e-30
230
-1
0
CIRCLE
5
102
100
AcDbEntity
8
0
100
AcDbCircle
10
-171.49000000101253
20
200.1999999999797
30
1.2825157032013949e-27
40
1.25
210
-1.600263008021822e-45
220
6.4061723436639611e-30
230
-1
0
CIRCLE
5
103
100
AcDbEntity
8
0
100
AcDbCircle
10
-171.49000000101253
20
180.99999999997976
30
1.1595171942030472e-27
40
1.25
210
-1.600263008021822e-45
220
6.4061723436639611e-30
230
-1
0
CIRCLE
5
104
100
AcDbEntity
8
0
100
AcDbCircle
10
-179.00000000000199
20
199.50000000000074
30
-2.2204460492490351e-15
40
1.5500000000000003
210
-1.600263008021822e-45
220
6.4061723436639611e-30
230
-1
0
CIRCLE
5
105
100
AcDbEntity
8
0
100
AcDbCircle
10
-171.49000000101253
20
190.59999999997973
30
-2.2204460492490919e-15
40
6.5149999999999952
210
-1.600263008021822e-45
220
6.4061723436639611e-30
230
-1
0
CIRCLE
5
106
100
AcDbEntity
8
0
100
AcDbCircle
10
-175.740000000457
20
174.60000000001247
30
-2.2204460492491945e-15
40
1.5500000000000025
210
-1.600263008021822e-45
220
6.4061723436639611e-30
230
-1
0
CIRCLE
5
107
100
AcDbEntity
8
0
100
AcDbCircle
10
-195.00000000000068
20
176.5000000000008
30
-6.6613381477558294e-15
40
2.5499999999999989
210
6.9200916804987794e-45
220
-2.7702508723257208e-29
230
-1
0
ENDSEC
0
SECTION
2
OBJECTS
0
DICTIONARY
5
C
100
AcDbDictionary
3
ACAD_GROUP
350
D
3
ACAD_MLINESTYLE
350
17
0
DICTIONARY
5
D
100
AcDbDictionary
0
DICTIONARY
5
1A
330
C
100
AcDbDictionary
0
DICTIONARY
5
17
100
AcDbDictionary
0
ENDSEC
0
EOF
