0
SECTION
2
HEADER
9
$INSUNITS
70
4
9
$ACADVER
1
AC1014
9
$HANDSEED
5
FFFF
0
ENDSEC
0
SECTION
2
TABLES
0
TABLE
2
VPORT
5
8
100
AcDbSymbolTable
0
ENDTAB
0
TABLE
2
LTYPE
5
5
100
AcDbSymbolTable
0
LTYPE
5
14
100
AcDbSymbolTableRecord
100
AcDbLinetypeTableRecord
2
BYBLOCK
70
0
0
LTYPE
5
15
100
AcDbSymbolTableRecord
100
AcDbLinetypeTableRecord
2
BYLAYER
70
0
0
LTYPE
5
16
100
AcDbSymbolTableRecord
100
AcDbLinetypeTableRecord
2
DASHED
70
0
3
Dashed __ __ __ __ __ __ __ __ __ __ __ __ __ _
72
65
73
2
40
0.75
49
0.5
74
0
49
-0.25
74
0
0
ENDTAB
0
TABLE
2
LAYER
5
2
100
AcDbSymbolTable
70
3
0
LAYER
5
50
100
AcDbSymbolTableRecord
100
AcDbLayerTableRecord
2
1
70
0
62
7
6
DASHED
0
LAYER
5
51
100
AcDbSymbolTableRecord
100
AcDbLayerTableRecord
2
0
70
0
62
7
6
CONTINUOUS
0
ENDTAB
0
TABLE
2
STYLE
5
3
100
AcDbSymbolTable
70
1
0
STYLE
5
11
100
AcDbSymbolTableRecord
100
AcDbTextStyleTableRecord
2
STANDARD
70
0
0
ENDTAB
0
TABLE
2
VIEW
5
6
100
AcDbSymbolTable
70
0
0
ENDTAB
0
TABLE
2
UCS
5
7
100
AcDbSymbolTable
70
0
0
ENDTAB
0
TABLE
2
APPID
5
9
100
AcDbSymbolTable
70
2
0
APPID
5
12
100
AcDbSymbolTableRecord
100
AcDbRegAppTableRecord
2
ACAD
70
0
0
ENDTAB
0
TABLE
2
DIMSTYLE
5
A
100
AcDbSymbolTable
70
1
0
ENDTAB
0
TABLE
2
BLOCK_RECORD
5
1
100
AcDbSymbolTable
70
1
0
BLOCK_RECORD
5
1F
100
AcDbSymbolTableRecord
100
AcDbBlockTableRecord
2
*MODEL_SPACE
0
BLOCK_RECORD
5
1B
100
AcDbSymbolTableRecord
100
AcDbBlockTableRecord
2
*PAPER_SPACE
0
ENDTAB
0
ENDSEC
0
SECTION
2
BLOCKS
0
BLOCK
5
20
100
AcDbEntity
100
AcDbBlockBegin
2
*MODEL_SPACE
0
ENDBLK
5
21
100
AcDbEntity
100
AcDbBlockEnd
0
BLOCK
5
1C
100
AcDbEntity
100
AcDbBlockBegin
2
*PAPER_SPACE
0
ENDBLK
5
1D
100
AcDbEntity
100
AcDbBlockEnd
0
ENDSEC
0
SECTION
2
ENTITIES
0
LWPOLYLINE
5
100
100
AcDbEntity
8
0
100
AcDbPolyline
90
34
70
1
43
0.0
10
-185.00000000000193
20
185.9114378277668
42
0.18267581368174787
10
-184.87500000000171
20
185.58071891388352
42
-0.939220533885475
10
-185.58071891388528
20
184.87500000000082
42
0.1826758136820085
10
-185.91143782776896
20
185.00000000000136
10
-203.50000000000065
20
185.00000000000136
42
0.41421356237309503
10
-205.00000000000063
20
183.50000000000136
10
-205.00000000000063
20
154.121320343561
42
0.19891236737966017
10
-204.56066017178046
20
153.06066017178119
10
-202.43933982822082
20
150.93933982822153
42
0.19891236737966234
10
-201.37867965644097
20
150.50000000000136
10
-188.62132034356028
20
150.50000000000134
42
0.1989123673796602
10
-187.56066017178046
20
150.93933982822153
10
-186.87867965644091
20
151.62132034356108
42
-0.19891236737965914
10
-184.75735931288128
20
152.50000000000142
10
-170.97106781186599
20
152.50000000000142
42
0.19891236737966234
10
-169.91040764008616
20
152.93933982822159
10
-159.2284271247679
20
163.62132034354022
42
-0.1989123673796685
10
-157.10710678120816
20
164.49999999998062
10
-155.76471862680228
20
164.49999999998062
42
0.19891236737966203
10
-154.70405845502242
20
164.93933982820079
10
-153.52207793966201
20
166.12132034356111
42
-0.19891236737965845
10
-151.40075759610238
20
167.00000000000148
10
-146.12132034364933
20
167.00000000000145
42
0.19891236737966017
10
-145.0606601718695
20
167.43933982822168
10
-141.9393398283099
20
170.56066017178125
42
0.1989123673796602
10
-141.5000000000897
20
171.62132034356108
10
-141.50000000008973
20
204.37867965641641
42
0.1989123673796602
10
-141.93933982830993
20
205.43933982819624
10
-145.06066017186956
20
208.56066017175584
42
0.19891236737966017
10
-146.12132034364936
20
208.99999999997604
10
-178.8786796564423
20
208.99999999997604
42
0.19891236737965801
10
-179.9393398282221
20
208.56066017175584
10
-184.56066017178173
20
203.93933982819624
42
0.19891236737965801
10
-185.00000000000193
20
202.87867965641647
0
LWPOLYLINE
5
101
100
AcDbEntity
8
0
100
AcDbPolyline
90
26
70
1
43
0.0
10
-193.32786885245889
20
174.57477860353225
42
0.21723272289025652
10
-193.49999999999977
20
174.19728421206781
10
-193.49999999999991
20
172.25000000002501
42
0.41421356237313667
10
-192.99999999999989
20
171.75000000002498
10
-192.00000000000361
20
171.75000000002495
42
-0.41421356237312623
10
-191.00000000000358
20
170.75000000002493
10
-191.00000000000406
20
163.74999999999994
42
-0.41421356237334478
10
-192.000000000005
20
162.75
10
-193.00000000000352
20
162.75000000000094
42
-0.41421356237286611
10
-193.50000000000307
20
163.25000000000097
10
-193.50000000000276
20
166.3839745962141
42
-0.2679491924315936
10
-193.2500000000019
20
166.81698729810671
42
0.76732698797770871
10
-193.49999999999972
20
167.75000000000372
10
-196.50000000000057
20
167.75000000001882
42
0.76732698797976784
10
-196.75000000000318
20
166.81698729812908
42
-0.26794919243047982
10
-196.50000000000432
20
166.38397459623741
10
-196.50000000000514
20
163.25000000000443
42
-0.41421356237330315
10
-197.0000000000056
20
162.75000000000455
10
-198.000000000005
20
162.75000000000549
42
-0.41421356237284529
10
-199.00000000000406
20
163.75000000000554
10
-199.00000000000358
20
170.7500000000249
42
-0.4142135623730534
10
-198.00000000000364
20
171.75000000002484
10
-197.00000000000301
20
171.75000000002484
42
0.41421356237309503
10
-196.50000000000304
20
172.25000000002484
10
-196.50000000000307
20
174.19728421206966
42
0.21723272289003548
10
-196.67213114754358
20
174.57477860353384
42
-2.6763578939639818
0
CIRCLE
5
102
100
AcDbEntity
8
0
100
AcDbCircle
10
-162.50000000006878
20
187.9999999999805
30
4.4408920985006262e-15
40
11.050000000000002
210
-1.4001784375185949e-60
220
-5.6051938572992533e-45
230
1
0
CIRCLE
5
103
100
AcDbEntity
8
0
100
AcDbCircle
10
-147.00000000006881
20
203.49999999999267
30
4.4408920985006262e-15
40
1.549999999999998
210
-1.4001784375185949e-60
220
-5.6051938572992533e-45
230
1
0
CIRCLE
5
104
100
AcDbEntity
8
0
100
AcDbCircle
10
-178.00000000008089
20
203.49999999998045
30
4.4408920985006262e-15
40
1.5500000000000025
210
-1.4001784375185949e-60
220
-5.6051938572992533e-45
230
1
0
CIRCLE
5
105
100
AcDbEntity
8
0
100
AcDbCircle
10
-147.00000000005659
20
172.49999999998053
30
4.4408920985006262e-15
40
1.549999999999998
210
-1.4001784375185949e-60
220
-5.6051938572992533e-45
230
1
0
CIRCLE
5
106
100
AcDbEntity
8
0
100
AcDbCircle
10
-158.25000000104077
20
171.99999999998059
30
4.4408920985006262e-15
40
1.549999999999998
210
-1.4001784375185949e-60
220
-5.6051938572992533e-45
230
1
0
CIRCLE
5
107
100
AcDbEntity
8
0
100
AcDbCircle
10
-178.00000000006872
20
172.49999999996831
30
4.4408920985006262e-15
40
1.5500000000000025
210
-1.4001784375185949e-60
220
-5.6051938572992533e-45
230
1
0
CIRCLE
5
108
100
AcDbEntity
8
0
100
AcDbCircle
10
-147.00000000008922
20
187.9999999999763
30
4.4408920985006262e-15
40
1.5500000000000014
210
2.2071863412372788e-47
220
-5.6051938572992533e-45
230
1
0
CIRCLE
5
109
100
AcDbEntity
8
0
100
AcDbCircle
10
-195.00000000000003
20
158.00000000000114
30
0
40
2.5499999999999901
210
-1.1102230246251345e-16
220
-1.6578404961285046e-30
230
1
0
ENDSEC
0
SECTION
2
OBJECTS
0
DICTIONARY
5
C
100
AcDbDictionary
3
ACAD_GROUP
350
D
3
ACAD_MLINESTYLE
350
17
0
DICTIONARY
5
D
100
AcDbDictionary
0
DICTIONARY
5
1A
330
C
100
AcDbDictionary
0
DICTIONARY
5
17
100
AcDbDictionary
0
ENDSEC
0
EOF
