0
SECTION
2
HEADER
9
$INSUNITS
70
4
9
$ACADVER
1
AC1014
9
$HANDSEED
5
FFFF
0
ENDSEC
0
SECTION
2
TABLES
0
TABLE
2
VPORT
5
8
100
AcDbSymbolTable
0
ENDTAB
0
TABLE
2
LTYPE
5
5
100
AcDbSymbolTable
0
LTYPE
5
14
100
AcDbSymbolTableRecord
100
AcDbLinetypeTableRecord
2
BYBLOCK
70
0
0
LTYPE
5
15
100
AcDbSymbolTableRecord
100
AcDbLinetypeTableRecord
2
BYLAYER
70
0
0
LTYPE
5
16
100
AcDbSymbolTableRecord
100
AcDbLinetypeTableRecord
2
DASHED
70
0
3
Dashed __ __ __ __ __ __ __ __ __ __ __ __ __ _
72
65
73
2
40
0.75
49
0.5
74
0
49
-0.25
74
0
0
ENDTAB
0
TABLE
2
LAYER
5
2
100
AcDbSymbolTable
70
3
0
LAYER
5
50
100
AcDbSymbolTableRecord
100
AcDbLayerTableRecord
2
1
70
0
62
7
6
DASHED
0
LAYER
5
51
100
AcDbSymbolTableRecord
100
AcDbLayerTableRecord
2
0
70
0
62
7
6
CONTINUOUS
0
ENDTAB
0
TABLE
2
STYLE
5
3
100
AcDbSymbolTable
70
1
0
STYLE
5
11
100
AcDbSymbolTableRecord
100
AcDbTextStyleTableRecord
2
STANDARD
70
0
0
ENDTAB
0
TABLE
2
VIEW
5
6
100
AcDbSymbolTable
70
0
0
ENDTAB
0
TABLE
2
UCS
5
7
100
AcDbSymbolTable
70
0
0
ENDTAB
0
TABLE
2
APPID
5
9
100
AcDbSymbolTable
70
2
0
APPID
5
12
100
AcDbSymbolTableRecord
100
AcDbRegAppTableRecord
2
ACAD
70
0
0
ENDTAB
0
TABLE
2
DIMSTYLE
5
A
100
AcDbSymbolTable
70
1
0
ENDTAB
0
TABLE
2
BLOCK_RECORD
5
1
100
AcDbSymbolTable
70
1
0
BLOCK_RECORD
5
1F
100
AcDbSymbolTableRecord
100
AcDbBlockTableRecord
2
*MODEL_SPACE
0
BLOCK_RECORD
5
1B
100
AcDbSymbolTableRecord
100
AcDbBlockTableRecord
2
*PAPER_SPACE
0
ENDTAB
0
ENDSEC
0
SECTION
2
BLOCKS
0
BLOCK
5
20
100
AcDbEntity
100
AcDbBlockBegin
2
*MODEL_SPACE
0
ENDBLK
5
21
100
AcDbEntity
100
AcDbBlockEnd
0
BLOCK
5
1C
100
AcDbEntity
100
AcDbBlockBegin
2
*PAPER_SPACE
0
ENDBLK
5
1D
100
AcDbEntity
100
AcDbBlockEnd
0
ENDSEC
0
SECTION
2
ENTITIES
0
LWPOLYLINE
5
100
100
AcDbEntity
8
0
100
AcDbPolyline
90
27
70
1
43
0.0
10
187.56066017177977
20
150.93933982822006
42
0.19891236737965584
10
188.6213203435596
20
150.49999999999989
10
201.37867965644034
20
150.49999999999989
42
0.19891236737965801
10
202.43933982822017
20
150.93933982822006
10
204.56066017177983
20
153.06066017177972
42
0.19891236737965362
10
205
20
154.12132034355952
10
205
20
183.5
42
0.41421356237309503
10
203.49999999999997
20
185
10
185.00000000000119
20
185
10
185.00000000000117
20
199.2426406871144
42
0.19891236737966234
10
184.560660171781
20
200.30330085889426
10
181.3033008588954
20
203.56066017177983
42
0.19891236737965362
10
180.2426406871156
20
204.00000000000003
10
167.83365081492866
20
204.00000000000003
42
0.19891236737965362
10
166.77299064314889
20
203.56066017177983
10
161.92933982923194
20
198.71700935786282
42
0.19891236737965801
10
161.49000000101177
20
197.65634918608302
10
161.49000000101177
20
183.54365081387496
42
0.19891236737966234
10
161.92933982923194
20
182.4829906420951
10
163.87132034457139
20
180.54101012675568
42
-0.19891236737965581
10
164.75000000101173
20
178.41968978319602
10
164.75000000101173
20
158.72106781085367
42
0.19891236737965362
10
165.1893398292319
20
157.66040763907387
10
169.9104076400854
20
152.93933982822017
42
0.19891236737966234
10
170.97106781186523
20
152.5
10
184.75735931288054
20
152.5
42
-0.19891236737966111
10
186.8786796564402
20
151.62132034355963
0
CIRCLE
5
101
100
AcDbEntity
8
0
100
AcDbCircle
10
-194.99999999999997
20
176.50000000000003
30
-4.4408920985057372e-15
40
2.5499999999999989
210
-1.1339875512551975e-30
220
-2.7702508723257258e-29
230
-1
0
CIRCLE
5
102
100
AcDbEntity
8
0
100
AcDbCircle
10
-175.74000000045623
20
174.6000000000117
30
9.1923071894569731e-28
40
1.5500000000000025
210
-1.133987551255206e-30
220
6.4061723436639723e-30
230
-1
0
CIRCLE
5
103
100
AcDbEntity
8
0
100
AcDbCircle
10
-171.49000000101177
20
190.59999999997899
30
1.0265489235363161e-27
40
6.5149999999999952
210
-1.133987551255206e-30
220
6.4061723436639723e-30
230
-1
0
CIRCLE
5
104
100
AcDbEntity
8
0
100
AcDbCircle
10
-179.00000000000119
20
199.50000000000003
30
1.0750476108862792e-27
40
1.5500000000000003
210
-1.133987551255206e-30
220
6.4061723436639723e-30
230
-1
0
CIRCLE
5
105
100
AcDbEntity
8
0
100
AcDbCircle
10
-171.49000000101177
20
180.99999999997897
30
2.2204460492512779e-15
40
1.25
210
-1.133987551255206e-30
220
6.4061723436639723e-30
230
-1
0
CIRCLE
5
106
100
AcDbEntity
8
0
100
AcDbCircle
10
-171.49000000101177
20
200.19999999997896
30
2.2204460492514013e-15
40
1.25
210
-1.133987551255206e-30
220
6.4061723436639723e-30
230
-1
0
CIRCLE
5
107
100
AcDbEntity
8
0
100
AcDbCircle
10
-194.99999999999997
20
157.99999999999997
30
4.4408920985008281e-15
40
2.5500001362383173
210
-2.6392042286398318e-31
220
1.6042996436745703e-30
230
-1
0
ENDSEC
0
SECTION
2
OBJECTS
0
DICTIONARY
5
C
100
AcDbDictionary
3
ACAD_GROUP
350
D
3
ACAD_MLINESTYLE
350
17
0
DICTIONARY
5
D
100
AcDbDictionary
0
DICTIONARY
5
1A
330
C
100
AcDbDictionary
0
DICTIONARY
5
17
100
AcDbDictionary
0
ENDSEC
0
EOF
