0
SECTION
2
HEADER
9
$INSUNITS
70
4
9
$ACADVER
1
AC1014
9
$HANDSEED
5
FFFF
0
ENDSEC
0
SECTION
2
TABLES
0
TABLE
2
VPORT
5
8
100
AcDbSymbolTable
0
ENDTAB
0
TABLE
2
LTYPE
5
5
100
AcDbSymbolTable
0
LTYPE
5
14
100
AcDbSymbolTableRecord
100
AcDbLinetypeTableRecord
2
BYBLOCK
70
0
0
LTYPE
5
15
100
AcDbSymbolTableRecord
100
AcDbLinetypeTableRecord
2
BYLAYER
70
0
0
LTYPE
5
16
100
AcDbSymbolTableRecord
100
AcDbLinetypeTableRecord
2
DASHED
70
0
3
Dashed __ __ __ __ __ __ __ __ __ __ __ __ __ _
72
65
73
2
40
0.75
49
0.5
74
0
49
-0.25
74
0
0
ENDTAB
0
TABLE
2
LAYER
5
2
100
AcDbSymbolTable
70
3
0
LAYER
5
50
100
AcDbSymbolTableRecord
100
AcDbLayerTableRecord
2
1
70
0
62
7
6
DASHED
0
LAYER
5
51
100
AcDbSymbolTableRecord
100
AcDbLayerTableRecord
2
0
70
0
62
7
6
CONTINUOUS
0
ENDTAB
0
TABLE
2
STYLE
5
3
100
AcDbSymbolTable
70
1
0
STYLE
5
11
100
AcDbSymbolTableRecord
100
AcDbTextStyleTableRecord
2
STANDARD
70
0
0
ENDTAB
0
TABLE
2
VIEW
5
6
100
AcDbSymbolTable
70
0
0
ENDTAB
0
TABLE
2
UCS
5
7
100
AcDbSymbolTable
70
0
0
ENDTAB
0
TABLE
2
APPID
5
9
100
AcDbSymbolTable
70
2
0
APPID
5
12
100
AcDbSymbolTableRecord
100
AcDbRegAppTableRecord
2
ACAD
70
0
0
ENDTAB
0
TABLE
2
DIMSTYLE
5
A
100
AcDbSymbolTable
70
1
0
ENDTAB
0
TABLE
2
BLOCK_RECORD
5
1
100
AcDbSymbolTable
70
1
0
BLOCK_RECORD
5
1F
100
AcDbSymbolTableRecord
100
AcDbBlockTableRecord
2
*MODEL_SPACE
0
BLOCK_RECORD
5
1B
100
AcDbSymbolTableRecord
100
AcDbBlockTableRecord
2
*PAPER_SPACE
0
ENDTAB
0
ENDSEC
0
SECTION
2
BLOCKS
0
BLOCK
5
20
100
AcDbEntity
100
AcDbBlockBegin
2
*MODEL_SPACE
0
ENDBLK
5
21
100
AcDbEntity
100
AcDbBlockEnd
0
BLOCK
5
1C
100
AcDbEntity
100
AcDbBlockBegin
2
*PAPER_SPACE
0
ENDBLK
5
1D
100
AcDbEntity
100
AcDbBlockEnd
0
ENDSEC
0
SECTION
2
ENTITIES
0
LWPOLYLINE
5
100
100
AcDbEntity
8
0
100
AcDbPolyline
90
22
70
1
43
0.0
10
-193.32786885245815
20
174.57477097413636
42
0.21723272289026424
10
-193.49999999999909
20
174.19727658267192
10
-193.49999999999923
20
172.24999237062912
42
0.41421356237313667
10
-192.99999999999923
20
171.74999237062906
10
-192.00000000000296
20
171.74999237062906
42
-0.41421356237311585
10
-191.00000000000284
20
170.74999237062906
10
-191.00000000000335
20
163.74999237060399
42
-0.41421356237334478
10
-192.00000000000429
20
162.74999237060405
10
-193.50000000000247
20
162.74999237060541
10
-193.50000000000199
20
166.74999237060547
42
0.99999999999999989
10
-193.49999999999906
20
167.74999237060783
10
-196.49999999999989
20
167.74999237062289
42
0.99999999999999989
10
-196.50000000000352
20
166.74999237062494
10
-196.50000000000458
20
162.74999237060811
10
-198.00000000000435
20
162.74999237060956
42
-0.41421356237284529
10
-199.00000000000341
20
163.74999237060962
10
-199.0000000000029
20
170.74999237062897
42
-0.4142135623730534
10
-198.00000000000296
20
171.74999237062892
10
-197.00000000000233
20
171.74999237062892
42
0.41421356237309503
10
-196.50000000000236
20
172.24999237062895
10
-196.50000000000239
20
174.19727658267377
42
0.21723272289003548
10
-196.67213114754293
20
174.57477097413795
42
-2.6763578939639983
0
LWPOLYLINE
5
101
100
AcDbEntity
8
0
100
AcDbPolyline
90
31
70
1
43
0.0
10
-184.56066017178102
20
203.93933219880043
42
0.19891236737965801
10
-185.00000000000119
20
202.8786720270206
10
-185.00000000000128
20
184.99999237060547
10
-203.49999999999997
20
184.9999923706055
42
0.41421356237309503
10
-205
20
183.49999237060547
10
-205
20
154.12131271416507
42
0.19891236737965801
10
-204.56066017177983
20
153.06065254238521
10
-202.43933982822014
20
150.93933219882558
42
0.19891236737965801
10
-201.37867965644034
20
150.49999237060541
10
-188.6213203435596
20
150.49999237060538
42
0.1989123673796602
10
-187.56066017177974
20
150.93933219882555
10
-186.8786796564402
20
151.6213127141651
42
-0.19891236737965801
10
-184.75735931288057
20
152.49999237060547
10
-170.97106781186525
20
152.49999237060547
42
0.19891236737966234
10
-169.91040764008542
20
152.93933219882564
10
-159.22842712476711
20
163.6213127141443
42
-0.1989123673796685
10
-157.10710678120736
20
164.49999237058472
10
-155.76471862680148
20
164.49999237058472
42
0.19891236737966203
10
-154.70405845502162
20
164.93933219880486
10
-153.52207793966124
20
166.12131271416524
42
-0.19891236737965801
10
-151.40075759610158
20
166.99999237060558
10
-146.12132034364851
20
166.99999237060555
42
0.19891236737965801
10
-145.06066017186868
20
167.43933219882575
10
-141.93933982830907
20
170.56065254238533
42
0.19891236737965831
10
-141.50000000008887
20
171.62131271416516
10
-141.5000000000889
20
204.37867202702057
42
0.1989123673796602
10
-141.93933982830907
20
205.43933219880043
10
-145.0606601718687
20
208.56065254236006
42
0.19891236737965584
10
-146.12132034364853
20
208.99999237058023
10
-178.87867965644153
20
208.99999237058026
42
0.19891236737965801
10
-179.93933982822139
20
208.56065254236006
0
CIRCLE
5
102
100
AcDbEntity
8
0
100
AcDbCircle
10
-194.99999999999937
20
157.99999237060518
30
4.4408920985006262e-15
40
2.5499999999999901
210
-1.1102230246251258e-16
220
-1.6578404961284916e-30
230
1
0
CIRCLE
5
103
100
AcDbEntity
8
0
100
AcDbCircle
10
-147.00000000008839
20
187.99999237058046
30
8.8817841970012523e-15
40
1.5500000000000014
210
1.1339875512552045e-30
220
1.0927117419564125e-44
230
1
0
CIRCLE
5
104
100
AcDbEntity
8
0
100
AcDbCircle
10
-178.00000000006798
20
172.49999237057241
30
8.8817841970012523e-15
40
1.5500000000000025
210
1.1339875512552045e-30
220
1.0927117419564125e-44
230
1
0
CIRCLE
5
105
100
AcDbEntity
8
0
100
AcDbCircle
10
-158.25000000104001
20
171.99999237058472
30
8.8817841970012523e-15
40
1.549999999999998
210
1.1339875512552045e-30
220
1.0927117419564125e-44
230
1
0
CIRCLE
5
106
100
AcDbEntity
8
0
100
AcDbCircle
10
-147.00000000005576
20
172.49999237058464
30
8.8817841970012523e-15
40
1.549999999999998
210
1.1339875512552045e-30
220
1.0927117419564125e-44
230
1
0
CIRCLE
5
107
100
AcDbEntity
8
0
100
AcDbCircle
10
-178.00000000008021
20
203.49999237058461
30
8.8817841970012523e-15
40
1.5500000000000025
210
1.1339875512552045e-30
220
1.0927117419564125e-44
230
1
0
CIRCLE
5
108
100
AcDbEntity
8
0
100
AcDbCircle
10
-147.00000000006798
20
203.49999237059683
30
8.8817841970012523e-15
40
1.549999999999998
210
1.1339875512552045e-30
220
1.0927117419564125e-44
230
1
0
CIRCLE
5
109
100
AcDbEntity
8
0
100
AcDbCircle
10
-162.50000000006798
20
187.99999237058461
30
8.8817841970012523e-15
40
11.050000000000002
210
1.1339875512552045e-30
220
1.0927117419564125e-44
230
1
0
ENDSEC
0
SECTION
2
OBJECTS
0
DICTIONARY
5
C
100
AcDbDictionary
3
ACAD_GROUP
350
D
3
ACAD_MLINESTYLE
350
17
0
DICTIONARY
5
D
100
AcDbDictionary
0
DICTIONARY
5
1A
330
C
100
AcDbDictionary
0
DICTIONARY
5
17
100
AcDbDictionary
0
ENDSEC
0
EOF
