0
SECTION
2
HEADER
9
$INSUNITS
70
4
9
$ACADVER
1
AC1014
9
$HANDSEED
5
FFFF
0
ENDSEC
0
SECTION
2
TABLES
0
TABLE
2
VPORT
5
8
100
AcDbSymbolTable
0
ENDTAB
0
TABLE
2
LTYPE
5
5
100
AcDbSymbolTable
0
LTYPE
5
14
100
AcDbSymbolTableRecord
100
AcDbLinetypeTableRecord
2
BYBLOCK
70
0
0
LTYPE
5
15
100
AcDbSymbolTableRecord
100
AcDbLinetypeTableRecord
2
BYLAYER
70
0
0
LTYPE
5
16
100
AcDbSymbolTableRecord
100
AcDbLinetypeTableRecord
2
DASHED
70
0
3
Dashed __ __ __ __ __ __ __ __ __ __ __ __ __ _
72
65
73
2
40
0.75
49
0.5
74
0
49
-0.25
74
0
0
ENDTAB
0
TABLE
2
LAYER
5
2
100
AcDbSymbolTable
70
3
0
LAYER
5
50
100
AcDbSymbolTableRecord
100
AcDbLayerTableRecord
2
1
70
0
62
7
6
DASHED
0
LAYER
5
51
100
AcDbSymbolTableRecord
100
AcDbLayerTableRecord
2
0
70
0
62
7
6
CONTINUOUS
0
ENDTAB
0
TABLE
2
STYLE
5
3
100
AcDbSymbolTable
70
1
0
STYLE
5
11
100
AcDbSymbolTableRecord
100
AcDbTextStyleTableRecord
2
STANDARD
70
0
0
ENDTAB
0
TABLE
2
VIEW
5
6
100
AcDbSymbolTable
70
0
0
ENDTAB
0
TABLE
2
UCS
5
7
100
AcDbSymbolTable
70
0
0
ENDTAB
0
TABLE
2
APPID
5
9
100
AcDbSymbolTable
70
2
0
APPID
5
12
100
AcDbSymbolTableRecord
100
AcDbRegAppTableRecord
2
ACAD
70
0
0
ENDTAB
0
TABLE
2
DIMSTYLE
5
A
100
AcDbSymbolTable
70
1
0
ENDTAB
0
TABLE
2
BLOCK_RECORD
5
1
100
AcDbSymbolTable
70
1
0
BLOCK_RECORD
5
1F
100
AcDbSymbolTableRecord
100
AcDbBlockTableRecord
2
*MODEL_SPACE
0
BLOCK_RECORD
5
1B
100
AcDbSymbolTableRecord
100
AcDbBlockTableRecord
2
*PAPER_SPACE
0
ENDTAB
0
ENDSEC
0
SECTION
2
BLOCKS
0
BLOCK
5
20
100
AcDbEntity
100
AcDbBlockBegin
2
*MODEL_SPACE
0
ENDBLK
5
21
100
AcDbEntity
100
AcDbBlockEnd
0
BLOCK
5
1C
100
AcDbEntity
100
AcDbBlockBegin
2
*PAPER_SPACE
0
ENDBLK
5
1D
100
AcDbEntity
100
AcDbBlockEnd
0
ENDSEC
0
SECTION
2
ENTITIES
0
LWPOLYLINE
5
100
100
AcDbEntity
8
0
100
AcDbPolyline
90
28
70
1
43
0.0
10
185.58071891388508
20
-184.87499999999866
42
0.18267581368169603
10
185.91143782776828
20
-184.99999999999881
10
203.50000000000077
20
-184.99999999999881
42
0.41421356237309503
10
205.00000000000074
20
-183.49999999999881
10
205.00000000000074
20
-154.12132186943543
42
0.19891236737965584
10
204.5606601717806
20
-153.0606616976556
10
202.43933982822097
20
-150.939341354096
42
0.19891236737965584
10
201.37867965644116
20
-150.5000015258758
10
172.97106781186574
20
-150.49999999999886
42
0.19891236737965362
10
171.91040764008594
20
-150.93933982821903
10
166.72842712474633
20
-156.12132034355855
42
-0.19891236737965581
10
164.6071067811867
20
-156.99999999999886
10
155.12132034359186
20
-156.99999999999886
42
0.19891236737961446
10
154.0606601718122
20
-157.43933982821889
10
140.37867965649087
20
-171.12132034353607
42
-0.19891236737961887
10
138.25735931293158
20
-171.99999999997607
10
92.99999999999855
20
-171.99999999997607
42
0.41421356237309503
10
91.49999999999855
20
-173.4999999999761
10
91.49999999999855
20
-205.37867965643485
42
0.19891236738059381
10
91.939339828222558
20
-206.43933982821849
10
94.060660171779062
20
-208.56066017175976
42
0.19891236737871568
10
95.121320343555084
20
-208.99999999997604
10
178.87867965644236
20
-208.99999999997604
42
0.19891236737966414
10
179.93933982822222
20
-208.56066017175584
10
184.56066017178185
20
-203.93933982819624
42
0.19891236737966239
10
185.00000000000202
20
-202.87867965641638
10
185.00000000000202
20
-185.91143782776493
42
0.1826758136816839
10
184.87500000000196
20
-185.58071891388167
42
-0.93922053388483551
0
LWPOLYLINE
5
101
100
AcDbEntity
8
0
100
AcDbPolyline
90
6
70
1
43
0.0
10
114.00000000001356
20
-177.69999999998754
10
148.70000000001349
20
-177.6999999999876
42
-0.41421356237309503
10
151.00000000001347
20
-179.99999999998755
10
151.00000000001353
20
-180.69999999998748
42
-0.41421356237309503
10
148.70000000001349
20
-182.99999999998755
10
114.00000000001357
20
-182.99999999998755
0
LWPOLYLINE
5
102
100
AcDbEntity
8
0
100
AcDbPolyline
90
16
70
1
43
0.0
10
101.01928108611547
20
-186.12499999998747
42
0.1826758136815855
10
100.68856217223242
20
-185.99999999998749
10
97.411437827764686
20
-185.99999999998749
42
0.1826758136815855
10
97.080718913881654
20
-186.12499999998747
42
-0.93922053388447868
10
96.37499999999855
20
-185.41928108610443
42
0.18267581368161223
10
96.499999999998565
20
-185.08856217222132
10
96.499999999998565
20
-175.91143782774225
42
0.18267581368161223
10
96.37499999999855
20
-175.58071891385913
42
-0.93922053388444438
10
97.080718913881611
20
-174.87499999997607
42
0.18267581368160454
10
97.411437827764686
20
-174.99999999997607
10
100.68856217223242
20
-174.99999999997607
42
0.1826758136815855
10
101.01928108611547
20
-174.87499999997613
42
-0.93922053388448945
10
101.72499999999854
20
-175.58071891385913
42
0.18267581368160615
10
101.59999999999854
20
-175.91143782774225
10
101.59999999999854
20
-185.08856217222132
42
0.18267581368160615
10
101.72499999999856
20
-185.41928108610443
42
-0.93922053388448945
0
LWPOLYLINE
5
103
100
AcDbEntity
8
0
100
AcDbPolyline
90
26
70
1
43
0.0
10
193.32786885245895
20
-174.57477860352958
42
0.21723272289025652
10
193.49999999999983
20
-174.19728421206514
10
193.5
20
-172.25000000002237
42
0.41421356237313667
10
193
20
-171.75000000002231
10
192.00000000000372
20
-171.75000000002231
42
-0.41421356237312623
10
191.00000000000367
20
-170.75000000002223
10
191.00000000000426
20
-163.74999999999721
42
-0.41421356237334478
10
192.00000000000523
20
-162.74999999999727
10
193.00000000000381
20
-162.74999999999824
42
-0.41421356237286611
10
193.50000000000335
20
-163.24999999999832
10
193.50000000000301
20
-166.38397459621143
42
-0.26794919243160309
10
193.25000000000213
20
-166.81698729810407
42
0.76732698797771892
10
193.49999999999991
20
-167.75000000000105
10
196.50000000000074
20
-167.75000000001626
42
0.76732698797978194
10
196.75000000000335
20
-166.81698729812649
42
-0.26794919243047027
10
196.50000000000455
20
-166.38397459623485
10
196.50000000000534
20
-163.25000000000182
42
-0.41421356237328233
10
197.00000000000583
20
-162.75000000000193
10
198.00000000000526
20
-162.75000000000287
42
-0.41421356237286611
10
199.00000000000432
20
-163.75000000000298
10
199.00000000000372
20
-170.75000000002234
42
-0.4142135623730534
10
198.00000000000375
20
-171.75000000002225
10
197.00000000000313
20
-171.75000000002225
42
0.41421356237309503
10
196.50000000000315
20
-172.25000000002225
10
196.50000000000315
20
-174.19728421206707
42
0.21723272289006171
10
196.67213114754406
20
-174.57477860353083
42
-2.6763578939642771
0
ARC
5
104
100
AcDbEntity
8
0
100
AcDbCircle
10
136.5999999999589
20
-201.99999999999756
30
1.1102230246251565e-14
40
1.0000000000000142
210
0
220
0
230
1
100
AcDbArc
50
-89.999999999990237
51
0
0
LINE
5
105
100
AcDbEntity
8
0
100
AcDbLine
10
136.59999999995907
20
-202.99999999999756
30
1.1102230246251565e-14
11
129.59999999993971
21
-202.99999999999866
31
1.1920876041848771e-06
0
ARC
5
106
100
AcDbEntity
8
0
100
AcDbCircle
10
129.59999999993951
20
-201.99999999999869
30
1.1102230246251565e-14
40
0.99999999999997868
210
0
220
0
230
1
100
AcDbArc
50
180
51
270.00000000001137
0
LINE
5
107
100
AcDbEntity
8
0
100
AcDbLine
10
128.59999999993954
20
-201.99999999999966
30
1.1102230246251565e-14
11
128.59999999993852
21
-201.00000000000023
31
2.2204460492503131e-15
0
ARC
5
108
100
AcDbEntity
8
0
100
AcDbCircle
10
129.09999999993852
20
-200.99999999999972
30
1.1102230246251565e-14
40
0.50000000000000711
210
0
220
0
230
1
100
AcDbArc
50
90.00000000001954
51
180
0
LINE
5
109
100
AcDbEntity
8
0
100
AcDbLine
10
129.09999999993835
20
-200.49999999999972
30
1.1102230246251565e-14
11
132.23397459617138
21
-200.49999999999869
31
2.2204460492503131e-15
0
ARC
5
110
100
AcDbEntity
8
0
100
AcDbCircle
10
132.23397459617155
20
-200.99999999999866
30
1.1102230246251565e-14
40
0.49999999999997941
210
0
220
-0
230
1
100
AcDbArc
50
30.000000000159709
51
90.00000000001954
0
ARC
5
111
100
AcDbEntity
8
0
100
AcDbCircle
10
133.09999999995281
20
-200.49999999999724
30
1.1102230246251565e-14
40
0.49999999999799227
210
0
220
0
230
1
100
AcDbArc
50
-149.99999999983686
51
0
0
LINE
5
112
100
AcDbEntity
8
0
100
AcDbLine
10
133.5999999999508
20
-200.49999999999477
30
1.1102230246251565e-14
11
133.59999999993741
21
-197.49999999999397
31
1.1920875864213087e-06
0
ARC
5
113
100
AcDbEntity
8
0
100
AcDbCircle
10
133.09999999955679
20
-197.49999999999653
30
-0.00031733371253388941
40
0.50000000000375522
210
-2.3841751506202507e-06
220
-1.2197220005124386e-17
230
0.99999999999715783
100
AcDbArc
50
0
51
149.99999999983299
0
ARC
5
114
100
AcDbEntity
8
0
100
AcDbCircle
10
132.23397459614765
20
-196.9999999999971
30
1.1102230246251565e-14
40
0.49999999999997158
210
0
220
0
230
1
100
AcDbArc
50
270.00000000001302
51
330.00000000011346
0
LINE
5
115
100
AcDbEntity
8
0
100
AcDbLine
10
132.23397459614776
20
-197.4999999999971
30
1.1102230246251565e-14
11
129.09999999993465
21
-197.49999999999773
31
2.2204460492503131e-15
0
ARC
5
116
100
AcDbEntity
8
0
100
AcDbCircle
10
129.09999999993454
20
-196.99999999999773
30
1.1102230246251565e-14
40
0.49999999999998934
210
0
220
0
230
1
100
AcDbArc
50
180
51
270.00000000001302
0
LINE
5
117
100
AcDbEntity
8
0
100
AcDbLine
10
128.59999999993454
20
-196.99999999999818
30
1.1102230246251565e-14
11
128.59999999993354
21
-195.99999999999966
31
1.1920876041848771e-06
0
ARC
5
118
100
AcDbEntity
8
0
100
AcDbCircle
10
129.59999999993354
20
-195.99999999999866
30
1.1102230246251565e-14
40
1.0000000000000142
210
0
220
0
230
1
100
AcDbArc
50
90.000000000008143
51
180.0000683018917
0
LINE
5
119
100
AcDbEntity
8
0
100
AcDbLine
10
129.5999999999334
20
-194.99999999999864
30
1.1102230246251565e-14
11
136.59999999995841
21
-194.9999999999975
31
1.192087599743985e-06
0
ARC
5
120
100
AcDbEntity
8
0
100
AcDbCircle
10
136.59999999995853
20
-195.99999999999753
30
1.1102230246251565e-14
40
1.0000000000000142
210
0
220
0
230
1
100
AcDbArc
50
0
51
90.000000000006523
0
LINE
5
121
100
AcDbEntity
8
0
100
AcDbLine
10
137.59999999995856
20
-195.99999999999753
30
1.1102230246251565e-14
11
137.59999999995892
21
-201.9999999999975
31
1.1102230246251565e-14
0
CIRCLE
5
122
100
AcDbEntity
8
0
100
AcDbCircle
10
-110.50000000001359
20
-180.49999999998747
30
-2.2204460492503131e-15
40
1.25
210
1.2446030555722261e-60
220
-3.4544674220378699e-77
230
-1
0
CIRCLE
5
123
100
AcDbEntity
8
0
100
AcDbCircle
10
-162.50000000001347
20
-187.99999999998815
30
-2.2204460492503131e-15
40
6.5150000000000041
210
0
220
0
230
-1
0
CIRCLE
5
124
100
AcDbEntity
8
0
100
AcDbCircle
10
-178.00000000001344
20
-203.49999999998766
30
-2.2204460492503131e-15
40
1.5500000000000025
210
0
220
0
230
-1
0
CIRCLE
5
125
100
AcDbEntity
8
0
100
AcDbCircle
10
-147.00000000001393
20
-203.49999999998806
30
-2.2204460492503131e-15
40
1.549999999999998
210
0
220
0
230
-1
0
CIRCLE
5
126
100
AcDbEntity
8
0
100
AcDbCircle
10
-147.0000000000135
20
-172.49999999998863
30
-2.2204460492503131e-15
40
1.549999999999998
210
0
220
0
230
-1
0
CIRCLE
5
127
100
AcDbEntity
8
0
100
AcDbCircle
10
-178.00000000001296
20
-172.49999999998818
30
-2.2204460492503131e-15
40
1.5500000000000025
210
0
220
0
230
-1
0
CIRCLE
5
128
100
AcDbEntity
8
0
100
AcDbCircle
10
-98.249999999933834
20
-198.99999999999517
30
5.3312909642500017e-12
40
2.5499999999999989
210
0
220
0
230
-1
0
CIRCLE
5
129
100
AcDbEntity
8
0
100
AcDbCircle
10
-113.74999999993386
20
-198.99999999999517
30
5.3312909642500017e-12
40
2.5499999999999998
210
0
220
0
230
-1
0
CIRCLE
5
130
100
AcDbEntity
8
0
100
AcDbCircle
10
-162.50000000001347
20
-167.259999999998
30
-2.2204460492503131e-15
40
6.5150000000000041
210
0
220
0
230
-1
0
CIRCLE
5
131
100
AcDbEntity
8
0
100
AcDbCircle
10
-171.13437316777166
20
-172.49999999998818
30
-2.2204460492503131e-15
40
1.2500000000000089
210
0
220
0
230
-1
0
CIRCLE
5
132
100
AcDbEntity
8
0
100
AcDbCircle
10
-153.86562683225526
20
-162.02000000000777
30
-2.2204460492503131e-15
40
1.2500000000000089
210
0
220
0
230
-1
0
CIRCLE
5
133
100
AcDbEntity
8
0
100
AcDbCircle
10
-162.50000000001319
20
-197.59999999998828
30
-2.2204460492503131e-15
40
1.2500000000000044
210
0
220
0
230
-1
0
CIRCLE
5
134
100
AcDbEntity
8
0
100
AcDbCircle
10
-162.50000000001319
20
-178.39999999998798
30
-2.2204460492503131e-15
40
1.2500000000000044
210
0
220
0
230
-1
0
CIRCLE
5
135
100
AcDbEntity
8
0
100
AcDbCircle
10
-195.00000000000034
20
-157.99999999999852
30
3.2207285268061965e-14
40
2.5499999999999901
210
2.3348698237725006e-16
220
-1.2961131189273858e-32
230
-1
0
ENDSEC
0
SECTION
2
OBJECTS
0
DICTIONARY
5
C
100
AcDbDictionary
3
ACAD_GROUP
350
D
3
ACAD_MLINESTYLE
350
17
0
DICTIONARY
5
D
100
AcDbDictionary
0
DICTIONARY
5
1A
330
C
100
AcDbDictionary
0
DICTIONARY
5
17
100
AcDbDictionary
0
ENDSEC
0
EOF
