0
SECTION
2
HEADER
9
$INSUNITS
70
4
9
$ACADVER
1
AC1014
9
$HANDSEED
5
FFFF
0
ENDSEC
0
SECTION
2
TABLES
0
TABLE
2
VPORT
5
8
100
AcDbSymbolTable
0
ENDTAB
0
TABLE
2
LTYPE
5
5
100
AcDbSymbolTable
0
LTYPE
5
14
100
AcDbSymbolTableRecord
100
AcDbLinetypeTableRecord
2
BYBLOCK
70
0
0
LTYPE
5
15
100
AcDbSymbolTableRecord
100
AcDbLinetypeTableRecord
2
BYLAYER
70
0
0
LTYPE
5
16
100
AcDbSymbolTableRecord
100
AcDbLinetypeTableRecord
2
DASHED
70
0
3
Dashed __ __ __ __ __ __ __ __ __ __ __ __ __ _
72
65
73
2
40
0.75
49
0.5
74
0
49
-0.25
74
0
0
ENDTAB
0
TABLE
2
LAYER
5
2
100
AcDbSymbolTable
70
3
0
LAYER
5
50
100
AcDbSymbolTableRecord
100
AcDbLayerTableRecord
2
1
70
0
62
7
6
DASHED
0
LAYER
5
51
100
AcDbSymbolTableRecord
100
AcDbLayerTableRecord
2
0
70
0
62
7
6
CONTINUOUS
0
ENDTAB
0
TABLE
2
STYLE
5
3
100
AcDbSymbolTable
70
1
0
STYLE
5
11
100
AcDbSymbolTableRecord
100
AcDbTextStyleTableRecord
2
STANDARD
70
0
0
ENDTAB
0
TABLE
2
VIEW
5
6
100
AcDbSymbolTable
70
0
0
ENDTAB
0
TABLE
2
UCS
5
7
100
AcDbSymbolTable
70
0
0
ENDTAB
0
TABLE
2
APPID
5
9
100
AcDbSymbolTable
70
2
0
APPID
5
12
100
AcDbSymbolTableRecord
100
AcDbRegAppTableRecord
2
ACAD
70
0
0
ENDTAB
0
TABLE
2
DIMSTYLE
5
A
100
AcDbSymbolTable
70
1
0
ENDTAB
0
TABLE
2
BLOCK_RECORD
5
1
100
AcDbSymbolTable
70
1
0
BLOCK_RECORD
5
1F
100
AcDbSymbolTableRecord
100
AcDbBlockTableRecord
2
*MODEL_SPACE
0
BLOCK_RECORD
5
1B
100
AcDbSymbolTableRecord
100
AcDbBlockTableRecord
2
*PAPER_SPACE
0
ENDTAB
0
ENDSEC
0
SECTION
2
BLOCKS
0
BLOCK
5
20
100
AcDbEntity
100
AcDbBlockBegin
2
*MODEL_SPACE
0
ENDBLK
5
21
100
AcDbEntity
100
AcDbBlockEnd
0
BLOCK
5
1C
100
AcDbEntity
100
AcDbBlockBegin
2
*PAPER_SPACE
0
ENDBLK
5
1D
100
AcDbEntity
100
AcDbBlockEnd
0
ENDSEC
0
SECTION
2
ENTITIES
0
LWPOLYLINE
5
100
100
AcDbEntity
8
0
100
AcDbPolyline
90
34
70
1
43
0.0
10
184.87500000000168
20
185.58071891388346
42
0.18267581368169597
10
185.00000000000176
20
185.91143782776666
10
185.00000000000176
20
202.87867965641652
42
0.19891236737965801
10
184.56066017178159
20
203.93933982819632
10
179.93933982822199
20
208.56066017175596
42
0.19891236737965801
10
178.87867965644216
20
208.99999999997613
10
146.12132034364922
20
208.99999999997613
42
0.19891236737966017
10
145.06066017186942
20
208.56066017175593
10
141.93933982830976
20
205.4393398281963
42
0.1989123673796602
10
141.50000000008961
20
204.37867965641647
10
141.50000000008959
20
171.62132034356117
42
0.1989123673796602
10
141.93933982830976
20
170.56066017178131
10
145.06066017186939
20
167.43933982822173
42
0.19891236737965801
10
146.12132034364919
20
167.00000000000156
10
151.40075759610224
20
167.00000000000156
42
-0.19891236737965845
10
153.5220779396619
20
166.12132034356122
10
154.70405845502231
20
164.93933982820084
42
0.19891236737965978
10
155.76471862680214
20
164.4999999999807
10
157.10710678120802
20
164.49999999998073
42
-0.1989123673796685
10
159.22842712476776
20
163.62132034354033
10
169.91040764008602
20
152.93933982822168
42
0.19891236737966234
10
170.97106781186585
20
152.50000000000148
10
184.75735931288114
20
152.50000000000151
42
-0.19891236737965914
10
186.87867965644077
20
151.62132034356114
10
187.56066017178031
20
150.93933982822159
42
0.1989123673796602
10
188.62132034356017
20
150.50000000000142
10
201.37867965644085
20
150.50000000000142
42
0.19891236737966234
10
202.43933982822068
20
150.93933982822162
10
204.56066017178031
20
153.06066017178125
42
0.19891236737966017
10
205.00000000000051
20
154.12132034356108
10
205.00000000000051
20
183.50000000000142
42
0.41421356237309503
10
203.50000000000051
20
185.00000000000142
10
185.91143782776902
20
185.00000000000142
42
0.18267581368204822
10
185.58071891388533
20
184.87500000000082
42
-0.93922053388540183
0
LWPOLYLINE
5
101
100
AcDbEntity
8
0
100
AcDbPolyline
90
26
70
1
43
0.0
10
193.49999999999977
20
174.19728421206781
42
0.21723272289025652
10
193.32786885245918
20
174.57477860353259
42
-2.6763578939643136
10
196.67213114754358
20
174.57477860353384
42
0.21723272289003714
10
196.50000013624137
20
174.19728421206966
10
196.50000000000304
20
172.25000000002484
42
0.41421356237309503
10
197.00000000000301
20
171.75000000002487
10
198.00000000000364
20
171.75000000002484
42
-0.4142135623730534
10
199.00000000000358
20
170.7500000000249
10
199.00000000000406
20
163.75000000000554
42
-0.41421356237284529
10
198.000000000005
20
162.75000000000549
10
197.00000000000557
20
162.75000000000455
42
-0.41421356237328233
10
196.50000000000514
20
163.25000000000443
10
196.50000000000435
20
166.38397459623741
42
-0.26794919243047982
10
196.75000000000318
20
166.81698729812908
42
0.76732698797976784
10
196.50000000000057
20
167.75000000001683
10
193.49999999999972
20
167.75000000000372
42
0.76732698797770871
10
193.2500000000019
20
166.81698729810671
42
-0.2679491924315936
10
193.50000000000273
20
166.3839745962141
10
193.5000000000031
20
163.25000000000097
42
-0.41421356237286611
10
193.00000000000352
20
162.75000000000091
10
192.000000000005
20
162.75
42
-0.41421356237334478
10
191.00000000000406
20
163.74999999999994
10
191.00000000000352
20
170.75000000002493
42
-0.41421356237312623
10
192.00000000000361
20
171.75000000002498
10
192.99999999999989
20
171.75000000002498
42
0.41421356237313667
10
193.49999999999989
20
172.25000000002501
0
CIRCLE
5
102
100
AcDbEntity
8
0
100
AcDbCircle
10
-195.00000000000003
20
158.00000000000114
30
1.6098233857064082e-14
40
2.5499999999999901
210
1.1102230246251345e-16
220
-1.6578404961285046e-30
230
-1
0
CIRCLE
5
103
100
AcDbEntity
8
0
100
AcDbCircle
10
-178.00000000006858
20
172.4999999999684
30
-9.6689594038394376e-43
40
1.5500000000000025
210
1.4001784375185949e-60
220
-5.6051938572992533e-45
230
-1
0
CIRCLE
5
104
100
AcDbEntity
8
0
100
AcDbCircle
10
-158.25000000104063
20
171.99999999998067
30
-9.6409334345536295e-43
40
1.549999999999998
210
1.4001784375185949e-60
220
-5.6051938572992533e-45
230
-1
0
CIRCLE
5
105
100
AcDbEntity
8
0
100
AcDbCircle
10
-147.00000000005645
20
172.49999999998062
30
-9.6689594038401226e-43
40
1.549999999999998
210
1.4001784375185949e-60
220
-5.6051938572992533e-45
230
-1
0
CIRCLE
5
106
100
AcDbEntity
8
0
100
AcDbCircle
10
-162.50000000006864
20
187.99999999998056
30
-1.0537764451721506e-42
40
6.5150000000000086
210
1.4001784375185949e-60
220
-5.6051938572992533e-45
230
-1
0
CIRCLE
5
107
100
AcDbEntity
8
0
100
AcDbCircle
10
-147.00000000006867
20
203.49999999999272
30
-1.1406569499603571e-42
40
1.549999999999998
210
1.4001784375185949e-60
220
-5.6051938572992533e-45
230
-1
0
CIRCLE
5
108
100
AcDbEntity
8
0
100
AcDbCircle
10
-178.00000000008077
20
203.4999999999805
30
-1.1406569499602886e-42
40
1.5500000000000025
210
1.4001784375185949e-60
220
-5.6051938572992533e-45
230
-1
0
CIRCLE
5
109
100
AcDbEntity
8
0
100
AcDbCircle
10
-162.50000000006864
20
178.39999999998039
30
-9.999665841420767e-43
40
1.2500000000000044
210
1.4001784375185949e-60
220
-5.6051938572992533e-45
230
-1
0
CIRCLE
5
110
100
AcDbEntity
8
0
100
AcDbCircle
10
-162.50000000006861
20
197.59999999998075
30
-1.1075863062022243e-42
40
1.2500000000000044
210
1.4001784375185949e-60
220
-5.6051938572992533e-45
230
-1
0
CIRCLE
5
111
100
AcDbEntity
8
0
100
AcDbCircle
10
-147.00000000008893
20
187.99999999997638
30
-1.057021009093748e-42
40
1.5500000000000014
210
-2.2071863412372788e-47
220
-5.6051938572992533e-45
230
-1
0
ENDSEC
0
SECTION
2
OBJECTS
0
DICTIONARY
5
C
100
AcDbDictionary
3
ACAD_GROUP
350
D
3
ACAD_MLINESTYLE
350
17
0
DICTIONARY
5
D
100
AcDbDictionary
0
DICTIONARY
5
1A
330
C
100
AcDbDictionary
0
DICTIONARY
5
17
100
AcDbDictionary
0
ENDSEC
0
EOF
