0
SECTION
2
HEADER
9
$INSUNITS
70
4
9
$ACADVER
1
AC1014
9
$HANDSEED
5
FFFF
0
ENDSEC
0
SECTION
2
TABLES
0
TABLE
2
VPORT
5
8
100
AcDbSymbolTable
0
ENDTAB
0
TABLE
2
LTYPE
5
5
100
AcDbSymbolTable
0
LTYPE
5
14
100
AcDbSymbolTableRecord
100
AcDbLinetypeTableRecord
2
BYBLOCK
70
0
0
LTYPE
5
15
100
AcDbSymbolTableRecord
100
AcDbLinetypeTableRecord
2
BYLAYER
70
0
0
LTYPE
5
16
100
AcDbSymbolTableRecord
100
AcDbLinetypeTableRecord
2
DASHED
70
0
3
Dashed __ __ __ __ __ __ __ __ __ __ __ __ __ _
72
65
73
2
40
0.75
49
0.5
74
0
49
-0.25
74
0
0
ENDTAB
0
TABLE
2
LAYER
5
2
100
AcDbSymbolTable
70
3
0
LAYER
5
50
100
AcDbSymbolTableRecord
100
AcDbLayerTableRecord
2
1
70
0
62
7
6
DASHED
0
LAYER
5
51
100
AcDbSymbolTableRecord
100
AcDbLayerTableRecord
2
0
70
0
62
7
6
CONTINUOUS
0
ENDTAB
0
TABLE
2
STYLE
5
3
100
AcDbSymbolTable
70
1
0
STYLE
5
11
100
AcDbSymbolTableRecord
100
AcDbTextStyleTableRecord
2
STANDARD
70
0
0
ENDTAB
0
TABLE
2
VIEW
5
6
100
AcDbSymbolTable
70
0
0
ENDTAB
0
TABLE
2
UCS
5
7
100
AcDbSymbolTable
70
0
0
ENDTAB
0
TABLE
2
APPID
5
9
100
AcDbSymbolTable
70
2
0
APPID
5
12
100
AcDbSymbolTableRecord
100
AcDbRegAppTableRecord
2
ACAD
70
0
0
ENDTAB
0
TABLE
2
DIMSTYLE
5
A
100
AcDbSymbolTable
70
1
0
ENDTAB
0
TABLE
2
BLOCK_RECORD
5
1
100
AcDbSymbolTable
70
1
0
BLOCK_RECORD
5
1F
100
AcDbSymbolTableRecord
100
AcDbBlockTableRecord
2
*MODEL_SPACE
0
BLOCK_RECORD
5
1B
100
AcDbSymbolTableRecord
100
AcDbBlockTableRecord
2
*PAPER_SPACE
0
ENDTAB
0
ENDSEC
0
SECTION
2
BLOCKS
0
BLOCK
5
20
100
AcDbEntity
100
AcDbBlockBegin
2
*MODEL_SPACE
0
ENDBLK
5
21
100
AcDbEntity
100
AcDbBlockEnd
0
BLOCK
5
1C
100
AcDbEntity
100
AcDbBlockBegin
2
*PAPER_SPACE
0
ENDBLK
5
1D
100
AcDbEntity
100
AcDbBlockEnd
0
ENDSEC
0
SECTION
2
ENTITIES
0
LWPOLYLINE
5
100
100
AcDbEntity
8
OUTER_PROFILES
100
AcDbPolyline
90
8
70
1
43
0.0
10
-1.5000000000000004
20
32.154866776461454
42
-0.4142135623730957
10
-1.2020715345612063e-15
20
33.654866776461454
10
397
20
33.654866776461517
42
-0.41421356237309243
10
398.5
20
32.154866776461468
10
398.5
20
1.5000000000000613
42
-0.41421356237309592
10
397
20
5.6343818499726694e-14
10
0
20
5.6343818499726694e-14
42
-0.41421356237309509
10
-1.5000000000000004
20
1.5000000000000571
0
LWPOLYLINE
5
101
100
AcDbEntity
8
INTERIOR_PROFILES
100
AcDbPolyline
90
4
70
1
43
0.0
10
388.9749556658424
20
27.021176274023926
10
392.97495566584246
20
27.021176274023926
42
0.99999999999999989
10
392.97495566584246
20
30.221176274023858
10
388.9749556658424
20
30.221176274023858
42
0.99999999999999989
0
LWPOLYLINE
5
102
100
AcDbEntity
8
INTERIOR_PROFILES
100
AcDbPolyline
90
4
70
1
43
0.0
10
28.199999999998653
20
10.582106226999741
10
18.69999999999866
20
10.582106226999741
42
0.99999999999999989
10
18.69999999999866
20
5.0821062269996276
10
28.199999999998653
20
5.0821062269996276
42
0.99999999999999989
0
LWPOLYLINE
5
103
100
AcDbEntity
8
INTERIOR_PROFILES
100
AcDbPolyline
90
4
70
1
43
0.0
10
369.70000000000596
20
5.1821054378604003
42
-0.99999999999999989
10
369.70000000000596
20
10.682105437860514
10
379.20000000000596
20
10.682105437860514
42
-0.99999999999999989
10
379.20000000000596
20
5.1821054378604003
0
LWPOLYLINE
5
104
100
AcDbEntity
8
INTERIOR_PROFILES
100
AcDbPolyline
90
4
70
1
43
0.0
10
361.20000000000601
20
10.682105437860514
42
-0.99999999999999989
10
361.20000000000601
20
5.1821054378604003
10
351.70000000000607
20
5.1821054378604003
42
-0.99999999999999989
10
351.70000000000607
20
10.682105437860514
0
LWPOLYLINE
5
105
100
AcDbEntity
8
INTERIOR_PROFILES
100
AcDbPolyline
90
4
70
1
43
0.0
10
3.502625195506468
20
27.021176274023784
10
7.5026251955064538
20
27.021176274023784
42
0.99999999999999989
10
7.5026251955064538
20
30.221176274023716
10
3.502625195506468
20
30.221176274023716
42
0.99999999999999989
0
LWPOLYLINE
5
106
100
AcDbEntity
8
INTERIOR_PROFILES
100
AcDbPolyline
90
4
70
1
43
0.0
10
47.199999999998568
20
10.582106226999741
10
37.699999999998575
20
10.582106226999741
42
0.99999999999999989
10
37.699999999998575
20
5.0821062269996276
10
47.199999999998568
20
5.0821062269996276
42
0.99999999999999989
0
LINE
5
107
100
AcDbEntity
8
BEND
100
AcDbLine
10
-1.4999999999999858
20
15.827433388230787
30
-1.1102230246251565e-15
11
398.5
21
15.827433388230787
31
-1.1102230246251565e-15
0
LINE
5
108
100
AcDbEntity
8
BEND_EXTENT
100
AcDbLine
10
-1.4999999999999858
20
12.999999999999972
30
0
11
398.5
21
12.999999999999972
31
0
0
LINE
5
109
100
AcDbEntity
8
BEND_EXTENT
100
AcDbLine
10
-1.4999999999999858
20
18.654866776461514
30
1.4210854715202004e-13
11
398.5
21
18.654866776461514
31
1.4210854715202004e-13
0
ENDSEC
0
SECTION
2
OBJECTS
0
DICTIONARY
5
C
100
AcDbDictionary
3
ACAD_GROUP
350
D
3
ACAD_MLINESTYLE
350
17
0
DICTIONARY
5
D
100
AcDbDictionary
0
DICTIONARY
5
1A
330
C
100
AcDbDictionary
0
DICTIONARY
5
17
100
AcDbDictionary
0
ENDSEC
0
EOF
