0
SECTION
2
HEADER
9
$INSUNITS
70
4
9
$ACADVER
1
AC1014
9
$HANDSEED
5
FFFF
0
ENDSEC
0
SECTION
2
TABLES
0
TABLE
2
VPORT
5
8
100
AcDbSymbolTable
0
ENDTAB
0
TABLE
2
LTYPE
5
5
100
AcDbSymbolTable
0
LTYPE
5
14
100
AcDbSymbolTableRecord
100
AcDbLinetypeTableRecord
2
BYBLOCK
70
0
0
LTYPE
5
15
100
AcDbSymbolTableRecord
100
AcDbLinetypeTableRecord
2
BYLAYER
70
0
0
LTYPE
5
16
100
AcDbSymbolTableRecord
100
AcDbLinetypeTableRecord
2
DASHED
70
0
3
Dashed __ __ __ __ __ __ __ __ __ __ __ __ __ _
72
65
73
2
40
0.75
49
0.5
74
0
49
-0.25
74
0
0
ENDTAB
0
TABLE
2
LAYER
5
2
100
AcDbSymbolTable
70
3
0
LAYER
5
50
100
AcDbSymbolTableRecord
100
AcDbLayerTableRecord
2
1
70
0
62
7
6
DASHED
0
LAYER
5
51
100
AcDbSymbolTableRecord
100
AcDbLayerTableRecord
2
0
70
0
62
7
6
CONTINUOUS
0
ENDTAB
0
TABLE
2
STYLE
5
3
100
AcDbSymbolTable
70
1
0
STYLE
5
11
100
AcDbSymbolTableRecord
100
AcDbTextStyleTableRecord
2
STANDARD
70
0
0
ENDTAB
0
TABLE
2
VIEW
5
6
100
AcDbSymbolTable
70
0
0
ENDTAB
0
TABLE
2
UCS
5
7
100
AcDbSymbolTable
70
0
0
ENDTAB
0
TABLE
2
APPID
5
9
100
AcDbSymbolTable
70
2
0
APPID
5
12
100
AcDbSymbolTableRecord
100
AcDbRegAppTableRecord
2
ACAD
70
0
0
ENDTAB
0
TABLE
2
DIMSTYLE
5
A
100
AcDbSymbolTable
70
1
0
ENDTAB
0
TABLE
2
BLOCK_RECORD
5
1
100
AcDbSymbolTable
70
1
0
BLOCK_RECORD
5
1F
100
AcDbSymbolTableRecord
100
AcDbBlockTableRecord
2
*MODEL_SPACE
0
BLOCK_RECORD
5
1B
100
AcDbSymbolTableRecord
100
AcDbBlockTableRecord
2
*PAPER_SPACE
0
ENDTAB
0
ENDSEC
0
SECTION
2
BLOCKS
0
BLOCK
5
20
100
AcDbEntity
100
AcDbBlockBegin
2
*MODEL_SPACE
0
ENDBLK
5
21
100
AcDbEntity
100
AcDbBlockEnd
0
BLOCK
5
1C
100
AcDbEntity
100
AcDbBlockBegin
2
*PAPER_SPACE
0
ENDBLK
5
1D
100
AcDbEntity
100
AcDbBlockEnd
0
ENDSEC
0
SECTION
2
ENTITIES
0
LWPOLYLINE
5
100
100
AcDbEntity
8
0
100
AcDbPolyline
90
18
70
1
43
0.0
10
-174.22321731235735
20
-5.0999980926513544
42
0.13959913241687399
10
-174.48660865617867
20
-5.174998092651375
42
-0.86316125674459498
10
-175.12500000000003
20
-4.4192791787682495
42
0.18267581368161143
10
-175
20
-4.0885602648851638
10
-175
20
1.0885640795824347
42
0.18267581368161487
10
-175.12500000000003
20
1.4192829934655335
42
-0.93922053388448912
10
-174.41928108611691
20
2.1250019073486381
42
0.18267581368159844
10
-174.08856217223385
20
2.0000019073486364
10
-171.30000000000001
20
2.0000019073486452
42
-0.41421356237309503
10
-170.80000000000001
20
1.5000019073486381
10
-170.80000000000001
20
-0.49999809265221629
42
-0.41421356237309503
10
-171.30000000000001
20
-0.99999809265221451
10
-171.5
20
-0.99999809265220563
42
0.41421356237309503
10
-172
20
-1.4999980926522039
10
-172
20
-3.9148334382268146
42
0.25226365250225136
10
-171.77499999999998
20
-4.3324157654390714
42
-0.98631743080641487
10
-172.31339134382131
20
-5.174998092651375
42
0.13959913241687399
10
-172.57678268764266
20
-5.0999980926513544
0
LWPOLYLINE
5
101
100
AcDbEntity
8
0
100
AcDbPolyline
90
18
70
1
43
0.0
10
-172.57678268764266
20
-9.8999980926513587
42
0.13959913241687399
10
-172.31339134382131
20
-9.8249980926513505
42
-0.98631743080641487
10
-171.77499999999998
20
-10.667580419863629
42
0.25226365250225136
10
-172
20
-11.085162747075898
10
-172
20
-13.4999980926505
42
0.41421356237309503
10
-171.5
20
-13.999998092650507
10
-171.30000000000001
20
-13.999998092650507
42
-0.41421356237309503
10
-170.80000000000001
20
-14.499998092650515
10
-170.80000000000001
20
-16.49999809265136
42
-0.41421356237309503
10
-171.30000000000001
20
-16.999998092651367
10
-174.08856217223385
20
-16.999998092651332
42
0.18267581368159846
10
-174.41928108611691
20
-17.12499809265136
42
-0.93922053388448368
10
-175.12500000000003
20
-16.419279178768242
42
0.18267581368161143
10
-175
20
-16.088560264885157
10
-175
20
-10.911435920417549
42
0.18267581368161143
10
-175.12500000000003
20
-10.580717006534464
42
-0.86316125674459498
10
-174.48660865617867
20
-9.8249980926513381
42
0.13959913241687399
10
-174.22321731235735
20
-9.8999980926513587
0
LWPOLYLINE
5
102
100
AcDbEntity
8
0
100
AcDbPolyline
90
4
70
1
43
0.0
10
-158.00000000000009
20
-26.049998092651379
42
0.99999999999999989
10
-158
20
-20.949998092651363
10
-159.00000000000003
20
-20.949998092651398
42
0.99999999999999989
10
-159.00000000000009
20
-26.049998092651343
0
LWPOLYLINE
5
103
100
AcDbEntity
8
0
100
AcDbPolyline
90
4
70
1
43
0.0
10
-143.50000000000003
20
-20.949998092651363
42
0.99999999999999989
10
-143.50000000000003
20
-26.049998092651379
10
-142.50000000000003
20
-26.049998092651379
42
0.99999999999999989
10
-142.50000000000003
20
-20.949998092651363
0
LWPOLYLINE
5
104
100
AcDbEntity
8
0
100
AcDbPolyline
90
30
70
1
43
0.0
10
-178.39999999060822
20
7.4497493756518374
10
-178.39999999060822
20
-22.449745560960039
42
0.19891236737965712
10
-177.96065846485419
20
-23.510404035205497
10
-175.9104076306966
20
-25.560658264431062
42
0.19891236737965151
10
-174.84974745891708
20
-25.999998092651104
10
-174.59238815542471
20
-25.999998092651371
42
-0.19891236737965257
10
-172.47106781186511
20
-26.878677749091686
10
-166.28908729652528
20
-33.060658264431204
42
0.19891236737965362
10
-165.22842712474551
20
-33.499998092651367
10
-140.12132034355969
20
-33.499998092651367
42
0.19891236737965803
10
-139.06066017177986
20
-33.060658264431183
10
-136.93933982822023
20
-30.939337920871548
42
0.19891236737965803
10
-136.50000000000006
20
-29.878677749091729
10
-136.50000000000006
20
-17.121318436211013
42
0.19891236737965803
10
-136.93933982822023
20
-16.060658264431193
10
-139.06066017177986
20
-13.939337920871573
42
0.19891236737965803
10
-140.12132034355966
20
-13.499998092651371
10
-147.75000000101173
20
-13.499998092651371
42
-0.41421356237309503
10
-150.75000000101173
20
-10.499998092651364
10
-150.75000000101173
20
10.725283281587297
42
0.19891236737967105
10
-151.18933982923195
20
11.785943453367169
10
-154.70405845499363
20
15.300662079128529
42
0.19891236737964407
10
-155.7647186267734
20
15.74000190734866
10
-165.98842712474612
20
15.740001907348748
42
0.19891236737967721
10
-167.04908729652604
20
15.300662079128511
10
-170.47106781186562
20
11.87868156378854
42
-0.19891236737967161
10
-172.5923881554254
20
11.000001907348071
10
-174.84974745891208
20
11.000001907348071
42
0.19891236737966456
10
-175.9104111592726
20
10.560665607708968
10
-177.96066016238802
20
8.5104095474317276
42
0.19891236737966725
0
CIRCLE
5
105
100
AcDbEntity
8
0
100
AcDbCircle
10
-156.06532829211287
20
1.4346736138725724
30
2.2426505097428162e-13
40
1.2500000000000044
210
-8.0786752265618056e-28
220
1.0577383026872322e-36
230
1
0
CIRCLE
5
106
100
AcDbEntity
8
0
100
AcDbCircle
10
-168.9346717097053
20
-11.434669803725832
30
2.2426505097428162e-13
40
1.2500000000000089
210
-8.0786752265618056e-28
220
1.0577383026872322e-36
230
1
0
CIRCLE
5
107
100
AcDbEntity
8
0
100
AcDbCircle
10
-162.50000000090915
20
-4.9999980949266742
30
2.2426505097428162e-13
40
6.5149999999999952
210
-8.0786752265618056e-28
220
1.0577383026872322e-36
230
1
0
CIRCLE
5
108
100
AcDbEntity
8
0
100
AcDbCircle
10
-158.25000000101173
20
8.2400019073485886
30
2.2426505097428162e-13
40
1.549999999999998
210
-8.0786752265618056e-28
220
1.0577383026872322e-36
230
1
0
CIRCLE
5
109
100
AcDbEntity
8
0
100
AcDbCircle
10
-173.40000000000001
20
6.0000019073486222
30
2.2426505097428162e-13
40
1.5499999999999936
210
-8.0786752265618056e-28
220
1.0577383026872322e-36
230
1
0
CIRCLE
5
110
100
AcDbEntity
8
0
100
AcDbCircle
10
-173.40000000000001
20
-20.999998092651371
30
2.2426505097428162e-13
40
1.5499999999999936
210
-8.0786752265618056e-28
220
1.0577383026872322e-36
230
1
0
ENDSEC
0
SECTION
2
OBJECTS
0
DICTIONARY
5
C
100
AcDbDictionary
3
ACAD_GROUP
350
D
3
ACAD_MLINESTYLE
350
17
0
DICTIONARY
5
D
100
AcDbDictionary
0
DICTIONARY
5
1A
330
C
100
AcDbDictionary
0
DICTIONARY
5
17
100
AcDbDictionary
0
ENDSEC
0
EOF
