0
SECTION
2
HEADER
9
$INSUNITS
70
4
9
$ACADVER
1
AC1014
9
$HANDSEED
5
FFFF
0
ENDSEC
0
SECTION
2
TABLES
0
TABLE
2
VPORT
5
8
100
AcDbSymbolTable
0
ENDTAB
0
TABLE
2
LTYPE
5
5
100
AcDbSymbolTable
0
LTYPE
5
14
100
AcDbSymbolTableRecord
100
AcDbLinetypeTableRecord
2
BYBLOCK
70
0
0
LTYPE
5
15
100
AcDbSymbolTableRecord
100
AcDbLinetypeTableRecord
2
BYLAYER
70
0
0
LTYPE
5
16
100
AcDbSymbolTableRecord
100
AcDbLinetypeTableRecord
2
DASHED
70
0
3
Dashed __ __ __ __ __ __ __ __ __ __ __ __ __ _
72
65
73
2
40
0.75
49
0.5
74
0
49
-0.25
74
0
0
ENDTAB
0
TABLE
2
LAYER
5
2
100
AcDbSymbolTable
70
3
0
LAYER
5
50
100
AcDbSymbolTableRecord
100
AcDbLayerTableRecord
2
1
70
0
62
7
6
DASHED
0
LAYER
5
51
100
AcDbSymbolTableRecord
100
AcDbLayerTableRecord
2
0
70
0
62
7
6
CONTINUOUS
0
ENDTAB
0
TABLE
2
STYLE
5
3
100
AcDbSymbolTable
70
1
0
STYLE
5
11
100
AcDbSymbolTableRecord
100
AcDbTextStyleTableRecord
2
STANDARD
70
0
0
ENDTAB
0
TABLE
2
VIEW
5
6
100
AcDbSymbolTable
70
0
0
ENDTAB
0
TABLE
2
UCS
5
7
100
AcDbSymbolTable
70
0
0
ENDTAB
0
TABLE
2
APPID
5
9
100
AcDbSymbolTable
70
2
0
APPID
5
12
100
AcDbSymbolTableRecord
100
AcDbRegAppTableRecord
2
ACAD
70
0
0
ENDTAB
0
TABLE
2
DIMSTYLE
5
A
100
AcDbSymbolTable
70
1
0
ENDTAB
0
TABLE
2
BLOCK_RECORD
5
1
100
AcDbSymbolTable
70
1
0
BLOCK_RECORD
5
1F
100
AcDbSymbolTableRecord
100
AcDbBlockTableRecord
2
*MODEL_SPACE
0
BLOCK_RECORD
5
1B
100
AcDbSymbolTableRecord
100
AcDbBlockTableRecord
2
*PAPER_SPACE
0
ENDTAB
0
ENDSEC
0
SECTION
2
BLOCKS
0
BLOCK
5
20
100
AcDbEntity
100
AcDbBlockBegin
2
*MODEL_SPACE
0
ENDBLK
5
21
100
AcDbEntity
100
AcDbBlockEnd
0
BLOCK
5
1C
100
AcDbEntity
100
AcDbBlockBegin
2
*PAPER_SPACE
0
ENDBLK
5
1D
100
AcDbEntity
100
AcDbBlockEnd
0
ENDSEC
0
SECTION
2
ENTITIES
0
LWPOLYLINE
5
100
100
AcDbEntity
8
0
100
AcDbPolyline
90
52
70
1
43
0.0
10
4.3500019073486484
20
-10.000000000000156
10
4.3500019073486484
20
9.9999999999998437
10
2.9114397351147847
20
9.9999999999998437
42
0.18267581368159583
10
2.5807208212317168
20
9.8749999999998472
42
-0.9392205338844678
10
1.8750019073486435
20
10.580718913882921
42
0.18267581368159716
10
2.0000019073486364
20
10.911437827765994
10
2.0000019073486364
20
12.499999999999844
42
0.41421356237309503
10
1.5000019073486293
20
12.999999999999845
10
-4.4999980926513494
20
12.999999999999845
42
0.41421356237309503
10
-4.9999980926513565
20
12.499999999999844
10
-4.9999980926513565
20
10.911437827765981
42
0.18267581368159067
10
-4.8749980926513539
20
10.580718913882928
42
-0.9392205338844678
10
-5.5807170065344458
20
9.8749999999998401
42
0.18267581368159844
10
-5.9114359204175138
20
9.9999999999998437
10
-9.0885602648851993
20
9.9999999999998437
42
0.18267581368160649
10
-9.4192791787682779
20
9.8749999999998295
42
-0.93922053388444227
10
-10.124998092651367
20
10.580718913882919
42
0.18267581368159677
10
-9.9999980926513565
20
10.911437827765981
10
-9.9999980926513565
20
12.499999999999844
42
0.41421356237309503
10
-10.499998092651364
20
12.999999999999845
10
-16.499998092651342
20
12.999999999999845
42
0.41421356237309503
10
-16.999998092651349
20
12.499999999999844
10
-16.999998092651349
20
10.911437827765981
42
0.18267581368159067
10
-16.874998092651346
20
10.580718913882928
42
-0.9392205338844678
10
-17.580717006534439
20
9.8749999999998401
42
0.18267581368159844
10
-17.911435920417507
20
9.9999999999998437
10
-19.349998092651362
20
9.9999999999998437
10
-19.349998092651362
20
-10.000000000000156
10
-17.911435920417507
20
-10.000000000000156
42
0.18267581368160643
10
-17.580717006534417
20
-9.875000000000151
42
-0.93922053388445192
10
-16.874998092651357
20
-10.580718913883228
42
0.18267581368159153
10
-16.999998092651332
20
-10.911437827766292
10
-16.999998092651349
20
-12.500000000000156
42
0.41421356237309503
10
-16.499998092651342
20
-13.000000000000156
10
-10.499998092651364
20
-13.000000000000156
42
0.41421356237309503
10
-9.9999980926513565
20
-12.500000000000156
10
-9.9999980926513565
20
-10.911437827766292
42
0.1826758136815898
10
-10.124998092651348
20
-10.58071891388323
42
-0.93922053388445903
10
-9.419279178768285
20
-9.8750000000001528
42
0.18267581368160496
10
-9.0885602648851993
20
-10.000000000000156
10
-5.9114359204175138
20
-10.000000000000156
42
0.18267581368160643
10
-5.5807170065344245
20
-9.875000000000151
42
-0.93922053388445192
10
-4.8749980926513636
20
-10.580718913883228
42
0.18267581368159153
10
-4.9999980926513388
20
-10.911437827766292
10
-4.9999980926513565
20
-12.500000000000156
42
0.41421356237309503
10
-4.4999980926513494
20
-13.000000000000156
10
1.5000019073486293
20
-13.000000000000156
42
0.41421356237309503
10
2.0000019073486275
20
-12.500000000000156
10
2.0000019073486364
20
-10.911437827766303
42
0.1826758136815963
10
1.8750019073486448
20
-10.580718913883231
42
-0.93922053388446947
10
2.5807208212317168
20
-9.8750000000001599
42
0.18267581368159622
10
2.9114397351147847
20
-10.000000000000156
0
CIRCLE
5
101
100
AcDbEntity
8
0
100
AcDbCircle
10
15.499998092651346
20
-7.5000000000001581
30
-2.4180657561039184e-13
40
1.5499999999999936
210
-4.4408920985007544e-16
220
-1.9721522630525289e-31
230
-1
0
CIRCLE
5
102
100
AcDbEntity
8
0
100
AcDbCircle
10
-0.50000190734864169
20
-7.5000000000001581
30
-2.4003021877099179e-13
40
1.5499999999999936
210
-4.4408920985007544e-16
220
-1.9721522630525289e-31
230
-1
0
CIRCLE
5
103
100
AcDbEntity
8
0
100
AcDbCircle
10
0.50000190734864169
20
7.4999999999998446
30
2.3980817331903381e-13
40
1.5499999999999936
210
4.4408920985007544e-16
220
1.9721522630525289e-31
230
1
0
CIRCLE
5
104
100
AcDbEntity
8
0
100
AcDbCircle
10
-15.499998092651346
20
7.4999999999998446
30
2.4868995751603507e-13
40
1.5499999999999936
210
4.4408920985007544e-16
220
1.9721522630525289e-31
230
1
0
ENDSEC
0
SECTION
2
OBJECTS
0
DICTIONARY
5
C
100
AcDbDictionary
3
ACAD_GROUP
350
D
3
ACAD_MLINESTYLE
350
17
0
DICTIONARY
5
D
100
AcDbDictionary
0
DICTIONARY
5
1A
330
C
100
AcDbDictionary
0
DICTIONARY
5
17
100
AcDbDictionary
0
ENDSEC
0
EOF
