0
SECTION
2
HEADER
9
$INSUNITS
70
4
9
$ACADVER
1
AC1014
9
$HANDSEED
5
FFFF
0
ENDSEC
0
SECTION
2
TABLES
0
TABLE
2
VPORT
5
8
100
AcDbSymbolTable
0
ENDTAB
0
TABLE
2
LTYPE
5
5
100
AcDbSymbolTable
0
LTYPE
5
14
100
AcDbSymbolTableRecord
100
AcDbLinetypeTableRecord
2
BYBLOCK
70
0
0
LTYPE
5
15
100
AcDbSymbolTableRecord
100
AcDbLinetypeTableRecord
2
BYLAYER
70
0
0
LTYPE
5
16
100
AcDbSymbolTableRecord
100
AcDbLinetypeTableRecord
2
DASHED
70
0
3
Dashed __ __ __ __ __ __ __ __ __ __ __ __ __ _
72
65
73
2
40
0.75
49
0.5
74
0
49
-0.25
74
0
0
ENDTAB
0
TABLE
2
LAYER
5
2
100
AcDbSymbolTable
70
3
0
LAYER
5
50
100
AcDbSymbolTableRecord
100
AcDbLayerTableRecord
2
1
70
0
62
7
6
DASHED
0
LAYER
5
51
100
AcDbSymbolTableRecord
100
AcDbLayerTableRecord
2
0
70
0
62
7
6
CONTINUOUS
0
ENDTAB
0
TABLE
2
STYLE
5
3
100
AcDbSymbolTable
70
1
0
STYLE
5
11
100
AcDbSymbolTableRecord
100
AcDbTextStyleTableRecord
2
STANDARD
70
0
0
ENDTAB
0
TABLE
2
VIEW
5
6
100
AcDbSymbolTable
70
0
0
ENDTAB
0
TABLE
2
UCS
5
7
100
AcDbSymbolTable
70
0
0
ENDTAB
0
TABLE
2
APPID
5
9
100
AcDbSymbolTable
70
2
0
APPID
5
12
100
AcDbSymbolTableRecord
100
AcDbRegAppTableRecord
2
ACAD
70
0
0
ENDTAB
0
TABLE
2
DIMSTYLE
5
A
100
AcDbSymbolTable
70
1
0
ENDTAB
0
TABLE
2
BLOCK_RECORD
5
1
100
AcDbSymbolTable
70
1
0
BLOCK_RECORD
5
1F
100
AcDbSymbolTableRecord
100
AcDbBlockTableRecord
2
*MODEL_SPACE
0
BLOCK_RECORD
5
1B
100
AcDbSymbolTableRecord
100
AcDbBlockTableRecord
2
*PAPER_SPACE
0
ENDTAB
0
ENDSEC
0
SECTION
2
BLOCKS
0
BLOCK
5
20
100
AcDbEntity
100
AcDbBlockBegin
2
*MODEL_SPACE
0
ENDBLK
5
21
100
AcDbEntity
100
AcDbBlockEnd
0
BLOCK
5
1C
100
AcDbEntity
100
AcDbBlockBegin
2
*PAPER_SPACE
0
ENDBLK
5
1D
100
AcDbEntity
100
AcDbBlockEnd
0
ENDSEC
0
SECTION
2
ENTITIES
0
LWPOLYLINE
5
100
100
AcDbEntity
8
0
100
AcDbPolyline
90
39
70
1
43
0.0
10
96.499999999997527
20
4.8999999999999222
10
123.09999999999752
20
4.8999999999999382
42
-0.41421356237309537
10
123.59999999999752
20
4.3999999999999302
10
123.59999999999752
20
-4.9000000000000696
42
-0.41421356237308432
10
123.09999999999754
20
-5.4000000000000696
10
96.499999999997527
20
-5.4000000000000767
10
96.499999999997527
20
-6.1885621722339321
42
0.18267581368159452
10
96.624999999997527
20
-6.5192810861170063
42
-0.9392205338844557
10
95.919281086114466
20
-7.2250000000000814
42
0.18267581368160457
10
95.588562172231377
20
-7.1000000000000796
10
91.999999999997542
20
-7.1000000000000796
42
0.41421356237309503
10
91.499999999997527
20
-7.6000000000000796
10
91.499999999997527
20
-9.3000000000000735
42
0.41421356237309503
10
91.999999999997542
20
-9.8000000000000735
10
134.00000000001259
20
-9.8000000000000718
10
134.00000000001259
20
-13.90000000000007
42
0.41421356237309503
10
134.50000000001259
20
-14.40000000000007
10
145.50000000001259
20
-14.400000000000068
42
0.41421356237309503
10
146.00000000001259
20
-13.900000000000068
10
146.00000000001259
20
-10.300000000000072
10
140.50000000001256
20
-10.300000000000068
10
140.50000000001259
20
-6.4892535789339289e-14
10
142.50000000001256
20
-6.9388939039072284e-14
42
0.41421356237309481
10
143.00000000001259
20
0.49999999999993028
10
143.00000000001259
20
9.4999999999999307
10
146.00000000001259
20
9.4999999999999307
10
146.00000000001259
20
13.899999999999931
42
0.41421356237309503
10
145.50000000001259
20
14.399999999999931
10
134.50000000001256
20
14.399999999999928
42
0.4142135623730937
10
134.00000000001259
20
13.899999999999933
10
134.00000000001256
20
9.2999999999999261
10
91.999999999997542
20
9.2999999999999137
42
0.41421356237309503
10
91.499999999997527
20
8.7999999999999137
10
91.499999999997527
20
7.0999999999999295
42
0.41421356237309503
10
91.999999999997542
20
6.5999999999999295
10
95.588562172231406
20
6.5999999999999295
42
0.18267581368160413
10
95.919281086114495
20
6.7249999999999339
42
-0.93922053388446314
10
96.624999999997556
20
6.0192810861168464
42
0.18267581368160554
10
96.499999999997556
20
5.6885621722337723
0
LWPOLYLINE
5
101
100
AcDbEntity
8
0
100
AcDbPolyline
90
6
70
1
43
0.0
10
138.00000000001259
20
7.4999999999999298
10
138.00000000001259
20
1.4999999999999294
10
133.50000000001256
20
1.4999999999999258
42
-0.41421356237309498
10
132.00000000001256
20
2.9999999999999289
10
132.00000000001256
20
5.9999999999999298
42
-0.41421356237309503
10
133.50000000001256
20
7.4999999999999298
0
CIRCLE
5
102
100
AcDbEntity
8
0
100
AcDbCircle
10
128.00000000001256
20
4.4999999999999289
30
-1.4033219031261979e-12
40
1.2499999999999998
210
-2.5748912984479588e-29
220
-3.3225112567402361e-33
230
1
0
ENDSEC
0
SECTION
2
OBJECTS
0
DICTIONARY
5
C
100
AcDbDictionary
3
ACAD_GROUP
350
D
3
ACAD_MLINESTYLE
350
17
0
DICTIONARY
5
D
100
AcDbDictionary
0
DICTIONARY
5
1A
330
C
100
AcDbDictionary
0
DICTIONARY
5
17
100
AcDbDictionary
0
ENDSEC
0
EOF
