0
SECTION
2
HEADER
9
$INSUNITS
70
4
9
$ACADVER
1
AC1014
9
$HANDSEED
5
FFFF
0
ENDSEC
0
SECTION
2
TABLES
0
TABLE
2
VPORT
5
8
100
AcDbSymbolTable
0
ENDTAB
0
TABLE
2
LTYPE
5
5
100
AcDbSymbolTable
0
LTYPE
5
14
100
AcDbSymbolTableRecord
100
AcDbLinetypeTableRecord
2
BYBLOCK
70
0
0
LTYPE
5
15
100
AcDbSymbolTableRecord
100
AcDbLinetypeTableRecord
2
BYLAYER
70
0
0
LTYPE
5
16
100
AcDbSymbolTableRecord
100
AcDbLinetypeTableRecord
2
DASHED
70
0
3
Dashed __ __ __ __ __ __ __ __ __ __ __ __ __ _
72
65
73
2
40
0.75
49
0.5
74
0
49
-0.25
74
0
0
ENDTAB
0
TABLE
2
LAYER
5
2
100
AcDbSymbolTable
70
2
0
LAYER
5
50
100
AcDbSymbolTableRecord
100
AcDbLayerTableRecord
2
0
70
0
62
7
6
CONTINUOUS
0
ENDTAB
0
TABLE
2
STYLE
5
3
100
AcDbSymbolTable
70
1
0
STYLE
5
11
100
AcDbSymbolTableRecord
100
AcDbTextStyleTableRecord
2
STANDARD
70
0
0
ENDTAB
0
TABLE
2
VIEW
5
6
100
AcDbSymbolTable
70
0
0
ENDTAB
0
TABLE
2
UCS
5
7
100
AcDbSymbolTable
70
0
0
ENDTAB
0
TABLE
2
APPID
5
9
100
AcDbSymbolTable
70
2
0
APPID
5
12
100
AcDbSymbolTableRecord
100
AcDbRegAppTableRecord
2
ACAD
70
0
0
ENDTAB
0
TABLE
2
DIMSTYLE
5
A
100
AcDbSymbolTable
70
1
0
ENDTAB
0
TABLE
2
BLOCK_RECORD
5
1
100
AcDbSymbolTable
70
1
0
BLOCK_RECORD
5
1F
100
AcDbSymbolTableRecord
100
AcDbBlockTableRecord
2
*MODEL_SPACE
0
BLOCK_RECORD
5
1B
100
AcDbSymbolTableRecord
100
AcDbBlockTableRecord
2
*PAPER_SPACE
0
ENDTAB
0
ENDSEC
0
SECTION
2
BLOCKS
0
BLOCK
5
20
100
AcDbEntity
100
AcDbBlockBegin
2
*MODEL_SPACE
0
ENDBLK
5
21
100
AcDbEntity
100
AcDbBlockEnd
0
BLOCK
5
1C
100
AcDbEntity
100
AcDbBlockBegin
2
*PAPER_SPACE
0
ENDBLK
5
1D
100
AcDbEntity
100
AcDbBlockEnd
0
ENDSEC
0
SECTION
2
ENTITIES
0
LWPOLYLINE
5
100
100
AcDbEntity
8
0
100
AcDbPolyline
90
6
70
1
43
0.0
10
137.80000000001286
20
-1.5000000000000693
10
126.10000000001281
20
-1.5000000000000751
42
-0.41421356237309503
10
124.60000000001281
20
-7.1695427372729958e-14
10
124.60000000001281
20
3.9999999999999276
42
-0.41421356237309503
10
126.10000000001281
20
5.4999999999999272
10
137.80000000001283
20
5.4999999999999281
0
LWPOLYLINE
5
101
100
AcDbEntity
8
0
100
AcDbPolyline
90
36
70
1
43
0.0
10
140.50000000001285
20
9.4999999999999254
10
146.00000000001279
20
9.4999999999999254
10
146.00000000001279
20
13.899999999999924
42
0.41421356237309503
10
145.50000000001279
20
14.399999999999924
10
134.50000000001282
20
14.399999999999922
42
0.4142135623730937
10
134.00000000001282
20
13.899999999999926
10
134.00000000001279
20
9.2999999999999226
10
91.99999999999784
20
9.2999999999999101
42
0.41421356237309503
10
91.49999999999784
20
8.7999999999999083
10
91.49999999999784
20
7.0999999999999268
42
0.41421356237309503
10
91.99999999999784
20
6.5999999999999259
10
95.588562172231732
20
6.5999999999999259
42
0.18267581368159735
10
95.919281086114808
20
6.7249999999999215
42
-0.93922053388447324
10
96.62499999999784
20
6.0192810861168446
42
0.18267581368159944
10
96.499999999997854
20
5.6885621722337696
10
96.49999999999784
20
4.8999999999999204
10
120.9999999999978
20
4.8999999999999169
42
-0.41421356237309503
10
121.49999999999778
20
4.3999999999999275
10
121.4999999999978
20
-4.9000000000000679
42
-0.4142135623730947
10
120.9999999999978
20
-5.400000000000067
10
96.49999999999784
20
-5.400000000000075
10
96.49999999999784
20
-6.1885621722339303
42
0.18267581368160021
10
96.624999999997826
20
-6.5192810861170027
42
-0.9392205338844557
10
95.919281086114765
20
-7.2250000000000778
42
0.18267581368159774
10
95.58856217223169
20
-7.100000000000076
10
91.99999999999784
20
-7.100000000000076
42
0.41421356237309503
10
91.49999999999784
20
-7.6000000000000769
10
91.49999999999784
20
-9.30000000000007
42
0.41421356237309503
10
91.99999999999784
20
-9.80000000000007
10
134.00000000001282
20
-9.8000000000000682
10
134.00000000001282
20
-13.900000000000063
42
0.41421356237309503
10
134.50000000001282
20
-14.400000000000064
10
145.50000000001279
20
-14.400000000000063
42
0.41421356237309503
10
146.00000000001279
20
-13.900000000000061
10
146.00000000001279
20
-10.300000000000066
10
140.50000000001279
20
-10.300000000000065
0
ENDSEC
0
SECTION
2
OBJECTS
0
DICTIONARY
5
C
100
AcDbDictionary
3
ACAD_GROUP
350
D
3
ACAD_MLINESTYLE
350
17
0
DICTIONARY
5
D
100
AcDbDictionary
0
DICTIONARY
5
1A
330
C
100
AcDbDictionary
0
DICTIONARY
5
17
100
AcDbDictionary
0
ENDSEC
0
EOF
